<svg xmlns="http://www.w3.org/2000/svg" width="50" height="43" fill="none">
  <path fill="#EABA6D"
    d="m7.82 7.45 9.668-3.222 1.067 8.6 4.29 15.046 7.076 7.076-.632 1.525h-5.465S22.256 42.92 16.4 42.92c-5.683 0-6.837-4.42-6.837-4.42l-2.199-.501-.392-2.526-4.529-2.243-2.155-6.445 2.155-6.445v-6.445L7.821 7.45Z"
    opacity=".1" />
  <path fill="#EABA6D" fill-rule="evenodd"
    d="M11.105 36.105c0-.17.138-.31.308-.31h17.289a.309.309 0 1 1 0 .618H11.413a.309.309 0 0 1-.308-.308ZM6.198 9.315a.309.309 0 0 1 .062.432l-3.16 4.23v6.08c0 .04-.008.079-.023.116l-2.44 6.056 2.413 7.196 3.614 2.423a.309.309 0 1 1-.344.513L2.62 33.879a.308.308 0 0 1-.12-.159L.015 26.317a.309.309 0 0 1 .006-.213l2.46-6.107v-6.123c0-.067.022-.132.062-.185l3.222-4.311a.309.309 0 0 1 .432-.063ZM27.767 2.735a.309.309 0 0 1-.273.34L17.668 4.16l-7.52 2.753a.309.309 0 0 1-.212-.58l7.555-2.765a.308.308 0 0 1 .072-.017l9.864-1.089a.309.309 0 0 1 .34.273ZM32.106 3.296a.309.309 0 0 1 .38-.215L43.59 6.173a.309.309 0 0 1 .135.08l4.943 4.942c.049.05.08.114.088.184l1.241 11.104a.308.308 0 0 1-.03.173l-2.134 4.267a.309.309 0 0 1-.163.15l-5.378 2.133a.31.31 0 0 1-.134.021l-3.336-.222-1.178 4.692a.309.309 0 0 1-.127.181l-3.702 2.483a.309.309 0 0 1-.344-.513l3.603-2.416 1.212-4.828a.309.309 0 0 1 .32-.232l3.523.235 5.204-2.065 2.04-4.08-1.218-10.907-4.81-4.81-11.026-3.07a.309.309 0 0 1-.214-.38Z"
    clip-rule="evenodd" />
  <path fill="#EABA6D" fill-rule="evenodd"
    d="M32.723 16.689a.309.309 0 0 1 .414.14l5.726 11.561a.309.309 0 0 1-.553.274l-5.726-11.562a.309.309 0 0 1 .14-.413Z"
    clip-rule="evenodd" />
  <path fill="#EABA6D" fill-rule="evenodd"
    d="M41.145 20.984c.161.054.249.228.195.39l-2.46 7.403a.309.309 0 0 1-.586-.195l2.46-7.403a.308.308 0 0 1 .39-.195ZM44.609 21.002a.309.309 0 0 1 .415.135l2.809 5.508a.309.309 0 0 1-.55.28l-2.81-5.508a.309.309 0 0 1 .136-.415ZM48.727 11.276a.309.309 0 0 1-.14.414l-2.46 1.219a.309.309 0 0 1-.274-.553l2.46-1.22a.309.309 0 0 1 .414.14ZM33.336 15.115c0-.17.138-.309.308-.309h3.702a.309.309 0 1 1 0 .617h-3.702a.309.309 0 0 1-.308-.308ZM29.893 4.925a.309.309 0 0 1 .354.254l1.22 7.403a.309.309 0 0 1-.61.1L29.639 5.28a.309.309 0 0 1 .255-.355ZM28.307 4.246a.309.309 0 0 1 .006.436L23.98 9.146a.309.309 0 0 1-.443-.43l4.333-4.463a.309.309 0 0 1 .437-.007ZM17.502 3.564a.309.309 0 0 1 .389.2l1.24 3.853a.309.309 0 0 1-.587.19l-1.24-3.855a.309.309 0 0 1 .198-.388ZM43.767 6.303a.309.309 0 0 1-.091.426l-10.473 6.794a.309.309 0 0 1-.336-.518L43.34 6.212a.309.309 0 0 1 .427.09Z"
    clip-rule="evenodd" />
  <path fill="#EABA6D" fill-rule="evenodd"
    d="M31.162 12.963a2.152 2.152 0 1 0 0 4.304 2.152 2.152 0 0 0 0-4.304Zm-2.77 2.152a2.77 2.77 0 1 1 5.539 0 2.77 2.77 0 0 1-5.538 0ZM31.162 33.953a2.152 2.152 0 1 0 0 4.304 2.152 2.152 0 0 0 0-4.304Zm-2.77 2.152a2.77 2.77 0 1 1 5.539 0 2.77 2.77 0 0 1-5.538 0ZM29.943.617a2.152 2.152 0 1 0 0 4.304 2.152 2.152 0 0 0 0-4.304Zm-2.77 2.152a2.769 2.769 0 1 1 5.539 0 2.769 2.769 0 0 1-5.538 0ZM8.953 33.953a2.152 2.152 0 1 0 0 4.304 2.152 2.152 0 0 0 0-4.304Zm-2.77 2.152a2.769 2.769 0 1 1 5.539 0 2.769 2.769 0 0 1-5.538 0ZM11.413 19.125a2.152 2.152 0 1 0 0 4.303 2.152 2.152 0 0 0 0-4.303Zm-2.769 2.152a2.769 2.769 0 1 1 5.538 0 2.769 2.769 0 0 1-5.538 0Z"
    clip-rule="evenodd" />
  <path fill="#EABA6D" fill-rule="evenodd"
    d="M26.024 30.943c.12-.12.316-.12.436.001l3.07 3.092a.309.309 0 1 1-.438.435l-3.07-3.092a.309.309 0 0 1 .002-.436ZM29.61 16.683c.155.068.226.25.158.406l-3.244 7.403a.309.309 0 0 1-.566-.247l3.245-7.404a.309.309 0 0 1 .406-.158ZM20.65 17.421a.309.309 0 0 1 .345.268l.61 4.79a.309.309 0 0 1-.613.078l-.61-4.79a.309.309 0 0 1 .268-.346ZM24.707 13.166a.309.309 0 0 1 .391-.195l3.702 1.242a.309.309 0 1 1-.197.585l-3.701-1.241a.309.309 0 0 1-.195-.391ZM31.162 17.267c.17 0 .309.138.309.308v16.047a.309.309 0 1 1-.617 0V17.575c0-.17.138-.308.308-.308ZM23.759 35.796c.17 0 .308.138.308.309 0 1.892-1.01 3.515-2.464 4.654a8.685 8.685 0 0 1-5.247 1.816.309.309 0 0 1 0-.617c1.737 0 3.52-.63 4.866-1.684 1.345-1.054 2.228-2.512 2.228-4.17 0-.17.139-.308.309-.308Z"
    clip-rule="evenodd" />
  <path fill="#EABA6D" fill-rule="evenodd"
    d="M10.193 38.511a.309.309 0 0 0-.613.054h.309-.309v.015a.345.345 0 0 0 .006.044c.003.021.008.043.016.066.014.045.037.1.072.166.071.13.2.323.436.604l.002.003c1.521 1.767 3.669 3.112 6.244 3.112a.309.309 0 1 0 0-.617c-2.346 0-4.335-1.224-5.775-2.896a3.212 3.212 0 0 1-.363-.5.57.57 0 0 1-.022-.043l-.003-.008ZM18.48 30.41a.309.309 0 0 1-.13.416l-7.404 3.854a.309.309 0 0 1-.285-.547l7.403-3.854a.309.309 0 0 1 .416.13ZM13.53 21.99a.308.308 0 0 1 .435.009l3.854 4.006a.309.309 0 1 1-.444.428l-3.854-4.006a.309.309 0 0 1 .008-.436ZM9.91 8.355a.309.309 0 0 1 .402-.166l5.553 2.308a.309.309 0 1 1-.237.57l-5.552-2.308a.309.309 0 0 1-.167-.404ZM16.603 16.171a.309.309 0 0 1-.063.432l-3.701 2.765a.309.309 0 0 1-.37-.494l3.702-2.765a.309.309 0 0 1 .432.062ZM10.376 23.204c.138.1.168.294.068.431L3.04 33.805a.309.309 0 1 1-.498-.363l7.403-10.169a.309.309 0 0 1 .43-.068ZM9.248 21.57a.309.309 0 0 1-.131.416L.451 26.493a.309.309 0 0 1-.285-.547l8.666-4.508a.309.309 0 0 1 .416.132ZM2.548 13.684a.309.309 0 0 1 .433-.054l6.924 5.4a.309.309 0 1 1-.38.487l-6.924-5.4a.309.309 0 0 1-.053-.433Z"
    clip-rule="evenodd" />
  <path fill="#EABA6D" fill-rule="evenodd"
    d="M42.288 15.438a.917.917 0 1 0 0 1.835.917.917 0 0 0 0-1.835Zm-4.003.918a4.003 4.003 0 1 1 8.007 0 4.003 4.003 0 0 1-8.007 0ZM22.54 26.543a.917.917 0 1 0 0 1.835.917.917 0 0 0 0-1.835Zm-4.004.918a4.003 4.003 0 1 1 8.007 0 4.003 4.003 0 0 1-8.007 0Z"
    clip-rule="evenodd" opacity=".4" />
  <path fill="#EABA6D" fill-rule="evenodd"
    d="M7.712 5.56a2.152 2.152 0 1 0 0 4.303 2.152 2.152 0 0 0 0-4.303Zm-2.77 2.152a2.769 2.769 0 1 1 5.539 0 2.769 2.769 0 0 1-5.538 0Z"
    clip-rule="evenodd" />
  <path fill="#EABA6D" fill-rule="evenodd"
    d="M20.058 11.715a.918.918 0 1 0 0 1.835.918.918 0 0 0 0-1.835Zm-4.004.917a4.003 4.003 0 1 1 8.007 0 4.003 4.003 0 0 1-8.007 0Z"
    clip-rule="evenodd" opacity=".4" />
</svg>
