<svg width="77" height="40" viewBox="0 0 77 40" fill="none" xmlns="http://www.w3.org/2000/svg">
    <g clip-path="url(#clip0_2073_5036)">
        <path
            d="M38.2153 26.7502C38.1161 26.7232 36.5894 26.3306 34.967 26.3306C31.8953 26.3306 30.046 27.9846 30.046 30.4478C30.046 32.6281 31.5931 33.7155 33.4498 34.3004C33.6556 34.3681 33.9589 34.4628 34.1609 34.5295C34.9874 34.7888 35.6471 35.1741 35.6471 35.8414C35.6471 36.5878 34.8847 37.0709 33.2271 37.0709C31.7704 37.0709 30.3739 36.6555 30.0798 36.5814V39.612C30.2437 39.6467 31.9034 39.9716 33.6764 39.9716C36.2266 39.9716 39.1438 38.8604 39.1438 35.5523C39.1438 33.9478 38.1586 32.4706 35.9958 31.785L35.0764 31.493C34.5279 31.3204 33.5487 31.0407 33.5487 30.239C33.5487 29.6057 34.2742 29.1597 35.6102 29.1597C36.7628 29.1597 38.1657 29.546 38.2153 29.5614V26.7502ZM66.3779 33.1513C66.3779 35.0674 64.9061 36.6176 62.9311 36.6176C60.9541 36.6176 59.4861 35.0674 59.4861 33.1513C59.4861 31.239 60.9541 29.6881 62.9311 29.6881C64.9061 29.6881 66.3779 31.239 66.3779 33.1513ZM62.9311 26.3348C58.8693 26.3348 55.9564 29.3899 55.9564 33.1513C55.9564 36.9186 58.8693 39.9716 62.9311 39.9716C66.9925 39.9716 69.9097 36.9186 69.9097 33.1513C69.9097 29.3899 66.9925 26.3348 62.9311 26.3348ZM25.5771 39.7372H22.2444V26.5681H25.5771"
            fill="#049FD9" />
        <path
            d="M17.6636 26.8069C17.3504 26.7143 16.1928 26.335 14.625 26.335C10.5695 26.335 7.59253 29.2185 7.59253 33.1515C7.59253 37.3946 10.8788 39.9718 14.625 39.9718C16.1133 39.9718 17.2495 39.6202 17.6636 39.503V35.9679C17.5204 36.0472 16.431 36.6669 14.8639 36.6669C12.6437 36.6669 11.2117 35.1086 11.2117 33.1515C11.2117 31.1346 12.7056 29.6388 14.8639 29.6388C16.4578 29.6388 17.5295 30.2722 17.6636 30.342"
            fill="#049FD9" />
        <path
            d="M52.4475 26.8069C52.1344 26.7143 50.9768 26.335 49.4089 26.335C45.3535 26.335 42.3765 29.2185 42.3765 33.1515C42.3765 37.3946 45.6628 39.9718 49.4089 39.9718C50.8973 39.9718 52.0334 39.6202 52.4475 39.503V35.9679C52.3043 36.0472 51.215 36.6669 49.6478 36.6669C47.4276 36.6669 45.9956 35.1086 45.9956 33.1515C45.9956 31.1346 47.4896 29.6388 49.6478 29.6388C51.2417 29.6388 52.3135 30.2722 52.4475 30.342"
            fill="#049FD9" />
        <path
            d="M22.2344 1.66974C22.2344 0.762019 21.491 0.0258789 20.5797 0.0258789C19.6687 0.0258789 18.9253 0.762019 18.9253 1.66974V19.1575C18.9253 20.0704 19.6687 20.8062 20.5797 20.8062C21.491 20.8062 22.2344 20.0704 22.2344 19.1575V1.66974ZM13.1464 7.87746C13.1464 6.97009 12.4033 6.2329 11.492 6.2329C10.5807 6.2329 9.83763 6.97009 9.83763 7.87746V15.8722C9.83763 16.7848 10.5807 17.521 11.492 17.521C12.4033 17.521 13.1464 16.7848 13.1464 15.8722V7.87746ZM4.05882 12.415C4.05882 11.5073 3.3157 10.7715 2.40441 10.7715C1.49417 10.7715 0.75 11.5073 0.75 12.415V15.8722C0.75 16.7848 1.49417 17.521 2.40441 17.521C3.3157 17.521 4.05882 16.7848 4.05882 15.8722"
            fill="#049FD9" />
        <path
            d="M18.9252 1.66974C18.9252 0.762019 19.6687 0.0258789 20.58 0.0258789C21.4909 0.0258789 22.2344 0.762019 22.2344 1.66974V19.1575C22.2344 20.0704 21.4909 20.8062 20.58 20.8062C19.6687 20.8062 18.9252 20.0704 18.9252 19.1575V1.66974ZM28.0132 7.87746C28.0132 6.97009 28.7563 6.2329 29.6676 6.2329C30.5789 6.2329 31.322 6.97009 31.322 7.87746V15.8722C31.322 16.7848 30.5789 17.521 29.6676 17.521C28.7563 17.521 28.0132 16.7848 28.0132 15.8722V7.87746ZM37.1009 12.415C37.1009 11.5073 37.844 10.7715 38.7553 10.7715C39.6655 10.7715 40.4097 11.5073 40.4097 12.415V15.8722C40.4097 16.7848 39.6655 17.521 38.7553 17.521C37.844 17.521 37.1009 16.7848 37.1009 15.8722"
            fill="#049FD9" />
        <path
            d="M55.2656 1.66974C55.2656 0.762019 56.009 0.0258789 56.9203 0.0258789C57.8313 0.0258789 58.5747 0.762019 58.5747 1.66974V19.1575C58.5747 20.0704 57.8313 20.8062 56.9203 20.8062C56.009 20.8062 55.2656 20.0704 55.2656 19.1575V1.66974ZM64.3536 7.87746C64.3536 6.97009 65.0967 6.2329 66.008 6.2329C66.9193 6.2329 67.6624 6.97009 67.6624 7.87746V15.8722C67.6624 16.7848 66.9193 17.521 66.008 17.521C65.0967 17.521 64.3536 16.7848 64.3536 15.8722V7.87746ZM73.4412 12.415C73.4412 11.5073 74.1843 10.7715 75.0956 10.7715C76.0058 10.7715 76.75 11.5073 76.75 12.415V15.8722C76.75 16.7848 76.0058 17.521 75.0956 17.521C74.1843 17.521 73.4412 16.7848 73.4412 15.8722"
            fill="#049FD9" />
        <path
            d="M58.5748 1.66974C58.5748 0.762019 57.8313 0.0258789 56.92 0.0258789C56.0091 0.0258789 55.2656 0.762019 55.2656 1.66974V19.1575C55.2656 20.0704 56.0091 20.8062 56.92 20.8062C57.8313 20.8062 58.5748 20.0704 58.5748 19.1575V1.66974ZM49.4868 7.87746C49.4868 6.97009 48.7437 6.2329 47.8324 6.2329C46.9211 6.2329 46.178 6.97009 46.178 7.87746V15.8722C46.178 16.7848 46.9211 17.521 47.8324 17.521C48.7437 17.521 49.4868 16.7848 49.4868 15.8722V7.87746ZM40.3991 12.415C40.3991 11.5073 39.656 10.7715 38.7447 10.7715C37.8345 10.7715 37.0903 11.5073 37.0903 12.415V15.8722C37.0903 16.7848 37.8345 17.521 38.7447 17.521C39.656 17.521 40.3991 16.7848 40.3991 15.8722"
            fill="#049FD9" />
    </g>
    <defs>
        <clipPath id="clip0_2073_5036">
            <rect width="76" height="40" fill="white" transform="translate(0.75)" />
        </clipPath>
    </defs>
</svg>
    
