<svg xmlns="http://www.w3.org/2000/svg" width="812" height="833" viewBox="0 0 812 833" fill="none">
    <g clip-path="url(#a)">
        <g opacity=".9">
            <mask id="c" width="812" height="833" x="0" y="0" maskUnits="userSpaceOnUse"
                style="mask-type:alpha">
                <path fill="url(#b)" d="M0 0h812v833H0z" />
            </mask>
            <g fill="#4F48CD" mask="url(#c)">
                <circle cx="10" cy="29.644" r="1" />
                <circle cx="42" cy="29.644" r="1" />
                <circle cx="74" cy="29.644" r="1" />
                <circle cx="106" cy="29.644" r="1" />
                <circle cx="138" cy="29.644" r="1" />
                <circle cx="170" cy="29.644" r="1" />
                <circle cx="202" cy="29.644" r="1" />
                <circle cx="234" cy="29.644" r="1" />
                <circle cx="266" cy="29.644" r="1" />
                <circle cx="298" cy="29.644" r="1" />
                <circle cx="330" cy="29.644" r="1" />
                <circle cx="362" cy="29.644" r="1" />
                <circle cx="394" cy="29.644" r="1" />
                <circle cx="426" cy="29.644" r="1" />
                <circle cx="458" cy="29.644" r="1" />
                <circle cx="490" cy="29.644" r="1" />
                <circle cx="522" cy="29.644" r="1" />
                <circle cx="554" cy="29.644" r="1" />
                <circle cx="586" cy="29.644" r="1" />
                <circle cx="618" cy="29.644" r="1" />
                <circle cx="650" cy="29.644" r="1" />
                <circle cx="682" cy="29.644" r="1" />
                <circle cx="714" cy="29.644" r="1" />
                <circle cx="746" cy="29.644" r="1" />
                <circle cx="778" cy="29.644" r="1" />
                <circle cx="10" cy="61.644" r="1" />
                <circle cx="42" cy="61.644" r="1" />
                <circle cx="74" cy="61.644" r="1" />
                <circle cx="106" cy="61.644" r="1" />
                <circle cx="138" cy="61.644" r="1" />
                <circle cx="170" cy="61.644" r="1" />
                <circle cx="202" cy="61.644" r="1" />
                <circle cx="234" cy="61.644" r="1" />
                <circle cx="266" cy="61.644" r="1" />
                <circle cx="298" cy="61.644" r="1" />
                <circle cx="330" cy="61.644" r="1" />
                <circle cx="362" cy="61.644" r="1" />
                <circle cx="394" cy="61.644" r="1" />
                <circle cx="426" cy="61.644" r="1" />
                <circle cx="458" cy="61.644" r="1" />
                <circle cx="490" cy="61.644" r="1" />
                <circle cx="522" cy="61.644" r="1" />
                <circle cx="554" cy="61.644" r="1" />
                <circle cx="586" cy="61.644" r="1" />
                <circle cx="618" cy="61.644" r="1" />
                <circle cx="650" cy="61.644" r="1" />
                <circle cx="682" cy="61.644" r="1" />
                <circle cx="714" cy="61.644" r="1" />
                <circle cx="746" cy="61.644" r="1" />
                <circle cx="778" cy="61.644" r="1" />
                <circle cx="10" cy="93.644" r="1" />
                <circle cx="42" cy="93.644" r="1" />
                <circle cx="74" cy="93.644" r="1" />
                <circle cx="106" cy="93.644" r="1" />
                <circle cx="138" cy="93.644" r="1" />
                <circle cx="170" cy="93.644" r="1" />
                <circle cx="202" cy="93.644" r="1" />
                <circle cx="234" cy="93.644" r="1" />
                <circle cx="266" cy="93.644" r="1" />
                <circle cx="298" cy="93.644" r="1" />
                <circle cx="330" cy="93.644" r="1" />
                <circle cx="362" cy="93.644" r="1" />
                <circle cx="394" cy="93.644" r="1" />
                <circle cx="426" cy="93.644" r="1" />
                <circle cx="458" cy="93.644" r="1" />
                <circle cx="490" cy="93.644" r="1" />
                <circle cx="522" cy="93.644" r="1" />
                <circle cx="554" cy="93.644" r="1" />
                <circle cx="586" cy="93.644" r="1" />
                <circle cx="618" cy="93.644" r="1" />
                <circle cx="650" cy="93.644" r="1" />
                <circle cx="682" cy="93.644" r="1" />
                <circle cx="714" cy="93.644" r="1" />
                <circle cx="746" cy="93.644" r="1" />
                <circle cx="778" cy="93.644" r="1" />
                <circle cx="10" cy="125.644" r="1" />
                <circle cx="42" cy="125.644" r="1" />
                <circle cx="74" cy="125.644" r="1" />
                <circle cx="106" cy="125.644" r="1" />
                <circle cx="138" cy="125.644" r="1" />
                <circle cx="170" cy="125.644" r="1" />
                <circle cx="202" cy="125.644" r="1" />
                <circle cx="234" cy="125.644" r="1" />
                <circle cx="266" cy="125.644" r="1" />
                <circle cx="298" cy="125.644" r="1" />
                <circle cx="330" cy="125.644" r="1" />
                <circle cx="362" cy="125.644" r="1" />
                <circle cx="394" cy="125.644" r="1" />
                <circle cx="426" cy="125.644" r="1" />
                <circle cx="458" cy="125.644" r="1" />
                <circle cx="490" cy="125.644" r="1" />
                <circle cx="522" cy="125.644" r="1" />
                <circle cx="554" cy="125.644" r="1" />
                <circle cx="586" cy="125.644" r="1" />
                <circle cx="618" cy="125.644" r="1" />
                <circle cx="650" cy="125.644" r="1" />
                <circle cx="682" cy="125.644" r="1" />
                <circle cx="714" cy="125.644" r="1" />
                <circle cx="746" cy="125.644" r="1" />
                <circle cx="778" cy="125.644" r="1" />
                <circle cx="10" cy="157.644" r="1" />
                <circle cx="42" cy="157.644" r="1" />
                <circle cx="74" cy="157.644" r="1" />
                <circle cx="106" cy="157.644" r="1" />
                <circle cx="138" cy="157.644" r="1" />
                <circle cx="170" cy="157.644" r="1" />
                <circle cx="202" cy="157.644" r="1" />
                <circle cx="234" cy="157.644" r="1" />
                <circle cx="266" cy="157.644" r="1" />
                <circle cx="298" cy="157.644" r="1" />
                <circle cx="330" cy="157.644" r="1" />
                <circle cx="362" cy="157.644" r="1" />
                <circle cx="394" cy="157.644" r="1" />
                <circle cx="426" cy="157.644" r="1" />
                <circle cx="458" cy="157.644" r="1" />
                <circle cx="490" cy="157.644" r="1" />
                <circle cx="522" cy="157.644" r="1" />
                <circle cx="554" cy="157.644" r="1" />
                <circle cx="586" cy="157.644" r="1" />
                <circle cx="618" cy="157.644" r="1" />
                <circle cx="650" cy="157.644" r="1" />
                <circle cx="682" cy="157.644" r="1" />
                <circle cx="714" cy="157.644" r="1" />
                <circle cx="746" cy="157.644" r="1" />
                <circle cx="778" cy="157.644" r="1" />
                <circle cx="10" cy="189.644" r="1" />
                <circle cx="42" cy="189.644" r="1" />
                <circle cx="74" cy="189.644" r="1" />
                <circle cx="106" cy="189.644" r="1" />
                <circle cx="138" cy="189.644" r="1" />
                <circle cx="170" cy="189.644" r="1" />
                <circle cx="202" cy="189.644" r="1" />
                <circle cx="234" cy="189.644" r="1" />
                <circle cx="266" cy="189.644" r="1" />
                <circle cx="298" cy="189.644" r="1" />
                <circle cx="330" cy="189.644" r="1" />
                <circle cx="362" cy="189.644" r="1" />
                <circle cx="394" cy="189.644" r="1" />
                <circle cx="426" cy="189.644" r="1" />
                <circle cx="458" cy="189.644" r="1" />
                <circle cx="490" cy="189.644" r="1" />
                <circle cx="522" cy="189.644" r="1" />
                <circle cx="554" cy="189.644" r="1" />
                <circle cx="586" cy="189.644" r="1" />
                <circle cx="618" cy="189.644" r="1" />
                <circle cx="650" cy="189.644" r="1" />
                <circle cx="682" cy="189.644" r="1" />
                <circle cx="714" cy="189.644" r="1" />
                <circle cx="746" cy="189.644" r="1" />
                <circle cx="778" cy="189.644" r="1" />
                <circle cx="10" cy="221.644" r="1" />
                <circle cx="42" cy="221.644" r="1" />
                <circle cx="74" cy="221.644" r="1" />
                <circle cx="106" cy="221.644" r="1" />
                <circle cx="138" cy="221.644" r="1" />
                <circle cx="170" cy="221.644" r="1" />
                <circle cx="202" cy="221.644" r="1" />
                <circle cx="234" cy="221.644" r="1" />
                <circle cx="266" cy="221.644" r="1" />
                <circle cx="298" cy="221.644" r="1" />
                <circle cx="330" cy="221.644" r="1" />
                <circle cx="362" cy="221.644" r="1" />
                <circle cx="394" cy="221.644" r="1" />
                <circle cx="426" cy="221.644" r="1" />
                <circle cx="458" cy="221.644" r="1" />
                <circle cx="490" cy="221.644" r="1" />
                <circle cx="522" cy="221.644" r="1" />
                <circle cx="554" cy="221.644" r="1" />
                <circle cx="586" cy="221.644" r="1" />
                <circle cx="618" cy="221.644" r="1" />
                <circle cx="650" cy="221.644" r="1" />
                <circle cx="682" cy="221.644" r="1" />
                <circle cx="714" cy="221.644" r="1" />
                <circle cx="746" cy="221.644" r="1" />
                <circle cx="778" cy="221.644" r="1" />
                <circle cx="10" cy="253.644" r="1" />
                <circle cx="42" cy="253.644" r="1" />
                <circle cx="74" cy="253.644" r="1" />
                <circle cx="106" cy="253.644" r="1" />
                <circle cx="138" cy="253.644" r="1" />
                <circle cx="170" cy="253.644" r="1" />
                <circle cx="202" cy="253.644" r="1" />
                <circle cx="234" cy="253.644" r="1" />
                <circle cx="266" cy="253.644" r="1" />
                <circle cx="298" cy="253.644" r="1" />
                <circle cx="330" cy="253.644" r="1" />
                <circle cx="362" cy="253.644" r="1" />
                <circle cx="394" cy="253.644" r="1" />
                <circle cx="426" cy="253.644" r="1" />
                <circle cx="458" cy="253.644" r="1" />
                <circle cx="490" cy="253.644" r="1" />
                <circle cx="522" cy="253.644" r="1" />
                <circle cx="554" cy="253.644" r="1" />
                <circle cx="586" cy="253.644" r="1" />
                <circle cx="618" cy="253.644" r="1" />
                <circle cx="650" cy="253.644" r="1" />
                <circle cx="682" cy="253.644" r="1" />
                <circle cx="714" cy="253.644" r="1" />
                <circle cx="746" cy="253.644" r="1" />
                <circle cx="778" cy="253.644" r="1" />
                <circle cx="10" cy="285.644" r="1" />
                <circle cx="42" cy="285.644" r="1" />
                <circle cx="74" cy="285.644" r="1" />
                <circle cx="106" cy="285.644" r="1" />
                <circle cx="138" cy="285.644" r="1" />
                <circle cx="170" cy="285.644" r="1" />
                <circle cx="202" cy="285.644" r="1" />
                <circle cx="234" cy="285.644" r="1" />
                <circle cx="266" cy="285.644" r="1" />
                <circle cx="298" cy="285.644" r="1" />
                <circle cx="330" cy="285.644" r="1" />
                <circle cx="362" cy="285.644" r="1" />
                <circle cx="394" cy="285.644" r="1" />
                <circle cx="426" cy="285.644" r="1" />
                <circle cx="458" cy="285.644" r="1" />
                <circle cx="490" cy="285.644" r="1" />
                <circle cx="522" cy="285.644" r="1" />
                <circle cx="554" cy="285.644" r="1" />
                <circle cx="586" cy="285.644" r="1" />
                <circle cx="618" cy="285.644" r="1" />
                <circle cx="650" cy="285.644" r="1" />
                <circle cx="682" cy="285.644" r="1" />
                <circle cx="714" cy="285.644" r="1" />
                <circle cx="746" cy="285.644" r="1" />
                <circle cx="778" cy="285.644" r="1" />
                <circle cx="10" cy="317.644" r="1" />
                <circle cx="42" cy="317.644" r="1" />
                <circle cx="74" cy="317.644" r="1" />
                <circle cx="106" cy="317.644" r="1" />
                <circle cx="138" cy="317.644" r="1" />
                <circle cx="170" cy="317.644" r="1" />
                <circle cx="202" cy="317.644" r="1" />
                <circle cx="234" cy="317.644" r="1" />
                <circle cx="266" cy="317.644" r="1" />
                <circle cx="298" cy="317.644" r="1" />
                <circle cx="330" cy="317.644" r="1" />
                <circle cx="362" cy="317.644" r="1" />
                <circle cx="394" cy="317.644" r="1" />
                <circle cx="426" cy="317.644" r="1" />
                <circle cx="458" cy="317.644" r="1" />
                <circle cx="490" cy="317.644" r="1" />
                <circle cx="522" cy="317.644" r="1" />
                <circle cx="554" cy="317.644" r="1" />
                <circle cx="586" cy="317.644" r="1" />
                <circle cx="618" cy="317.644" r="1" />
                <circle cx="650" cy="317.644" r="1" />
                <circle cx="682" cy="317.644" r="1" />
                <circle cx="714" cy="317.644" r="1" />
                <circle cx="746" cy="317.644" r="1" />
                <circle cx="778" cy="317.644" r="1" />
                <circle cx="10" cy="349.644" r="1" />
                <circle cx="42" cy="349.644" r="1" />
                <circle cx="74" cy="349.644" r="1" />
                <circle cx="106" cy="349.644" r="1" />
                <circle cx="138" cy="349.644" r="1" />
                <circle cx="170" cy="349.644" r="1" />
                <circle cx="202" cy="349.644" r="1" />
                <circle cx="234" cy="349.644" r="1" />
                <circle cx="266" cy="349.644" r="1" />
                <circle cx="298" cy="349.644" r="1" />
                <circle cx="330" cy="349.644" r="1" />
                <circle cx="362" cy="349.644" r="1" />
                <circle cx="394" cy="349.644" r="1" />
                <circle cx="426" cy="349.644" r="1" />
                <circle cx="458" cy="349.644" r="1" />
                <circle cx="490" cy="349.644" r="1" />
                <circle cx="522" cy="349.644" r="1" />
                <circle cx="554" cy="349.644" r="1" />
                <circle cx="586" cy="349.644" r="1" />
                <circle cx="618" cy="349.644" r="1" />
                <circle cx="650" cy="349.644" r="1" />
                <circle cx="682" cy="349.644" r="1" />
                <circle cx="714" cy="349.644" r="1" />
                <circle cx="746" cy="349.644" r="1" />
                <circle cx="778" cy="349.644" r="1" />
                <circle cx="10" cy="381.644" r="1" />
                <circle cx="42" cy="381.644" r="1" />
                <circle cx="74" cy="381.644" r="1" />
                <circle cx="106" cy="381.644" r="1" />
                <circle cx="138" cy="381.644" r="1" />
                <circle cx="170" cy="381.644" r="1" />
                <circle cx="202" cy="381.644" r="1" />
                <circle cx="234" cy="381.644" r="1" />
                <circle cx="266" cy="381.644" r="1" />
                <circle cx="298" cy="381.644" r="1" />
                <circle cx="330" cy="381.644" r="1" />
                <circle cx="362" cy="381.644" r="1" />
                <circle cx="394" cy="381.644" r="1" />
                <circle cx="426" cy="381.644" r="1" />
                <circle cx="458" cy="381.644" r="1" />
                <circle cx="490" cy="381.644" r="1" />
                <circle cx="522" cy="381.644" r="1" />
                <circle cx="554" cy="381.644" r="1" />
                <circle cx="586" cy="381.644" r="1" />
                <circle cx="618" cy="381.644" r="1" />
                <circle cx="650" cy="381.644" r="1" />
                <circle cx="682" cy="381.644" r="1" />
                <circle cx="714" cy="381.644" r="1" />
                <circle cx="746" cy="381.644" r="1" />
                <circle cx="778" cy="381.644" r="1" />
                <circle cx="10" cy="413.644" r="1" />
                <circle cx="42" cy="413.644" r="1" />
                <circle cx="74" cy="413.644" r="1" />
                <circle cx="106" cy="413.644" r="1" />
                <circle cx="138" cy="413.644" r="1" />
                <circle cx="170" cy="413.644" r="1" />
                <circle cx="202" cy="413.644" r="1" />
                <circle cx="234" cy="413.644" r="1" />
                <circle cx="266" cy="413.644" r="1" />
                <circle cx="298" cy="413.644" r="1" />
                <circle cx="330" cy="413.644" r="1" />
                <circle cx="362" cy="413.644" r="1" />
                <circle cx="394" cy="413.644" r="1" />
                <circle cx="426" cy="413.644" r="1" />
                <circle cx="458" cy="413.644" r="1" />
                <circle cx="490" cy="413.644" r="1" />
                <circle cx="522" cy="413.644" r="1" />
                <circle cx="554" cy="413.644" r="1" />
                <circle cx="586" cy="413.644" r="1" />
                <circle cx="618" cy="413.644" r="1" />
                <circle cx="650" cy="413.644" r="1" />
                <circle cx="682" cy="413.644" r="1" />
                <circle cx="714" cy="413.644" r="1" />
                <circle cx="746" cy="413.644" r="1" />
                <circle cx="778" cy="413.644" r="1" />
                <circle cx="10" cy="445.644" r="1" />
                <circle cx="42" cy="445.644" r="1" />
                <circle cx="74" cy="445.644" r="1" />
                <circle cx="106" cy="445.644" r="1" />
                <circle cx="138" cy="445.644" r="1" />
                <circle cx="170" cy="445.644" r="1" />
                <circle cx="202" cy="445.644" r="1" />
                <circle cx="234" cy="445.644" r="1" />
                <circle cx="266" cy="445.644" r="1" />
                <circle cx="298" cy="445.644" r="1" />
                <circle cx="330" cy="445.644" r="1" />
                <circle cx="362" cy="445.644" r="1" />
                <circle cx="394" cy="445.644" r="1" />
                <circle cx="426" cy="445.644" r="1" />
                <circle cx="458" cy="445.644" r="1" />
                <circle cx="490" cy="445.644" r="1" />
                <circle cx="522" cy="445.644" r="1" />
                <circle cx="554" cy="445.644" r="1" />
                <circle cx="586" cy="445.644" r="1" />
                <circle cx="618" cy="445.644" r="1" />
                <circle cx="650" cy="445.644" r="1" />
                <circle cx="682" cy="445.644" r="1" />
                <circle cx="714" cy="445.644" r="1" />
                <circle cx="746" cy="445.644" r="1" />
                <circle cx="778" cy="445.644" r="1" />
                <circle cx="10" cy="477.644" r="1" />
                <circle cx="42" cy="477.644" r="1" />
                <circle cx="74" cy="477.644" r="1" />
                <circle cx="106" cy="477.644" r="1" />
                <circle cx="138" cy="477.644" r="1" />
                <circle cx="170" cy="477.644" r="1" />
                <circle cx="202" cy="477.644" r="1" />
                <circle cx="234" cy="477.644" r="1" />
                <circle cx="266" cy="477.644" r="1" />
                <circle cx="298" cy="477.644" r="1" />
                <circle cx="330" cy="477.644" r="1" />
                <circle cx="362" cy="477.644" r="1" />
                <circle cx="394" cy="477.644" r="1" />
                <circle cx="426" cy="477.644" r="1" />
                <circle cx="458" cy="477.644" r="1" />
                <circle cx="490" cy="477.644" r="1" />
                <circle cx="522" cy="477.644" r="1" />
                <circle cx="554" cy="477.644" r="1" />
                <circle cx="586" cy="477.644" r="1" />
                <circle cx="618" cy="477.644" r="1" />
                <circle cx="650" cy="477.644" r="1" />
                <circle cx="682" cy="477.644" r="1" />
                <circle cx="714" cy="477.644" r="1" />
                <circle cx="746" cy="477.644" r="1" />
                <circle cx="778" cy="477.644" r="1" />
                <circle cx="10" cy="509.644" r="1" />
                <circle cx="42" cy="509.644" r="1" />
                <circle cx="74" cy="509.644" r="1" />
                <circle cx="106" cy="509.644" r="1" />
                <circle cx="138" cy="509.644" r="1" />
                <circle cx="170" cy="509.644" r="1" />
                <circle cx="202" cy="509.644" r="1" />
                <circle cx="234" cy="509.644" r="1" />
                <circle cx="266" cy="509.644" r="1" />
                <circle cx="298" cy="509.644" r="1" />
                <circle cx="330" cy="509.644" r="1" />
                <circle cx="362" cy="509.644" r="1" />
                <circle cx="394" cy="509.644" r="1" />
                <circle cx="426" cy="509.644" r="1" />
                <circle cx="458" cy="509.644" r="1" />
                <circle cx="490" cy="509.644" r="1" />
                <circle cx="522" cy="509.644" r="1" />
                <circle cx="554" cy="509.644" r="1" />
                <circle cx="586" cy="509.644" r="1" />
                <circle cx="618" cy="509.644" r="1" />
                <circle cx="650" cy="509.644" r="1" />
                <circle cx="682" cy="509.644" r="1" />
                <circle cx="714" cy="509.644" r="1" />
                <circle cx="746" cy="509.644" r="1" />
                <circle cx="778" cy="509.644" r="1" />
                <circle cx="10" cy="541.644" r="1" />
                <circle cx="42" cy="541.644" r="1" />
                <circle cx="74" cy="541.644" r="1" />
                <circle cx="106" cy="541.644" r="1" />
                <circle cx="138" cy="541.644" r="1" />
                <circle cx="170" cy="541.644" r="1" />
                <circle cx="202" cy="541.644" r="1" />
                <circle cx="234" cy="541.644" r="1" />
                <circle cx="266" cy="541.644" r="1" />
                <circle cx="298" cy="541.644" r="1" />
                <circle cx="330" cy="541.644" r="1" />
                <circle cx="362" cy="541.644" r="1" />
                <circle cx="394" cy="541.644" r="1" />
                <circle cx="426" cy="541.644" r="1" />
                <circle cx="458" cy="541.644" r="1" />
                <circle cx="490" cy="541.644" r="1" />
                <circle cx="522" cy="541.644" r="1" />
                <circle cx="554" cy="541.644" r="1" />
                <circle cx="586" cy="541.644" r="1" />
                <circle cx="618" cy="541.644" r="1" />
                <circle cx="650" cy="541.644" r="1" />
                <circle cx="682" cy="541.644" r="1" />
                <circle cx="714" cy="541.644" r="1" />
                <circle cx="746" cy="541.644" r="1" />
                <circle cx="778" cy="541.644" r="1" />
                <circle cx="10" cy="573.644" r="1" />
                <circle cx="42" cy="573.644" r="1" />
                <circle cx="74" cy="573.644" r="1" />
                <circle cx="106" cy="573.644" r="1" />
                <circle cx="138" cy="573.644" r="1" />
                <circle cx="170" cy="573.644" r="1" />
                <circle cx="202" cy="573.644" r="1" />
                <circle cx="234" cy="573.644" r="1" />
                <circle cx="266" cy="573.644" r="1" />
                <circle cx="298" cy="573.644" r="1" />
                <circle cx="330" cy="573.644" r="1" />
                <circle cx="362" cy="573.644" r="1" />
                <circle cx="394" cy="573.644" r="1" />
                <circle cx="426" cy="573.644" r="1" />
                <circle cx="458" cy="573.644" r="1" />
                <circle cx="490" cy="573.644" r="1" />
                <circle cx="522" cy="573.644" r="1" />
                <circle cx="554" cy="573.644" r="1" />
                <circle cx="586" cy="573.644" r="1" />
                <circle cx="618" cy="573.644" r="1" />
                <circle cx="650" cy="573.644" r="1" />
                <circle cx="682" cy="573.644" r="1" />
                <circle cx="714" cy="573.644" r="1" />
                <circle cx="746" cy="573.644" r="1" />
                <circle cx="778" cy="573.644" r="1" />
                <circle cx="10" cy="605.644" r="1" />
                <circle cx="42" cy="605.644" r="1" />
                <circle cx="74" cy="605.644" r="1" />
                <circle cx="106" cy="605.644" r="1" />
                <circle cx="138" cy="605.644" r="1" />
                <circle cx="170" cy="605.644" r="1" />
                <circle cx="202" cy="605.644" r="1" />
                <circle cx="234" cy="605.644" r="1" />
                <circle cx="266" cy="605.644" r="1" />
                <circle cx="298" cy="605.644" r="1" />
                <circle cx="330" cy="605.644" r="1" />
                <circle cx="362" cy="605.644" r="1" />
                <circle cx="394" cy="605.644" r="1" />
                <circle cx="426" cy="605.644" r="1" />
                <circle cx="458" cy="605.644" r="1" />
                <circle cx="490" cy="605.644" r="1" />
                <circle cx="522" cy="605.644" r="1" />
                <circle cx="554" cy="605.644" r="1" />
                <circle cx="586" cy="605.644" r="1" />
                <circle cx="618" cy="605.644" r="1" />
                <circle cx="650" cy="605.644" r="1" />
                <circle cx="682" cy="605.644" r="1" />
                <circle cx="714" cy="605.644" r="1" />
                <circle cx="746" cy="605.644" r="1" />
                <circle cx="778" cy="605.644" r="1" />
                <circle cx="10" cy="637.644" r="1" />
                <circle cx="42" cy="637.644" r="1" />
                <circle cx="74" cy="637.644" r="1" />
                <circle cx="106" cy="637.644" r="1" />
                <circle cx="138" cy="637.644" r="1" />
                <circle cx="170" cy="637.644" r="1" />
                <circle cx="202" cy="637.644" r="1" />
                <circle cx="234" cy="637.644" r="1" />
                <circle cx="266" cy="637.644" r="1" />
                <circle cx="298" cy="637.644" r="1" />
                <circle cx="330" cy="637.644" r="1" />
                <circle cx="362" cy="637.644" r="1" />
                <circle cx="394" cy="637.644" r="1" />
                <circle cx="426" cy="637.644" r="1" />
                <circle cx="458" cy="637.644" r="1" />
                <circle cx="490" cy="637.644" r="1" />
                <circle cx="522" cy="637.644" r="1" />
                <circle cx="554" cy="637.644" r="1" />
                <circle cx="586" cy="637.644" r="1" />
                <circle cx="618" cy="637.644" r="1" />
                <circle cx="650" cy="637.644" r="1" />
                <circle cx="682" cy="637.644" r="1" />
                <circle cx="714" cy="637.644" r="1" />
                <circle cx="746" cy="637.644" r="1" />
                <circle cx="778" cy="637.644" r="1" />
            </g>
        </g>
    </g>
    <defs>
        <radialGradient id="b" cx="0" cy="0" r="1"
            gradientTransform="matrix(0 -415 404.538 0 406 405)" gradientUnits="userSpaceOnUse">
            <stop stop-color="#fff" />
            <stop offset="1" stop-color="#fff" stop-opacity="0" />
        </radialGradient>
        <clipPath id="a">
            <path fill="#fff" d="M0 0h812v833H0z" />
        </clipPath>
    </defs>
</svg>
