<svg xmlns="http://www.w3.org/2000/svg" id="e7c35f08-2eea-4397-8006-6c58d7c4f544"
    viewBox="0 0 600 150" fill="#fff">
    <path
        d="m162.951 95.149 11-6.379c1.994 4.624 5.422 7.735 11.722 7.735 6.06 0 7.575-2.393 7.575-4.545 0-3.43-3.19-4.785-11.561-7.1-8.3-2.313-16.428-6.3-16.428-16.985 0-10.765 9.09-16.985 18.739-16.985 9.17 0 16.348 4.386 20.414 12.6l-10.765 6.3c-1.914-3.989-4.546-6.461-9.649-6.461-3.986 0-5.98 1.994-5.98 4.226 0 2.553 1.355 4.307 10.047 6.938 8.453 2.552 17.941 5.5 17.941 17.3 0 10.765-8.611 17.144-20.733 17.144-11.72 0-19.217-5.581-22.326-13.8M238.637 67.776l-7.495 24.4-8.852-24.4h-13.156l15.868 38.036-3.824 11.862h12.589l17.628-49.898h-12.758zM295.327 83.348v24.479h-11.961V85.1c0-4.945-3.109-7.257-6.938-7.257-4.384 0-7.415 2.553-7.415 8.214v21.768h-11.96V67.957h11.96v3.749c2.154-2.951 6.14-4.865 11.4-4.865 8.054 0 14.911 5.742 14.911 16.507M332.168 87.893c0-5.98-3.986-9.728-9.489-9.728s-9.489 3.748-9.489 9.728 3.987 9.729 9.489 9.729 9.489-3.749 9.489-9.729m11.96-19.936v39.871h-11.96v-3.748c-2.631 3.03-6.539 4.865-11.881 4.865-10.446 0-19.058-9.17-19.058-21.052s8.612-21.052 19.058-21.052c5.342 0 9.25 1.834 11.881 4.864v-3.748ZM413.84 83.348v24.479h-11.961V84.385c0-3.987-1.913-6.54-5.742-6.54-3.985 0-6.219 2.791-6.219 7.5v22.486h-11.961V84.385c0-3.987-1.915-6.54-5.741-6.54-3.987 0-6.22 2.791-6.22 7.5v22.486h-11.962V67.957H366v3.669c1.833-2.712 5.342-4.785 10.685-4.785 4.705 0 8.213 1.914 10.446 5.263 2.232-3.19 5.9-5.263 11.562-5.263 9.171 0 15.151 6.54 15.151 16.507M449.136 83.747c-1.274-4.626-4.864-6.3-8.451-6.3-4.546 0-7.575 2.233-8.692 6.3ZM441.8 98.259a10.408 10.408 0 0 0 7.655-3.03l9.569 5.5c-3.906 5.422-9.807 8.213-17.382 8.213-13.636 0-22.091-9.17-22.091-21.051s8.613-21.051 21.213-21.051c11.642 0 20.254 9.011 20.254 21.051a23.324 23.324 0 0 1-.478 4.785h-28.309c1.516 4.146 5.183 5.581 9.569 5.581M496.867 87.892c0-5.98-3.988-9.727-9.49-9.727s-9.488 3.747-9.488 9.727 3.987 9.729 9.488 9.729 9.49-3.748 9.49-9.729m11.96-35.883v55.819h-11.96v-3.748c-2.632 3.03-6.54 4.865-11.881 4.865-10.447 0-19.058-9.17-19.058-21.053s8.611-21.051 19.058-21.051c5.341 0 9.249 1.835 11.881 4.864v-19.7ZM518.757 67.957h11.961v39.87h-11.961Zm-1.2-10.685a7.177 7.177 0 1 1 7.177 7.177 7.25 7.25 0 0 1-7.177-7.177M567.312 87.893c0-5.98-3.986-9.728-9.488-9.728s-9.49 3.748-9.49 9.728 3.987 9.729 9.49 9.729 9.488-3.749 9.488-9.729m11.962-19.936v39.871h-11.962v-3.748c-2.63 3.03-6.539 4.865-11.881 4.865-10.447 0-19.059-9.17-19.059-21.052s8.612-21.052 19.059-21.052c5.342 0 9.251 1.834 11.881 4.864v-3.748ZM54.551 119.001v9.139l17.384 9.432v-9.138l-17.384-9.433zM104.195 71.552l-17.542-9.539-8.628 1.338 17.787 9.645 8.383-1.444zM74.015 127.314l.384-.087a27.648 27.648 0 0 0 1.622-.436l.161-.052.048-.016c.484-.152.961-.319 1.431-.5l.333-.126q.768-.3 1.51-.646l.243-.119c.325-.155.633-.309.929-.464l.036-.019c.285-.15.561-.3.828-.453l.118-.071c.605-.352 1.19-.721 1.737-1.1.206-.142.39-.276.573-.409l.171-.124c.2-.146.385-.29.572-.435l.312-.249c.352-.283.7-.572 1.032-.871l.072-.06c.036-.033.074-.064.111-.1.34-.308.68-.633 1.012-.965l.258-.268c.246-.253.49-.512.727-.777l.3-.338q.348-.4.676-.81l.224-.275q.427-.544.827-1.113l.157-.23q.333-.484.649-.987l.23-.374c.2-.327.39-.659.573-.994l.046-.079c.035-.065.073-.129.108-.194.1-.2.2-.385.292-.571l.112-.224c.115-.235.225-.466.332-.7l.121-.272.028-.063c.228-.517.446-1.039.643-1.57.1-.268.189-.54.28-.812.036-.1.072-.208.106-.313s.06-.2.089-.3c.027-.086.052-.173.077-.26l.173-.591c.009-.032.016-.064.024-.1.065-.244.124-.491.182-.737v-.009c.028-.108.055-.217.08-.326.011-.049.019-.1.029-.145.057-.264.109-.529.158-.8.017-.081.034-.163.048-.246s.023-.147.034-.221c.049-.292.095-.584.134-.879 0-.034.011-.068.015-.1q.074-.576.122-1.157l.006-.058q.1-1.225.087-2.476v-27l-17.553-9.531v26.44c0 .431 0 .861-.015 1.288l-.026.43c-.016.332-.029.591-.05.846-.008.107-.021.214-.032.319l-.038.362a10.764 10.764 0 0 1-.116.941l-.058.386c-.024.167-.048.334-.077.5l-.153.778a12.1 12.1 0 0 1-.183.831l-.1.409c-.034.144-.068.287-.107.431-.033.12-.069.241-.106.362l-.111.382c-.044.149-.087.3-.134.446s-.091.271-.138.4l-.113.33c-.048.145-.1.291-.15.434-.2.553-.429 1.095-.667 1.632l-.156.348a27.84 27.84 0 0 1-.764 1.55l-.154.276c-.193.351-.392.7-.6 1.038l-.236.383c-.217.348-.443.69-.675 1.028l-.162.235q-.413.589-.858 1.156l-.225.278c-.231.287-.464.568-.706.845l-.306.346c-.25.278-.5.548-.762.814l-.263.272q-.514.517-1.057 1.008l-.106.092c-.422.374-.78.676-1.145.969l-.322.257c-.422.329-.851.649-1.291.955-.644.44-1.25.824-1.875 1.187l-.123.073c-.574.33-1.182.648-1.859.972l-.25.121a27.75 27.75 0 0 1-1.567.672l-.271.1a28.86 28.86 0 0 1-1.562.543l-.218.072c-.552.169-1.113.317-1.682.451l-.4.091c-.118.027-.238.052-.358.078l17.162 9.336.2-.035q.672-.11 1.336-.256ZM71.313 22.035l-17.731-9.728c-.51.072-.82.131-1.325.227-.146.028-.292.058-.439.088q-.573.117-1.142.255c-.134.032-.268.063-.4.1-.494.126-.985.261-1.473.409-.071.022-.141.047-.212.069q-.632.2-1.254.418c-.144.052-.288.1-.432.158-.375.138-.747.284-1.117.435-.113.046-.226.09-.338.137-.432.183-.861.371-1.286.571l-.1.049c-.17.08-.337.168-.506.251-.32.158-.641.317-.957.484-.192.1-.381.209-.57.314-.29.16-.578.321-.863.489-.2.116-.393.236-.588.355q-.411.252-.817.514c-.2.126-.389.255-.582.385-.125.084-.252.164-.377.25-.084.058-.163.124-.247.183q-.844.593-1.661 1.23l-.167.127c-.589.468-1.163.957-1.727 1.459-.063.055-.13.106-.192.162-.09.08-.173.168-.262.249q-.609.56-1.2 1.143c-.128.127-.259.251-.385.38q-.75.764-1.463 1.565c-.021.024-.045.046-.066.07-.071.081-.137.168-.208.25q-.574.662-1.124 1.348c-.136.169-.269.338-.4.51q-.534.687-1.041 1.4c-.065.092-.136.179-.2.271-.02.028-.038.058-.057.086q-.647.926-1.242 1.888c-.1.158-.193.318-.29.478q-.479.791-.924 1.6c-.058.105-.123.206-.18.312-.042.078-.08.158-.121.236-.1.182-.19.366-.284.55q-.243.474-.474.952-.141.292-.277.586a49.31 49.31 0 0 0-.433.969c-.083.192-.167.383-.247.577-.149.356-.29.716-.429 1.076-.062.163-.128.324-.189.488-.015.041-.033.082-.048.124-.095.258-.179.521-.269.782s-.186.525-.272.791c-.1.3-.187.613-.278.921-.079.263-.162.526-.236.791-.087.314-.163.632-.243.949-.066.263-.137.524-.2.789-.075.322-.138.647-.2.972-.054.262-.114.523-.163.787-.061.333-.11.668-.164 1-.041.259-.089.517-.125.777-.05.354-.086.712-.126 1.068-.027.242-.061.483-.084.725-.038.4-.062.806-.087 1.21-.013.2-.033.4-.042.6q-.045.908-.046 1.821V78.3l18.053 9.821V62.608c.031-19.638 14.399-37.654 32.529-40.573Z"
        class="aede78d7-e1bc-4c99-bfdf-fbe111d70117" />
    <path
        d="M39.779 62.61v25.506l8.415-1.183V61.285c.027-14.112 10.582-27.1 23.619-29.182l.017-9.151C54.14 25.768 39.815 43.424 39.779 62.61ZM96.183 101.933l-.021.344c0 .041-.005.082-.008.123-.013.273-.025.5-.041.712 0 .043-.006.086-.01.129-.008.1-.018.192-.029.288l-.037.363-.047.44c0 .039-.008.08-.013.119v.02c-.015.117-.034.236-.053.354l-.053.348-.03.195c-.019.115-.034.232-.054.347v.006c-.019.115-.044.235-.068.353l-.074.375-.038.188c-.021.1-.038.2-.06.3v.019c-.026.117-.057.236-.086.355l-.091.369-.04.163-.075.3-.007.026c-.031.114-.065.228-.1.342l-.116.391c0 .019-.011.038-.017.057-.037.125-.072.252-.111.376l-.008.027c-.038.12-.081.241-.123.362l-.124.362c-.018.053-.037.1-.054.156-.029.082-.055.164-.085.245l-.008.022c-.007.02-.015.037-.023.056-.195.528-.41 1.047-.636 1.561l-.013.031-.029.066-.057.127q-.38.843-.812 1.66l-.023.045-.156.28-.011.02q-.27.491-.559.969l-.025.044-.1.161c-.3.485-.606.964-.932 1.429l-.005.007c-.2.284-.39.54-.578.789-.078.1-.156.207-.236.31l-.081.106-.219.269q-.334.417-.685.821l-.027.033-.1.113a28.653 28.653 0 0 1-2.217 2.26c-.025.022-.048.047-.073.069l-.127.112c-.062.055-.118.1-.178.154a28.21 28.21 0 0 1-2.482 1.948c-.026.019-.05.039-.077.057-.094.065-.184.121-.278.184-.216.146-.432.291-.653.431l-.079.049c-.3.191-.61.379-.922.559l-.065.039c-.112.064-.232.127-.347.19-.542.3-1.091.59-1.655.856l-.012.006c-.519.244-1.049.468-1.584.68l-.079.034-.194.073c-.578.223-1.164.429-1.759.613l-.092.03c-.046.014-.093.023-.139.037q-.743.222-1.5.4c-.015 0-.029.008-.044.012l-.073.016a26.697 26.697 0 0 1-1.373.287c-.1.018-.19.04-.286.056v9.134a38.086 38.086 0 0 0 22.313-12.834 38.905 38.905 0 0 0 9.4-25.667V72.384l-8.42 1.392v26.869q0 .646-.017 1.288Z"
        class="aede78d7-e1bc-4c99-bfdf-fbe111d70117" />
</svg>
