<svg xmlns="http://www.w3.org/2000/svg" viewBox="0 0 16 16">
    <path fill-rule="evenodd"
        d="M13.01 3.051c-.053.02-.149.069-.213.109-.064.04-1.62 1.574-3.457 3.409L6.001 9.905l-1.367-1.36C3.043 6.962 3.127 7.027 2.667 7.027c-.257 0-.293.006-.434.078a1.177 1.177 0 0 0-.474.482c-.057.115-.066.17-.066.413 0 .47-.116.327 1.932 2.375S5.531 12.307 6 12.307c.484 0 .081.362 4.375-3.932S14.307 4.484 14.307 4c0-.243-.009-.298-.066-.413a1.187 1.187 0 0 0-.473-.482c-.131-.066-.187-.078-.407-.084a1.053 1.053 0 0 0-.351.03" />
</svg>
