<svg xmlns="http://www.w3.org/2000/svg" viewBox="0 0 16 17">
    <path
        d="M14.166 6.077 8.954 9.388l-.002.002a1.794 1.794 0 0 1-1.904 0l-.003-.002-5.212-3.311v6.422c0 .46.373.834.833.835h10.667c.46 0 .833-.374.833-.835V6.077Zm0-1.577a.833.833 0 0 0-.833-.833H2.666a.833.833 0 0 0-.833.833v.391l5.745 3.651a.796.796 0 0 0 .843 0l5.745-3.65V4.5Zm1 8c0 1.012-.82 1.834-1.833 1.834H2.666a1.834 1.834 0 0 1-1.833-1.835v-8c0-1.012.821-1.832 1.833-1.832h10.667c1.013 0 1.833.82 1.833 1.833v8Z"
    />
</svg>
