<svg xmlns="http://www.w3.org/2000/svg" viewBox="0 0 16 17">
    <path fill-rule="evenodd"
        d="M3.147 1.374c-.217.098-.269.19-.365.643-.068.318-.073.389-.074.97 0 .477.011.682.044.859l.045.232-.089.149c-.21.348-.402.885-.483 1.346-.122.7-.055 1.643.162 2.284.088.257.334.733.506.979.161.23.532.622.763.806.529.423 1.264.77 1.919.907.124.026.23.051.236.055a.717.717 0 0 1-.063.17c-.116.259-.227.746-.249 1.091l-.019.307-.133.05c-.391.145-.95.194-1.274.109a1.99 1.99 0 0 1-.619-.301c-.072-.053-.33-.281-.573-.506-.706-.658-1.016-.829-1.505-.835-.176-.002-.217.007-.306.066a.462.462 0 0 0-.225.415c0 .172.05.286.168.386a.602.602 0 0 0 .336.124c.189 0 .351.112.88.602.613.569.899.77 1.328.931.313.118.532.154.936.154.282.001.441-.013.645-.057.149-.031.29-.064.312-.072.036-.014.041.109.049 1.033.008 1.135.007 1.126.159 1.268A.597.597 0 0 0 6 15.68c.17 0 .36-.119.449-.28.04-.072.045-.26.047-1.893l.004-1.814.071-.24a3 3 0 0 1 .395-.838c.166-.243.215-.372.191-.504a.496.496 0 0 0-.182-.319c-.102-.09-.15-.102-.508-.124a4.153 4.153 0 0 1-1.063-.205 3.287 3.287 0 0 1-1.347-.809 2.797 2.797 0 0 1-.856-1.671c-.041-.273-.043-1.005-.004-1.232.069-.4.257-.866.495-1.224.145-.218.154-.307.073-.695-.059-.281-.068-.395-.07-.836-.001-.282.006-.52.016-.53.037-.036.552.245.996.543.304.204.485.308.549.317.053.007.287-.018.52-.055A12.161 12.161 0 0 1 8 3.093c.86 0 1.391.043 2.224.178.233.037.467.062.52.055.064-.009.245-.113.549-.317.479-.322.943-.57.985-.529.013.014.023.238.022.499-.001.389-.013.54-.069.838-.078.423-.072.481.083.724.177.279.213.346.296.553.193.482.253.901.217 1.519-.051.883-.314 1.491-.884 2.041a3.287 3.287 0 0 1-1.347.809 4.07 4.07 0 0 1-1.089.206 2.254 2.254 0 0 0-.352.042c-.113.034-.265.206-.301.341-.044.163-.01.275.166.541.204.307.322.564.411.893l.071.261.002 1.786c.002 1.61.007 1.795.047 1.867.09.164.28.281.455.279.189-.001.419-.169.467-.341.011-.039.02-.893.02-1.898 0-1.793-.001-1.831-.059-2.069a5.154 5.154 0 0 0-.141-.466l-.096-.265c-.01-.032.034-.051.208-.086a4.91 4.91 0 0 0 1.939-.912c.231-.184.602-.576.763-.806.291-.415.538-.983.639-1.471.061-.293.102-.939.082-1.283-.039-.681-.218-1.306-.523-1.828l-.104-.179.044-.257c.056-.325.064-1.256.013-1.551-.061-.351-.117-.598-.154-.67a.557.557 0 0 0-.293-.238c-.317-.104-1.134.202-1.931.723l-.333.219-.227-.032c-1.687-.234-3.022-.234-4.64 0l-.227.032-.333-.218c-.833-.547-1.668-.847-1.973-.709" />
</svg>
