<svg xmlns="http://www.w3.org/2000/svg" width="50" height="49" fill="none">
  <path fill="#EABA6D" fill-rule="evenodd"
    d="M18.15 2.055a5.129 5.129 0 0 0-5.134 5.134 5.129 5.129 0 0 0 5.134 5.134v2.054a7.184 7.184 0 0 1-7.189-7.188A7.184 7.184 0 0 1 18.15 0a7.184 7.184 0 0 1 7.189 7.189h-2.055a5.129 5.129 0 0 0-5.134-5.134ZM22.257 21.24a5.129 5.129 0 0 0-5.134 5.134 5.129 5.129 0 0 0 5.134 5.134 5.129 5.129 0 0 0 5.134-5.134h2.055a7.184 7.184 0 0 1-7.189 7.188 7.184 7.184 0 0 1-7.188-7.188 7.184 7.184 0 0 1 7.188-7.19v2.055Z"
    clip-rule="evenodd" opacity=".1" />
  <path fill="#EABA6D" fill-rule="evenodd"
    d="M19.176 7.189c0-.569-.458-1.027-1.026-1.027V4.107A3.08 3.08 0 0 1 21.23 7.19a3.08 3.08 0 0 1-3.081 3.08 3.08 3.08 0 0 1-3.081-3.08h2.054c0 .568.459 1.026 1.027 1.026.568 0 1.026-.458 1.026-1.026Z"
    clip-rule="evenodd" opacity=".1" />
  <path fill="#EABA6D" fill-rule="evenodd"
    d="M39.03 44.18s0 .04.075.115c.075.076.204.163.397.25.879.382 2.61.671 4.67.671 1.503 0 2.844-.155 3.8-.397.481-.122.846-.26 1.081-.4a.87.87 0 0 0 .228-.18.196.196 0 0 0 .034-.056V42.306c-.09.049-.187.094-.289.137-.524.222-1.251.396-2.1.507-.814.123-1.773.197-2.778.197-1.66 0-3.17-.17-4.203-.473l-.003-.001-.016-.005c-.23-.069-.495-.148-.715-.258a3.702 3.702 0 0 1-.18-.097v1.868Zm-.685-2.753v2.754c0 .241.122.445.276.599.154.154.363.284.604.39l.002.002c1.007.438 2.85.729 4.946.729 1.542 0 2.942-.159 3.968-.418.51-.13.946-.288 1.262-.476.294-.174.597-.443.597-.826v-2.754h-.685v.004a.09.09 0 0 1-.01.02.37.37 0 0 1-.077.09c-.09.082-.243.176-.468.271-.447.189-1.108.352-1.926.46h-.007c-.779.118-1.704.19-2.679.19-1.625 0-3.063-.168-4.01-.445a4.113 4.113 0 0 1-.62-.22 1.707 1.707 0 0 1-.416-.268.329.329 0 0 1-.065-.08.05.05 0 0 1-.007-.022h-.685Z"
    clip-rule="evenodd" />
  <path fill="#EABA6D" fill-rule="evenodd"
    d="M39.03 45.068v1.843c0 .002 0 .007.004.016.004.01.013.027.032.05.039.049.11.111.229.181.237.141.603.28 1.085.4.96.239 2.301.388 3.792.388 1.503 0 2.844-.155 3.8-.397.481-.122.846-.26 1.081-.4a.87.87 0 0 0 .228-.18.196.196 0 0 0 .034-.056V45.065c-.31.169-.717.31-1.185.427-1.028.256-2.428.409-3.958.409-2.089 0-3.939-.265-4.951-.732l-.005-.003-.005-.002a3.79 3.79 0 0 1-.18-.096Zm-.685-.887v2.73c0 .388.302.66.6.836.32.19.758.348 1.27.475 1.028.257 2.428.41 3.957.41 1.543 0 2.943-.16 3.969-.419.51-.13.946-.288 1.262-.476.294-.174.597-.443.597-.826v-2.73h-.685c0 .002 0 .006-.004.016a.202.202 0 0 1-.032.05.866.866 0 0 1-.229.181c-.237.141-.603.28-1.085.4-.96.238-2.302.388-3.793.388-2.063 0-3.786-.266-4.66-.667a1.695 1.695 0 0 1-.41-.266.329.329 0 0 1-.065-.08.05.05 0 0 1-.007-.021h-.685ZM44.22 40.392c-1.626 0-3.064.168-4.011.445l-.005.001c-.416.116-.722.249-.916.378-.2.133-.21.211-.21.211 0 .006.005.044.075.114.075.075.204.163.398.25l.007.002.007.004c.164.082.356.147.614.217l.006.002c.947.277 2.385.445 4.011.445.975 0 1.9-.071 2.68-.19.796-.118 1.447-.282 1.89-.468.222-.094.373-.186.463-.267a.362.362 0 0 0 .077-.088.085.085 0 0 0 .008-.018v-.007a.087.087 0 0 0-.008-.019.365.365 0 0 0-.077-.089 1.73 1.73 0 0 0-.46-.269c-.433-.187-1.063-.355-1.823-.485h-.04l-.02-.003a22.211 22.211 0 0 0-2.666-.166Zm-4.201-.213c1.034-.302 2.542-.472 4.201-.472.999 0 1.924.072 2.727.169h.057l.028.005c.798.135 1.499.316 2.009.537.254.11.48.238.647.389.167.15.311.358.311.62 0 .261-.145.47-.313.62-.169.151-.397.278-.654.387-.518.218-1.232.392-2.055.515a18.94 18.94 0 0 1-2.78.197c-1.66 0-3.168-.17-4.202-.472a3.991 3.991 0 0 1-.73-.261 1.996 1.996 0 0 1-.596-.388c-.155-.154-.276-.357-.276-.599 0-.347.254-.606.515-.78.277-.184.658-.341 1.11-.467ZM10.671 41.08c-.52.219-1.24.393-2.087.516-.816.124-1.775.197-2.78.197-1.661 0-3.17-.17-4.205-.473h-.002a4.594 4.594 0 0 1-.731-.263 3.781 3.781 0 0 1-.181-.097v1.867s0 .04.075.115c.075.075.203.163.397.249.879.383 2.61.672 4.67.672 1.502 0 2.844-.156 3.8-.398.481-.121.845-.26 1.081-.4a.87.87 0 0 0 .228-.18.19.19 0 0 0 .033-.055v-1.891c-.092.05-.193.098-.298.142Zm.984-1.007-.685-.016c0 .002 0 .011-.012.031a.398.398 0 0 1-.082.094 1.743 1.743 0 0 1-.47.267c-.445.187-1.102.35-1.922.47h-.002c-.779.118-1.704.19-2.679.19-1.625 0-3.063-.169-4.01-.446a4.115 4.115 0 0 1-.62-.22 1.705 1.705 0 0 1-.416-.268.326.326 0 0 1-.065-.08.051.051 0 0 1-.007-.021H0v2.754c0 .241.121.444.275.598.155.155.364.284.605.391l.002.001c1.006.439 2.85.73 4.945.73 1.543 0 2.943-.16 3.968-.419.51-.129.946-.287 1.263-.475.293-.175.597-.443.597-.826v-.024h-.403.403v-2.73Z"
    clip-rule="evenodd" />
  <path fill="#EABA6D" fill-rule="evenodd"
    d="M9.785 44.12c-1.027.257-2.426.416-3.955.428h-.003c-2.089 0-3.939-.265-4.952-.733l-.004-.002-.005-.002a3.781 3.781 0 0 1-.181-.096v1.843c0 .002 0 .007.004.016.004.01.013.027.031.05.04.048.111.111.23.181.237.141.603.28 1.085.4.96.239 2.301.388 3.792.388 1.502 0 2.844-.155 3.8-.397.481-.122.845-.26 1.081-.4a.87.87 0 0 0 .228-.18.191.191 0 0 0 .033-.056V43.698c-.31.166-.716.306-1.184.423Zm1.185-1.292c-.001-.001-.015.087-.263.232-.238.139-.605.276-1.088.396-.96.24-2.302.395-3.793.407-2.062 0-3.785-.266-4.659-.667a1.693 1.693 0 0 1-.41-.266.328.328 0 0 1-.065-.08.051.051 0 0 1-.007-.022H0v2.73c0 .388.302.659.6.836.32.19.758.348 1.27.475 1.028.257 2.428.41 3.957.41 1.543 0 2.943-.16 3.968-.42.51-.128.946-.287 1.263-.475.293-.174.597-.443.597-.826v-2.73h-.685ZM5.875 39.039c-1.626 0-3.064.168-4.011.445l-.005.001c-.416.116-.723.249-.916.378-.2.133-.21.211-.21.211 0 .006.005.044.075.114.075.075.204.163.398.25l.007.002.007.004c.163.081.356.147.613.217l.007.002c.947.277 2.385.445 4.01.445.976 0 1.9-.071 2.68-.19.797-.118 1.448-.282 1.89-.468.223-.094.374-.186.464-.267a.364.364 0 0 0 .077-.088.08.08 0 0 0 .007-.018l.001-.003v-.005a.095.095 0 0 0-.01-.02.38.38 0 0 0-.077-.092 1.721 1.721 0 0 0-.46-.274c-.432-.19-1.06-.357-1.819-.475h-.042l-.021-.003a22.192 22.192 0 0 0-2.665-.166Zm-4.201-.213c1.033-.302 2.542-.472 4.201-.472.999 0 1.924.072 2.727.169h.054l.026.004c.8.123 1.503.304 2.015.53.255.111.48.242.648.395.166.153.309.361.309.621 0 .262-.145.47-.313.62-.17.152-.397.28-.654.388-.518.218-1.232.392-2.055.515-.815.124-1.775.197-2.781.197-1.659 0-3.167-.17-4.2-.472a3.992 3.992 0 0 1-.73-.261 1.996 1.996 0 0 1-.598-.388c-.154-.154-.275-.357-.275-.599 0-.347.254-.606.515-.78.277-.184.658-.341 1.11-.467ZM30.523 37.489c-.722.109-1.557.18-2.438.194v2.07c1.363-.022 2.575-.172 3.457-.395.481-.122.846-.26 1.081-.4a.87.87 0 0 0 .228-.18.196.196 0 0 0 .034-.056v-1.884a3.36 3.36 0 0 1-.286.136c-.521.218-1.241.392-2.076.515Zm2.362-1.523v.004a.09.09 0 0 1-.008.017.357.357 0 0 1-.077.088c-.09.081-.242.173-.466.267-.446.186-1.103.35-1.911.47h-.001c-.78.117-1.705.189-2.68.189H27.4v3.44h.343c1.542 0 2.942-.16 3.968-.419.51-.13.946-.288 1.262-.476.294-.174.597-.443.597-.825v-.024h-.484.484v-2.73h-.685Z"
    clip-rule="evenodd" />
  <path fill="#EABA6D" fill-rule="evenodd"
    d="M28.085 40.413v2.046c1.363-.022 2.575-.171 3.457-.395.481-.121.846-.26 1.081-.4a.87.87 0 0 0 .228-.18.196.196 0 0 0 .034-.056V39.58c-.31.169-.717.31-1.185.427-.95.237-2.22.386-3.615.406Zm4.8-1.717a.04.04 0 0 1-.004.016.202.202 0 0 1-.032.05.868.868 0 0 1-.229.181c-.237.141-.603.28-1.085.4-.96.239-2.302.388-3.793.388H27.4v3.415h.343c1.542 0 2.942-.159 3.968-.418.51-.129.946-.288 1.262-.476.294-.174.597-.442.597-.825v-2.73h-.685ZM27.424 34.246h.343c.998 0 1.923.073 2.727.17h.053l.026.003c.812.123 1.521.305 2.036.53.257.111.483.242.651.395.166.153.31.361.31.622 0 .262-.145.47-.313.62-.17.152-.397.279-.655.387-.517.218-1.231.393-2.054.516-.815.123-1.775.197-2.781.197h-.343v-3.44Zm.685.688v2.064c.849-.015 1.65-.082 2.337-.187.797-.118 1.448-.282 1.89-.469.223-.094.374-.186.464-.266a.362.362 0 0 0 .077-.089.088.088 0 0 0 .007-.017l.001-.004v-.005a.093.093 0 0 0-.01-.019.379.379 0 0 0-.077-.092 1.725 1.725 0 0 0-.463-.274c-.434-.19-1.07-.357-1.84-.476h-.043l-.02-.002a22.474 22.474 0 0 0-2.323-.164Z"
    clip-rule="evenodd" />
  <path fill="#EABA6D" fill-rule="evenodd"
    d="M27.112 35.599c-.523.22-1.248.401-2.094.536h-.003c-.815.124-1.775.198-2.781.198-1.66 0-3.17-.17-4.204-.473h-.002l-.016-.006c-.23-.069-.496-.148-.716-.258a3.702 3.702 0 0 1-.18-.097v1.868s-.001.04.074.115c.075.075.204.162.397.248.88.383 2.61.672 4.67.672 1.503 0 2.845-.155 3.8-.397.482-.122.846-.26 1.082-.4a.873.873 0 0 0 .228-.18.196.196 0 0 0 .033-.056V35.462c-.09.048-.187.094-.288.137Zm.288-1.01v.003a.08.08 0 0 1-.008.018.363.363 0 0 1-.077.089c-.09.08-.244.173-.47.269-.45.19-1.113.36-1.934.49-.778.118-1.703.19-2.677.19-1.626 0-3.063-.168-4.01-.445a4.115 4.115 0 0 1-.621-.22 1.704 1.704 0 0 1-.416-.268.328.328 0 0 1-.064-.08.054.054 0 0 1-.008-.022h-.684v2.754c0 .242.12.445.275.599.154.154.364.284.604.39l.003.002c1.006.439 2.85.73 4.945.73 1.542 0 2.943-.16 3.968-.42.51-.128.946-.287 1.263-.475.293-.174.596-.443.596-.826V34.59H27.4Z"
    clip-rule="evenodd" />
  <path fill="#EABA6D" fill-rule="evenodd"
    d="M17.115 38.205v1.844c0 .002 0 .007.004.016.004.01.013.027.032.05.04.048.11.11.23.181.236.141.602.28 1.085.4.959.239 2.3.388 3.792.388 1.49 0 2.827-.15 3.784-.386.48-.118.847-.255 1.086-.394a.906.906 0 0 0 .235-.18.212.212 0 0 0 .037-.059v-1.849c-.31.167-.716.31-1.184.426-1.028.256-2.429.409-3.96.397-2.088 0-3.938-.266-4.95-.733l-.005-.002-.005-.002a3.79 3.79 0 0 1-.18-.097Zm-.684-.886v2.73c0 .387.301.659.6.836.319.19.758.348 1.269.475 1.028.256 2.428.409 3.958.409 1.53 0 2.923-.153 3.948-.406.51-.126.947-.28 1.266-.466.296-.172.6-.434.613-.813v-2.741H27.4c0-.001 0-.001 0 0-.003.01-.028.097-.263.236-.238.14-.605.278-1.087.398-.959.24-2.3.389-3.79.377h-.002c-2.063 0-3.786-.266-4.66-.667a1.692 1.692 0 0 1-.41-.266.33.33 0 0 1-.065-.08.054.054 0 0 1-.008-.022h-.684Z"
    clip-rule="evenodd" />
  <path fill="#EABA6D" fill-rule="evenodd"
    d="M26.207 41.366c-1.024.256-2.418.415-3.947.427h-.002c-1.53 0-2.931-.159-3.959-.418-.468-.118-.874-.26-1.184-.428v1.833c0 .001 0 .006.004.015.004.01.013.027.032.05.04.049.11.111.23.182.236.14.602.279 1.085.399.959.24 2.3.389 3.792.389 1.49 0 2.827-.15 3.784-.386.48-.119.847-.255 1.086-.394a.906.906 0 0 0 .235-.18.21.21 0 0 0 .037-.06v-1.857c-.311.168-.721.31-1.193.428Zm-9.777-1.292v2.706c0 .387.302.658.6.835.32.19.759.348 1.27.476 1.028.256 2.428.408 3.958.408 1.53 0 2.923-.152 3.948-.405.51-.126.947-.281 1.266-.466.296-.172.6-.435.613-.813V40.074l-.685-.011v.002a.212.212 0 0 1-.037.06.912.912 0 0 1-.235.18c-.24.14-.606.276-1.087.397-.957.239-2.294.394-3.785.406-1.489 0-2.83-.155-3.79-.397-.482-.122-.849-.26-1.087-.401-.235-.14-.26-.227-.263-.236 0-.001 0-.001 0 0h-.686ZM22.306 33.554c-1.626 0-3.064.168-4.012.445l-.004.002c-.417.115-.723.248-.917.378-.199.132-.21.21-.21.21 0 .006.006.045.075.114.075.075.204.163.398.25l.008.003.007.003c.163.082.355.147.613.218l.006.001c.948.278 2.386.446 4.012.446.974 0 1.9-.072 2.678-.19h.001c.796-.119 1.447-.282 1.89-.47.223-.093.374-.185.464-.265a.36.36 0 0 0 .076-.089.088.088 0 0 0 .008-.017v-.008a.09.09 0 0 0-.008-.018.37.37 0 0 0-.077-.09 1.735 1.735 0 0 0-.46-.269c-.433-.187-1.063-.355-1.823-.485h-.04l-.02-.002a22.212 22.212 0 0 0-2.665-.167Zm-4.202-.213c1.034-.302 2.543-.472 4.202-.472.998 0 1.923.073 2.726.17h.057l.028.004c.798.135 1.499.316 2.01.537.253.11.479.238.646.39.167.15.312.357.312.619s-.145.47-.314.62c-.169.151-.396.279-.654.387-.518.218-1.232.393-2.054.515-.816.124-1.775.198-2.781.198-1.66 0-3.168-.17-4.201-.472a3.991 3.991 0 0 1-.73-.262 1.996 1.996 0 0 1-.597-.388c-.154-.154-.276-.357-.276-.598 0-.348.254-.606.515-.78.277-.185.659-.342 1.111-.468Z"
    clip-rule="evenodd" />
  <path fill="#EABA6D" fill-rule="evenodd"
    d="M22.258 10.954c.189 0 .342.153.342.342v23.292a.342.342 0 1 1-.685 0V11.296c0-.19.154-.342.343-.342Z"
    clip-rule="evenodd" />
  <path fill="#EABA6D" fill-rule="evenodd"
    d="M17.807 7.189c0-.19.154-.343.343-.343 2.46 0 4.45 1.99 4.45 4.45a.342.342 0 1 1-.685 0 3.762 3.762 0 0 0-3.765-3.765.343.343 0 0 1-.343-.342ZM36.297 12.716l-.34-.042-.069-.336a.343.343 0 0 1 .41.378Zm-.75.402a32.815 32.815 0 0 0-1.768.478c-1.31.395-2.97.983-4.398 1.764-1.447.79-2.577 1.736-2.947 2.807-.35 1.014-.056 2.281 1.705 3.843m7.409-8.892-.022.138c-.063.397-.16.958-.295 1.615-.27 1.317-.694 3.005-1.303 4.519-.617 1.53-1.397 2.808-2.34 3.39-.458.282-.953.4-1.503.304-.56-.097-1.206-.418-1.946-1.074m7.819-9.337-.07-.335h-.003l-.01.003-.033.007a16.458 16.458 0 0 0-.609.141c-.409.1-.984.251-1.65.452-1.331.4-3.042 1.004-4.53 1.818-1.472.804-2.807 1.855-3.266 3.185-.479 1.387.034 2.926 1.897 4.578.8.71 1.56 1.112 2.284 1.237.732.127 1.395-.036 1.98-.397 1.143-.705 1.99-2.166 2.615-3.716.631-1.568 1.064-3.302 1.34-4.637a36.908 36.908 0 0 0 .389-2.248l.004-.033.001-.009v-.003l-.34-.042Z"
    clip-rule="evenodd" />
  <path fill="#EABA6D" fill-rule="evenodd"
    d="M35.684 12.468a.343.343 0 0 1 .548.41l-.274-.204-.274-.206Zm0 0 .274.206.274.205-.007.008-.018.024a26.004 26.004 0 0 1-.342.448 103.975 103.975 0 0 1-4.445 5.368c-1.374 1.547-2.923 3.183-4.476 4.607-1.55 1.419-3.12 2.642-4.534 3.346a.342.342 0 0 1-.305-.613c1.328-.661 2.842-1.833 4.376-3.239 1.53-1.401 3.062-3.019 4.427-4.556A103.358 103.358 0 0 0 35.66 12.5l.018-.023.004-.006.002-.002Z"
    clip-rule="evenodd" />
  <path fill="#EABA6D" fill-rule="evenodd"
    d="M27.825 15.773a.343.343 0 0 1 .418.245l1.144 4.369 4.191.16a.342.342 0 1 1-.026.684l-4.445-.17a.343.343 0 0 1-.319-.255l-1.208-4.615a.342.342 0 0 1 .245-.418ZM31.328 13.708a.342.342 0 0 1 .357.328l.155 3.78h2.91a.342.342 0 1 1 0 .684h-3.238a.343.343 0 0 1-.343-.328L31 14.065a.342.342 0 0 1 .328-.357Z"
    clip-rule="evenodd" />
  <path fill="#EABA6D" fill-rule="evenodd"
    d="M22.258 25.355a1.018 1.018 0 1 0 0 2.037 1.018 1.018 0 0 0 0-2.037Zm-4.443 1.018a4.443 4.443 0 1 1 8.885 0 4.443 4.443 0 0 1-8.885 0Z"
    clip-rule="evenodd" opacity=".4" />
</svg>
