<svg xmlns="http://www.w3.org/2000/svg" width="50" height="51" fill="none">
  <path fill="#EABA6D" fill-rule="evenodd"
    d="M26.362 23.958a1.027 1.027 0 1 0 0 2.053 1.027 1.027 0 0 0 0-2.053Zm-3.082 1.026a3.082 3.082 0 1 1 6.163 0 3.082 3.082 0 0 1-6.163 0ZM37.309 34.905a1.027 1.027 0 1 0 0 2.053 1.027 1.027 0 0 0 0-2.053Zm-3.082 1.026a3.081 3.081 0 1 1 6.163 0 3.081 3.081 0 0 1-6.163 0Z"
    clip-rule="evenodd" opacity=".1" />
  <path fill="#EABA6D" fill-rule="evenodd"
    d="M12.418 32.959a.342.342 0 0 1 .484 0l9.594 9.593a.342.342 0 1 1-.484.485l-9.594-9.594a.343.343 0 0 1 0-.484ZM48.28 3.408a1.035 1.035 0 1 0 0 2.07 1.035 1.035 0 0 0 0-2.07Zm-1.72 1.035a1.72 1.72 0 1 1 3.44 0 1.72 1.72 0 0 1-3.44 0ZM37.309 22.596a2.388 2.388 0 1 0 0 4.777 2.388 2.388 0 0 0 0-4.777Zm-3.074 2.388a3.073 3.073 0 1 1 6.147 0 3.073 3.073 0 0 1-6.147 0ZM9.905 28.082a2.388 2.388 0 1 0 0 4.776 2.388 2.388 0 0 0 0-4.776ZM6.832 30.47a3.073 3.073 0 1 1 6.146 0 3.073 3.073 0 0 1-6.146 0Z"
    clip-rule="evenodd" />
  <path fill="#EABA6D" fill-rule="evenodd"
    d="M37.309 27.372c.189 0 .342.154.342.343v8.216c0 .09-.036.178-.1.242l-6.839 6.863a.343.343 0 0 1-.485-.483l6.74-6.763v-8.075c0-.19.153-.343.342-.343ZM8.94 13.828a.343.343 0 0 1 .473-.103l17.134 10.97a.343.343 0 0 1 .157.29V40.74a.343.343 0 0 1-.685 0V25.172L9.044 14.302a.342.342 0 0 1-.104-.474ZM4.443 16.425c.19 0 .343.154.343.343v8.074l2.63 2.63a.343.343 0 0 1-.484.485l-2.73-2.73a.343.343 0 0 1-.101-.243v-8.216c0-.19.153-.343.342-.343Z"
    clip-rule="evenodd" />
  <path fill="#EABA6D" fill-rule="evenodd"
    d="M32.765 7.438c.135.133.136.35.002.485L12.903 27.956a.343.343 0 0 1-.486-.482L32.28 7.44a.343.343 0 0 1 .484-.002ZM36.966 4.443c0-.189.154-.342.343-.342h8.216a.343.343 0 0 1 0 .685H37.31a.343.343 0 0 1-.343-.343ZM48.28 23.95a1.035 1.035 0 1 0 0 2.07 1.035 1.035 0 0 0 0-2.07Zm-1.72 1.034a1.72 1.72 0 1 1 3.44 0 1.72 1.72 0 0 1-3.44 0ZM39.721 24.984c0-.189.154-.342.343-.342h5.461a.343.343 0 0 1 0 .685h-5.461a.343.343 0 0 1-.343-.343ZM40.064 45.868a1.035 1.035 0 1 0 0 2.07 1.035 1.035 0 0 0 0-2.07Zm-1.72 1.035a1.72 1.72 0 1 1 3.44 0 1.72 1.72 0 0 1-3.44 0ZM31.505 46.903c0-.19.153-.343.343-.343h5.461a.342.342 0 1 1 0 .685h-5.461a.343.343 0 0 1-.343-.342ZM9.905 45.868a1.035 1.035 0 1 0 0 2.07 1.035 1.035 0 0 0 0-2.07Zm-1.72 1.035a1.72 1.72 0 1 1 3.44 0 1.72 1.72 0 0 1-3.44 0ZM12.317 46.903c0-.19.154-.343.343-.343h8.216a.343.343 0 0 1 0 .685H12.66a.343.343 0 0 1-.343-.342ZM23.607 3.408a1.035 1.035 0 1 0 0 2.07 1.035 1.035 0 0 0 0-2.07Zm-1.72 1.035a1.72 1.72 0 1 1 3.44 0 1.72 1.72 0 0 1-3.44 0ZM26.02 4.443c0-.189.152-.342.342-.342h5.485a.342.342 0 1 1 0 .685h-5.485a.342.342 0 0 1-.343-.343ZM26.02 24.984c0-.189.152-.342.342-.342h8.216a.343.343 0 1 1 0 .685h-8.216a.343.343 0 0 1-.343-.343ZM37.309 9.562c.189 0 .342.153.342.343v12.348a.343.343 0 0 1-.685 0V9.905c0-.19.154-.343.343-.343ZM9.905 32.858c.189 0 .342.154.342.343v10.97a.343.343 0 0 1-.685 0v-10.97c0-.19.154-.343.343-.343Z"
    clip-rule="evenodd" />
  <path fill="#EABA6D" fill-rule="evenodd"
    d="M4.443 10.264a1.018 1.018 0 1 0 0 2.036 1.018 1.018 0 0 0 0-2.036ZM0 11.282a4.443 4.443 0 1 1 8.887 0 4.443 4.443 0 0 1-8.887 0ZM37.31 3.425a1.018 1.018 0 1 0 0 2.036 1.018 1.018 0 0 0 0-2.036Zm-4.444 1.018a4.443 4.443 0 1 1 8.886 0 4.443 4.443 0 0 1-8.886 0ZM26.434 45.643a.97.97 0 1 0 0 1.94.97.97 0 0 0 0-1.94Zm-4.395.97a4.395 4.395 0 1 1 8.79 0 4.395 4.395 0 0 1-8.79 0Z"
    clip-rule="evenodd" opacity=".4" />
</svg>
