<svg xmlns="http://www.w3.org/2000/svg" width="50" height="50" fill="none">
  <path fill="#EABA6D" fill-rule="evenodd"
    d="M24.988 21.726a3.26 3.26 0 1 0 0 6.522 3.26 3.26 0 0 0 0-6.522Zm-5.436 3.261a5.436 5.436 0 1 1 10.872 0 5.436 5.436 0 0 1-10.872 0Z"
    clip-rule="evenodd" opacity=".1" />
  <path fill="#EABA6D" fill-rule="evenodd"
    d="M7.594 5.066a2.528 2.528 0 1 0 0 5.055 2.528 2.528 0 0 0 0-5.055ZM4.34 7.594a3.253 3.253 0 1 1 6.506 0 3.253 3.253 0 0 1-6.506 0ZM42.407 39.878a2.528 2.528 0 1 0 0 5.056 2.528 2.528 0 0 0 0-5.056Zm-3.253 2.528a3.253 3.253 0 1 1 6.506 0 3.253 3.253 0 0 1-6.506 0ZM24.987 18.11a6.876 6.876 0 1 0 0 13.754 6.876 6.876 0 0 0 0-13.753Zm-7.601 6.877a7.601 7.601 0 1 1 15.203 0 7.601 7.601 0 0 1-15.203 0Z"
    clip-rule="evenodd" />
  <path fill="#EABA6D" fill-rule="evenodd"
    d="M29.898 29.897a.363.363 0 0 1 .513 0l7.904 7.904a.363.363 0 0 1-.513.513l-7.904-7.904a.362.362 0 0 1 0-.513ZM11.686 11.685a.362.362 0 0 1 .513.001l7.878 7.904a.363.363 0 0 1-.513.512l-7.879-7.904a.362.362 0 0 1 .001-.513ZM7.594 39.878a2.528 2.528 0 1 0 0 5.056 2.528 2.528 0 0 0 0-5.056ZM4.34 42.406a3.253 3.253 0 1 1 6.506 0 3.253 3.253 0 0 1-6.506 0ZM42.407 5.066a2.528 2.528 0 1 0 0 5.055 2.528 2.528 0 0 0 0-5.055Zm-3.253 2.528a3.253 3.253 0 1 1 6.506 0 3.253 3.253 0 0 1-6.506 0ZM38.315 11.686a.363.363 0 0 1 0 .512l-7.904 7.904a.362.362 0 1 1-.513-.512l7.904-7.904a.362.362 0 0 1 .513 0ZM20.076 29.897a.363.363 0 0 1 .001.513L12.2 38.314a.362.362 0 1 1-.514-.512l7.879-7.904a.363.363 0 0 1 .512-.001Z"
    clip-rule="evenodd" />
  <path fill="#EABA6D" fill-rule="evenodd"
    d="M24.987 3.625a1.078 1.078 0 1 0 0 2.156 1.078 1.078 0 0 0 0-2.156Zm-4.703 1.078a4.703 4.703 0 1 1 9.406 0 4.703 4.703 0 0 1-9.406 0ZM24.987 44.219a1.078 1.078 0 1 0 0 2.155 1.078 1.078 0 0 0 0-2.155Zm-4.703 1.078a4.703 4.703 0 1 1 9.407 0 4.703 4.703 0 0 1-9.407 0ZM45.297 23.91a1.078 1.078 0 1 0 0 2.155 1.078 1.078 0 0 0 0-2.155Zm-4.703 1.077a4.703 4.703 0 1 1 9.406 0 4.703 4.703 0 0 1-9.406 0ZM4.703 23.91a1.078 1.078 0 1 0 0 2.155 1.078 1.078 0 0 0 0-2.155ZM0 24.986a4.703 4.703 0 1 1 9.406 0 4.703 4.703 0 0 1-9.406 0Z"
    clip-rule="evenodd" opacity=".4" />
</svg>
