<svg xmlns="http://www.w3.org/2000/svg" width="50" height="50" fill="none">
  <path fill="#EABA6D"
    d="M25.065 44.749c10.871 0 19.684-8.842 19.684-19.749 0-10.907-8.813-19.749-19.684-19.749-10.87 0-19.683 8.842-19.683 19.749 0 10.907 8.812 19.749 19.683 19.749Z"
    opacity=".1" />
  <path fill="#EABA6D" fill-rule="evenodd"
    d="M19.102 29.602a.309.309 0 0 1-.436 0l-4.357-4.357a.309.309 0 0 1 0-.437l4.357-4.357c.12-.12.316-.12.436 0l4.357 4.358c.12.12.12.316 0 .436l-4.357 4.357Zm-.218-.654 3.92-3.921-3.92-3.92-3.92 3.92 3.92 3.92ZM25.215 23.477a.309.309 0 0 1-.436 0l-4.357-4.358a.309.309 0 0 1 0-.436l4.357-4.357c.12-.12.316-.12.436 0l4.358 4.357c.12.12.12.316 0 .436l-4.358 4.358Zm-.218-.655 3.92-3.92-3.92-3.921-3.92 3.92 3.92 3.921ZM31.326 29.606a.309.309 0 0 1-.437 0l-4.357-4.357a.309.309 0 0 1 0-.437l4.357-4.357c.12-.12.316-.12.437 0l4.357 4.357c.12.12.12.316 0 .437l-4.357 4.357Zm-.219-.655 3.921-3.92-3.92-3.921-3.921 3.92 3.92 3.921ZM25.212 35.7a.309.309 0 0 1-.436 0l-4.357-4.357a.309.309 0 0 1 0-.436l4.357-4.357c.12-.12.316-.12.436 0l4.357 4.357c.12.12.12.316 0 .436L25.212 35.7Zm-.218-.654 3.92-3.92-3.92-3.922-3.92 3.921 3.92 3.92Z"
    clip-rule="evenodd" />
  <path fill="#EABA6D" fill-rule="evenodd"
    d="M25 23.444c-.855 0-1.535.685-1.535 1.512 0 .828.68 1.513 1.535 1.513.855 0 1.535-.685 1.535-1.513 0-.827-.68-1.512-1.535-1.512Zm-3.386 1.512c0-1.865 1.524-3.364 3.386-3.364s3.386 1.499 3.386 3.364c0 1.866-1.524 3.365-3.386 3.365s-3.386-1.499-3.386-3.365Z"
    clip-rule="evenodd" opacity=".1" />
  <path fill="#EABA6D" fill-rule="evenodd"
    d="M25.065 6.707c-10.06 0-18.205 8.132-18.205 18.14H3.773c0-11.72 9.536-21.226 21.292-21.226v3.086ZM25.065 42.988c10.061 0 18.206-8.132 18.206-18.14h3.086c0 11.721-9.535 21.226-21.292 21.226v-3.086Z"
    clip-rule="evenodd" opacity=".4" />
  <path fill="#EABA6D" fill-rule="evenodd"
    d="M.309 24.691c.17 0 .308.139.308.309C.617 38.46 11.54 49.383 25 49.383A.309.309 0 0 1 25 50C11.2 50 0 38.8 0 25c0-.17.138-.309.309-.309ZM24.692.309c0-.17.138-.309.308-.309 13.8 0 25 11.2 25 25a.309.309 0 0 1-.617 0C49.383 11.54 38.46.617 25 .617a.309.309 0 0 1-.308-.308Z"
    clip-rule="evenodd" />
</svg>
