<svg xmlns="http://www.w3.org/2000/svg" width="812" height="409" fill="none">
    <g opacity=".9">
        <mask id="b" width="812" height="409" x="0" y="0" maskUnits="userSpaceOnUse"
            style="mask-type:alpha">
            <path fill="url(#a)" d="M0 0h812v409H0z" />
        </mask>
        <g fill="#4F48CD" mask="url(#b)">
            <circle cx="10" cy="1.644" r="1" />
            <circle cx="42" cy="1.644" r="1" />
            <circle cx="74" cy="1.644" r="1" />
            <circle cx="106" cy="1.644" r="1" />
            <circle cx="138" cy="1.644" r="1" />
            <circle cx="170" cy="1.644" r="1" />
            <circle cx="202" cy="1.644" r="1" />
            <circle cx="234" cy="1.644" r="1" />
            <circle cx="266" cy="1.644" r="1" />
            <circle cx="298" cy="1.644" r="1" />
            <circle cx="330" cy="1.644" r="1" />
            <circle cx="362" cy="1.644" r="1" />
            <circle cx="394" cy="1.644" r="1" />
            <circle cx="426" cy="1.644" r="1" />
            <circle cx="458" cy="1.644" r="1" />
            <circle cx="490" cy="1.644" r="1" />
            <circle cx="522" cy="1.644" r="1" />
            <circle cx="554" cy="1.644" r="1" />
            <circle cx="586" cy="1.644" r="1" />
            <circle cx="618" cy="1.644" r="1" />
            <circle cx="650" cy="1.644" r="1" />
            <circle cx="682" cy="1.644" r="1" />
            <circle cx="714" cy="1.644" r="1" />
            <circle cx="746" cy="1.644" r="1" />
            <circle cx="778" cy="1.644" r="1" />
            <circle cx="10" cy="33.644" r="1" />
            <circle cx="42" cy="33.644" r="1" />
            <circle cx="74" cy="33.644" r="1" />
            <circle cx="106" cy="33.644" r="1" />
            <circle cx="138" cy="33.644" r="1" />
            <circle cx="170" cy="33.644" r="1" />
            <circle cx="202" cy="33.644" r="1" />
            <circle cx="234" cy="33.644" r="1" />
            <circle cx="266" cy="33.644" r="1" />
            <circle cx="298" cy="33.644" r="1" />
            <circle cx="330" cy="33.644" r="1" />
            <circle cx="362" cy="33.644" r="1" />
            <circle cx="394" cy="33.644" r="1" />
            <circle cx="426" cy="33.644" r="1" />
            <circle cx="458" cy="33.644" r="1" />
            <circle cx="490" cy="33.644" r="1" />
            <circle cx="522" cy="33.644" r="1" />
            <circle cx="554" cy="33.644" r="1" />
            <circle cx="586" cy="33.644" r="1" />
            <circle cx="618" cy="33.644" r="1" />
            <circle cx="650" cy="33.644" r="1" />
            <circle cx="682" cy="33.644" r="1" />
            <circle cx="714" cy="33.644" r="1" />
            <circle cx="746" cy="33.644" r="1" />
            <circle cx="778" cy="33.644" r="1" />
            <circle cx="10" cy="65.644" r="1" />
            <circle cx="42" cy="65.644" r="1" />
            <circle cx="74" cy="65.644" r="1" />
            <circle cx="106" cy="65.644" r="1" />
            <circle cx="138" cy="65.644" r="1" />
            <circle cx="170" cy="65.644" r="1" />
            <circle cx="202" cy="65.644" r="1" />
            <circle cx="234" cy="65.644" r="1" />
            <circle cx="266" cy="65.644" r="1" />
            <circle cx="298" cy="65.644" r="1" />
            <circle cx="330" cy="65.644" r="1" />
            <circle cx="362" cy="65.644" r="1" />
            <circle cx="394" cy="65.644" r="1" />
            <circle cx="426" cy="65.644" r="1" />
            <circle cx="458" cy="65.644" r="1" />
            <circle cx="490" cy="65.644" r="1" />
            <circle cx="522" cy="65.644" r="1" />
            <circle cx="554" cy="65.644" r="1" />
            <circle cx="586" cy="65.644" r="1" />
            <circle cx="618" cy="65.644" r="1" />
            <circle cx="650" cy="65.644" r="1" />
            <circle cx="682" cy="65.644" r="1" />
            <circle cx="714" cy="65.644" r="1" />
            <circle cx="746" cy="65.644" r="1" />
            <circle cx="778" cy="65.644" r="1" />
            <circle cx="10" cy="97.644" r="1" />
            <circle cx="42" cy="97.644" r="1" />
            <circle cx="74" cy="97.644" r="1" />
            <circle cx="106" cy="97.644" r="1" />
            <circle cx="138" cy="97.644" r="1" />
            <circle cx="170" cy="97.644" r="1" />
            <circle cx="202" cy="97.644" r="1" />
            <circle cx="234" cy="97.644" r="1" />
            <circle cx="266" cy="97.644" r="1" />
            <circle cx="298" cy="97.644" r="1" />
            <circle cx="330" cy="97.644" r="1" />
            <circle cx="362" cy="97.644" r="1" />
            <circle cx="394" cy="97.644" r="1" />
            <circle cx="426" cy="97.644" r="1" />
            <circle cx="458" cy="97.644" r="1" />
            <circle cx="490" cy="97.644" r="1" />
            <circle cx="522" cy="97.644" r="1" />
            <circle cx="554" cy="97.644" r="1" />
            <circle cx="586" cy="97.644" r="1" />
            <circle cx="618" cy="97.644" r="1" />
            <circle cx="650" cy="97.644" r="1" />
            <circle cx="682" cy="97.644" r="1" />
            <circle cx="714" cy="97.644" r="1" />
            <circle cx="746" cy="97.644" r="1" />
            <circle cx="778" cy="97.644" r="1" />
            <circle cx="10" cy="129.644" r="1" />
            <circle cx="42" cy="129.644" r="1" />
            <circle cx="74" cy="129.644" r="1" />
            <circle cx="106" cy="129.644" r="1" />
            <circle cx="138" cy="129.644" r="1" />
            <circle cx="170" cy="129.644" r="1" />
            <circle cx="202" cy="129.644" r="1" />
            <circle cx="234" cy="129.644" r="1" />
            <circle cx="266" cy="129.644" r="1" />
            <circle cx="298" cy="129.644" r="1" />
            <circle cx="330" cy="129.644" r="1" />
            <circle cx="362" cy="129.644" r="1" />
            <circle cx="394" cy="129.644" r="1" />
            <circle cx="426" cy="129.644" r="1" />
            <circle cx="458" cy="129.644" r="1" />
            <circle cx="490" cy="129.644" r="1" />
            <circle cx="522" cy="129.644" r="1" />
            <circle cx="554" cy="129.644" r="1" />
            <circle cx="586" cy="129.644" r="1" />
            <circle cx="618" cy="129.644" r="1" />
            <circle cx="650" cy="129.644" r="1" />
            <circle cx="682" cy="129.644" r="1" />
            <circle cx="714" cy="129.644" r="1" />
            <circle cx="746" cy="129.644" r="1" />
            <circle cx="778" cy="129.644" r="1" />
            <circle cx="10" cy="161.644" r="1" />
            <circle cx="42" cy="161.644" r="1" />
            <circle cx="74" cy="161.644" r="1" />
            <circle cx="106" cy="161.644" r="1" />
            <circle cx="138" cy="161.644" r="1" />
            <circle cx="170" cy="161.644" r="1" />
            <circle cx="202" cy="161.644" r="1" />
            <circle cx="234" cy="161.644" r="1" />
            <circle cx="266" cy="161.644" r="1" />
            <circle cx="298" cy="161.644" r="1" />
            <circle cx="330" cy="161.644" r="1" />
            <circle cx="362" cy="161.644" r="1" />
            <circle cx="394" cy="161.644" r="1" />
            <circle cx="426" cy="161.644" r="1" />
            <circle cx="458" cy="161.644" r="1" />
            <circle cx="490" cy="161.644" r="1" />
            <circle cx="522" cy="161.644" r="1" />
            <circle cx="554" cy="161.644" r="1" />
            <circle cx="586" cy="161.644" r="1" />
            <circle cx="618" cy="161.644" r="1" />
            <circle cx="650" cy="161.644" r="1" />
            <circle cx="682" cy="161.644" r="1" />
            <circle cx="714" cy="161.644" r="1" />
            <circle cx="746" cy="161.644" r="1" />
            <circle cx="778" cy="161.644" r="1" />
            <circle cx="10" cy="193.644" r="1" />
            <circle cx="42" cy="193.644" r="1" />
            <circle cx="74" cy="193.644" r="1" />
            <circle cx="106" cy="193.644" r="1" />
            <circle cx="138" cy="193.644" r="1" />
            <circle cx="170" cy="193.644" r="1" />
            <circle cx="202" cy="193.644" r="1" />
            <circle cx="234" cy="193.644" r="1" />
            <circle cx="266" cy="193.644" r="1" />
            <circle cx="298" cy="193.644" r="1" />
            <circle cx="330" cy="193.644" r="1" />
            <circle cx="362" cy="193.644" r="1" />
            <circle cx="394" cy="193.644" r="1" />
            <circle cx="426" cy="193.644" r="1" />
            <circle cx="458" cy="193.644" r="1" />
            <circle cx="490" cy="193.644" r="1" />
            <circle cx="522" cy="193.644" r="1" />
            <circle cx="554" cy="193.644" r="1" />
            <circle cx="586" cy="193.644" r="1" />
            <circle cx="618" cy="193.644" r="1" />
            <circle cx="650" cy="193.644" r="1" />
            <circle cx="682" cy="193.644" r="1" />
            <circle cx="714" cy="193.644" r="1" />
            <circle cx="746" cy="193.644" r="1" />
            <circle cx="778" cy="193.644" r="1" />
            <circle cx="10" cy="225.644" r="1" />
            <circle cx="42" cy="225.644" r="1" />
            <circle cx="74" cy="225.644" r="1" />
            <circle cx="106" cy="225.644" r="1" />
            <circle cx="138" cy="225.644" r="1" />
            <circle cx="170" cy="225.644" r="1" />
            <circle cx="202" cy="225.644" r="1" />
            <circle cx="234" cy="225.644" r="1" />
            <circle cx="266" cy="225.644" r="1" />
            <circle cx="298" cy="225.644" r="1" />
            <circle cx="330" cy="225.644" r="1" />
            <circle cx="362" cy="225.644" r="1" />
            <circle cx="394" cy="225.644" r="1" />
            <circle cx="426" cy="225.644" r="1" />
            <circle cx="458" cy="225.644" r="1" />
            <circle cx="490" cy="225.644" r="1" />
            <circle cx="522" cy="225.644" r="1" />
            <circle cx="554" cy="225.644" r="1" />
            <circle cx="586" cy="225.644" r="1" />
            <circle cx="618" cy="225.644" r="1" />
            <circle cx="650" cy="225.644" r="1" />
            <circle cx="682" cy="225.644" r="1" />
            <circle cx="714" cy="225.644" r="1" />
            <circle cx="746" cy="225.644" r="1" />
            <circle cx="778" cy="225.644" r="1" />
            <circle cx="10" cy="257.644" r="1" />
            <circle cx="42" cy="257.644" r="1" />
            <circle cx="74" cy="257.644" r="1" />
            <circle cx="106" cy="257.644" r="1" />
            <circle cx="138" cy="257.644" r="1" />
            <circle cx="170" cy="257.644" r="1" />
            <circle cx="202" cy="257.644" r="1" />
            <circle cx="234" cy="257.644" r="1" />
            <circle cx="266" cy="257.644" r="1" />
            <circle cx="298" cy="257.644" r="1" />
            <circle cx="330" cy="257.644" r="1" />
            <circle cx="362" cy="257.644" r="1" />
            <circle cx="394" cy="257.644" r="1" />
            <circle cx="426" cy="257.644" r="1" />
            <circle cx="458" cy="257.644" r="1" />
            <circle cx="490" cy="257.644" r="1" />
            <circle cx="522" cy="257.644" r="1" />
            <circle cx="554" cy="257.644" r="1" />
            <circle cx="586" cy="257.644" r="1" />
            <circle cx="618" cy="257.644" r="1" />
            <circle cx="650" cy="257.644" r="1" />
            <circle cx="682" cy="257.644" r="1" />
            <circle cx="714" cy="257.644" r="1" />
            <circle cx="746" cy="257.644" r="1" />
            <circle cx="778" cy="257.644" r="1" />
            <circle cx="10" cy="289.644" r="1" />
            <circle cx="42" cy="289.644" r="1" />
            <circle cx="74" cy="289.644" r="1" />
            <circle cx="106" cy="289.644" r="1" />
            <circle cx="138" cy="289.644" r="1" />
            <circle cx="170" cy="289.644" r="1" />
            <circle cx="202" cy="289.644" r="1" />
            <circle cx="234" cy="289.644" r="1" />
            <circle cx="266" cy="289.644" r="1" />
            <circle cx="298" cy="289.644" r="1" />
            <circle cx="330" cy="289.644" r="1" />
            <circle cx="362" cy="289.644" r="1" />
            <circle cx="394" cy="289.644" r="1" />
            <circle cx="426" cy="289.644" r="1" />
            <circle cx="458" cy="289.644" r="1" />
            <circle cx="490" cy="289.644" r="1" />
            <circle cx="522" cy="289.644" r="1" />
            <circle cx="554" cy="289.644" r="1" />
            <circle cx="586" cy="289.644" r="1" />
            <circle cx="618" cy="289.644" r="1" />
            <circle cx="650" cy="289.644" r="1" />
            <circle cx="682" cy="289.644" r="1" />
            <circle cx="714" cy="289.644" r="1" />
            <circle cx="746" cy="289.644" r="1" />
            <circle cx="778" cy="289.644" r="1" />
            <circle cx="10" cy="321.644" r="1" />
            <circle cx="42" cy="321.644" r="1" />
            <circle cx="74" cy="321.644" r="1" />
            <circle cx="106" cy="321.644" r="1" />
            <circle cx="138" cy="321.644" r="1" />
            <circle cx="170" cy="321.644" r="1" />
            <circle cx="202" cy="321.644" r="1" />
            <circle cx="234" cy="321.644" r="1" />
            <circle cx="266" cy="321.644" r="1" />
            <circle cx="298" cy="321.644" r="1" />
            <circle cx="330" cy="321.644" r="1" />
            <circle cx="362" cy="321.644" r="1" />
            <circle cx="394" cy="321.644" r="1" />
            <circle cx="426" cy="321.644" r="1" />
            <circle cx="458" cy="321.644" r="1" />
            <circle cx="490" cy="321.644" r="1" />
            <circle cx="522" cy="321.644" r="1" />
            <circle cx="554" cy="321.644" r="1" />
            <circle cx="586" cy="321.644" r="1" />
            <circle cx="618" cy="321.644" r="1" />
            <circle cx="650" cy="321.644" r="1" />
            <circle cx="682" cy="321.644" r="1" />
            <circle cx="714" cy="321.644" r="1" />
            <circle cx="746" cy="321.644" r="1" />
            <circle cx="778" cy="321.644" r="1" />
            <circle cx="10" cy="353.644" r="1" />
            <circle cx="42" cy="353.644" r="1" />
            <circle cx="74" cy="353.644" r="1" />
            <circle cx="106" cy="353.644" r="1" />
            <circle cx="138" cy="353.644" r="1" />
            <circle cx="170" cy="353.644" r="1" />
            <circle cx="202" cy="353.644" r="1" />
            <circle cx="234" cy="353.644" r="1" />
            <circle cx="266" cy="353.644" r="1" />
            <circle cx="298" cy="353.644" r="1" />
            <circle cx="330" cy="353.644" r="1" />
            <circle cx="362" cy="353.644" r="1" />
            <circle cx="394" cy="353.644" r="1" />
            <circle cx="426" cy="353.644" r="1" />
            <circle cx="458" cy="353.644" r="1" />
            <circle cx="490" cy="353.644" r="1" />
            <circle cx="522" cy="353.644" r="1" />
            <circle cx="554" cy="353.644" r="1" />
            <circle cx="586" cy="353.644" r="1" />
            <circle cx="618" cy="353.644" r="1" />
            <circle cx="650" cy="353.644" r="1" />
            <circle cx="682" cy="353.644" r="1" />
            <circle cx="714" cy="353.644" r="1" />
            <circle cx="746" cy="353.644" r="1" />
            <circle cx="778" cy="353.644" r="1" />
            <circle cx="10" cy="385.644" r="1" />
            <circle cx="42" cy="385.644" r="1" />
            <circle cx="74" cy="385.644" r="1" />
            <circle cx="106" cy="385.644" r="1" />
            <circle cx="138" cy="385.644" r="1" />
            <circle cx="170" cy="385.644" r="1" />
            <circle cx="202" cy="385.644" r="1" />
            <circle cx="234" cy="385.644" r="1" />
            <circle cx="266" cy="385.644" r="1" />
            <circle cx="298" cy="385.644" r="1" />
            <circle cx="330" cy="385.644" r="1" />
            <circle cx="362" cy="385.644" r="1" />
            <circle cx="394" cy="385.644" r="1" />
            <circle cx="426" cy="385.644" r="1" />
            <circle cx="458" cy="385.644" r="1" />
            <circle cx="490" cy="385.644" r="1" />
            <circle cx="522" cy="385.644" r="1" />
            <circle cx="554" cy="385.644" r="1" />
            <circle cx="586" cy="385.644" r="1" />
            <circle cx="618" cy="385.644" r="1" />
            <circle cx="650" cy="385.644" r="1" />
            <circle cx="682" cy="385.644" r="1" />
            <circle cx="714" cy="385.644" r="1" />
            <circle cx="746" cy="385.644" r="1" />
            <circle cx="778" cy="385.644" r="1" />
        </g>
    </g>
    <defs>
        <radialGradient id="a" cx="0" cy="0" r="1"
            gradientTransform="matrix(0 245.459 -487.318 0 406 132.304)"
            gradientUnits="userSpaceOnUse">
            <stop stop-color="#fff" />
            <stop offset="1" stop-color="#fff" stop-opacity="0" />
        </radialGradient>
    </defs>
</svg>
