<svg xmlns="http://www.w3.org/2000/svg" width="706" height="468" fill="none">
    <g opacity=".7">
        <mask id="b" width="706" height="468" x="0" y="0" maskUnits="userSpaceOnUse"
            style="mask-type:alpha">
            <path fill="url(#a)" d="M0 0h706v468H0V0Z" />
        </mask>
        <g fill="#fff" mask="url(#b)">
            <path
                d="M1255 123v1H210v-1h1045ZM1371 443v1H94v-1h1277ZM1371 379v1H94v-1h1277ZM1371 699v1H94v-1h1277ZM1255 59v1H210v-1h1045ZM1255 315v1H210v-1h1045ZM1371 635v1H94v-1h1277ZM1371-5v1H94v-1h1277ZM1255 251v1H210v-1h1045ZM1371 571v1H94v-1h1277ZM1255 187v1H210v-1h1045ZM1371 507v1H94v-1h1277ZM1453-101v1H13v-1h1440ZM1453-269v1H13v-1h1440ZM1453-349v1H13v-1h1440Z" />
            <path
                d="M94-269h1v931h-1v-931ZM674 187h1v257h-1V187ZM1022 187h1v257h-1V187ZM442 187h1v257h-1V187ZM1370-269h1v931h-1v-931ZM326 61h1v511h-1V61ZM1254-101h1v763h-1v-763ZM210-101h1v763h-1v-763ZM790 187h1v257h-1V187ZM1138 61h1v511h-1V61Z" />
            <path
                d="m110.918-51.483.422.906-195.479 91.154-.422-.907 195.479-91.153ZM110.918 179.906l.422.906-195.479 91.154-.422-.907 195.479-91.153ZM110.918 64.211l.422.907-195.479 91.153-.422-.906 195.479-91.154ZM110.918 295.6l.422.907-195.479 91.153-.422-.906L110.918 295.6ZM110.918-34.955l.422.906-195.479 91.154-.422-.907 195.479-91.153ZM110.918 196.434l.422.906-195.479 91.153-.422-.906 195.479-91.153ZM110.918 80.74l.422.906-195.479 91.153-.422-.906 195.479-91.154ZM110.918 312.128l.422.906-195.479 91.154-.422-.907 195.479-91.153ZM110.918-18.427l.422.906-195.479 91.153-.422-.906 195.479-91.153ZM110.918 212.961l.422.907-195.479 91.153-.422-.906 195.479-91.154ZM110.918 97.267l.422.906-195.479 91.154-.422-.907 195.479-91.153ZM110.918 328.656l.422.906-195.479 91.154-.422-.907 195.479-91.153ZM110.918-1.9l.422.907L-84.139 90.16l-.422-.906L110.918-1.9ZM110.918 229.489l.422.906-195.479 91.154-.422-.906 195.479-91.154ZM110.918 113.795l.422.906-195.479 91.154-.422-.907 195.479-91.153ZM110.918 345.184l.422.906-195.479 91.153-.422-.906 195.479-91.153ZM110.918 14.628l.422.906-195.479 91.154-.422-.906 195.479-91.154ZM110.918 246.017l.422.906-195.479 91.154-.422-.907 195.479-91.153ZM110.918 130.322l.422.907-195.479 91.153-.422-.906 195.479-91.154ZM110.918 361.711l.422.907-195.479 91.153-.422-.906 195.479-91.154ZM110.918 31.156l.422.906-195.479 91.154-.422-.907 195.479-91.153ZM110.918 262.545l.422.906-195.479 91.153-.422-.906 195.479-91.153ZM110.918 146.85l.422.907-195.479 91.153-.422-.906 195.479-91.154ZM110.918 378.239l.422.906-195.479 91.154-.422-.906 195.479-91.154ZM110.918 47.684l.422.906-195.479 91.153-.422-.906 195.479-91.153ZM110.918 279.072l.422.907-195.479 91.153-.422-.906 195.479-91.154ZM110.918 163.378l.422.906-195.479 91.154-.422-.907 195.479-91.153ZM110.918 394.767l.422.906-195.479 91.154-.422-.907 195.479-91.153Z" />
        </g>
    </g>
    <defs>
        <radialGradient id="a" cx="0" cy="0" r="1"
            gradientTransform="matrix(0 311.183 -469.435 0 353 156.817)"
            gradientUnits="userSpaceOnUse">
            <stop stop-color="#fff" />
            <stop offset="1" stop-color="#fff" stop-opacity="0" />
        </radialGradient>
    </defs>
</svg>
