<svg xmlns="http://www.w3.org/2000/svg" width="555" height="501" fill="none">
    <mask id="b" width="555" height="501" x="0" y="0" maskUnits="userSpaceOnUse"
        style="mask-type:alpha">
        <path fill="url(#a)" d="M0 0h555v501H0z" transform="matrix(-1 0 0 1 555 0)" />
    </mask>
    <g mask="url(#b)" opacity=".15">
        <path stroke="#16121E"
            d="M-724 226.5H321M-840 482.5H437M-724 162.5H321M-724 418.5H321M-840 98.5H437M-724 354.5H321M-724 290.5H321M-921 2.5H519M88.5 547V290M436.5 765v-931M320.5 765V2M204.5 675V164" />
        <g clip-path="url(#c)">
            <mask id="d" fill="#fff">
                <path d="M436 98h119v385H436V98Z" />
            </mask>
            <path stroke="#16121E"
                d="M375.65 143.124 571.129 51.97M375.65 374.512l195.479-91.153M375.65 258.818l195.479-91.153M375.65 490.207l195.479-91.154M375.65 159.651l195.479-91.153M375.65 391.04l195.479-91.153M375.65 275.346l195.479-91.154M375.65 506.735l195.479-91.154M375.65 176.179l195.479-91.153M375.65 407.568l195.479-91.154M375.65 291.874l195.479-91.154M375.65 523.262l195.479-91.153M375.65 192.707l195.479-91.153M375.65 424.096l195.479-91.154M375.65 308.401l195.479-91.153M375.65 539.79l195.479-91.153M375.65 209.235l195.479-91.154M375.65 440.624l195.479-91.154M375.65 324.929l195.479-91.153M375.65 556.318l195.479-91.154M375.65 225.762l195.479-91.153M375.65 457.151l195.479-91.153M375.65 341.457l195.479-91.154M375.65 572.846l195.479-91.154M375.65 242.29l195.479-91.153M375.65 473.679l195.479-91.153M375.65 357.985l195.479-91.154" />
        </g>
        <path fill="#16121E" d="M436 98v1h119v-2H436v1Zm119 385v-1H436v2h119v-1Z" mask="url(#d)" />
    </g>
    <defs>
        <radialGradient id="a" cx="0" cy="0" r="1"
            gradientTransform="matrix(0 333.126 -369.031 0 277.5 167.874)"
            gradientUnits="userSpaceOnUse">
            <stop stop-color="#fff" />
            <stop offset="1" stop-color="#fff" stop-opacity="0" />
        </radialGradient>
        <clipPath id="c">
            <path fill="#fff" d="M436 98h119v385H436V98Z" />
        </clipPath>
    </defs>
</svg>
