<svg xmlns="http://www.w3.org/2000/svg" width="99" height="40" fill="none">
    <path fill="#F93"
        d="M98.98 20.71c0 1.156-.935 2.089-2.095 2.089a2.088 2.088 0 1 1 0-4.18c1.16 0 2.094.933 2.094 2.09ZM30.735 32.426l.262 2.798h4.412L33.914 19.03h-6.582l-8.339 16.157h4.488l1.383-2.798h5.87v.037Zm-.187-3.172h-4.039l3.478-7.015h.038l.523 7.015ZM41.542 28.097h.673l3.141-4.254h4.113l-4.375 5.448 2.693 5.896h-4.375l-1.72-4.59h-.674l-.972 4.59h-3.74l3.478-16.194h3.703l-1.945 9.104ZM55.266 35.187h3.74l1.495-7.09c.823-3.918-.673-4.403-4.487-4.403-2.655 0-5.236-.037-5.983 3.508h3.739c.224-1.008.86-1.232 1.758-1.232 1.607 0 1.533.672 1.308 1.717l-.374 1.79h-.187c-.15-1.305-1.757-1.268-2.842-1.268-2.692 0-4.3.858-4.86 3.582-.6 2.873.747 3.508 3.365 3.508 1.308 0 3.029-.261 3.664-1.828h.112l-.448 1.716Zm-1.047-4.664c1.196 0 2.019.074 1.795 1.044-.262 1.194-.786 1.381-2.319 1.381-.56 0-1.608 0-1.346-1.231.224-1.045.972-1.194 1.87-1.194ZM66.484 23.843l-.337 1.605h.15c.748-1.343 2.206-1.717 3.478-1.717 1.608 0 3.178.262 2.954 2.24h.187c.56-1.605 2.206-2.24 3.627-2.24 2.618 0 3.74 1.082 3.178 3.732l-1.645 7.724h-3.702l1.384-6.567c.187-1.195.411-2.053-1.047-2.053-1.459 0-1.945.97-2.207 2.164l-1.346 6.456h-3.74l1.46-6.866c.186-1.045.261-1.754-1.048-1.754-1.533 0-1.982.821-2.28 2.164l-1.347 6.456h-3.74l2.431-11.344h3.59ZM86.64 35.187h3.739l1.495-7.09c.823-3.918-.673-4.403-4.487-4.403-2.655 0-5.235-.037-5.983 3.508h3.74c.224-1.008.86-1.232 1.757-1.232 1.645 0 1.533.672 1.346 1.717l-.374 1.79h-.187c-.15-1.305-1.757-1.268-2.842-1.268-2.692 0-4.3.858-4.86 3.582-.6 2.873.747 3.508 3.365 3.508 1.308 0 3.029-.261 3.664-1.828h.112l-.486 1.716Zm-1.048-4.664c1.197 0 2.02.074 1.795 1.044-.262 1.194-.785 1.381-2.318 1.381-.561 0-1.608 0-1.346-1.231.224-1.045.972-1.194 1.87-1.194ZM95.726 35.187h-3.702l2.393-11.343h3.74l-2.43 11.343Z" />
    <path fill="#009CDE"
        d="M20.9 39.105c.935.298.898.895-.15.895C9.608 40 .52 31.045.52 20S9.57 0 20.75 0c1.048 0 1.272.56.412.82C12.786 3.21 6.653 10.896 6.653 20c0 8.992 5.983 16.605 14.247 19.105Zm-10.433-14.44a23.053 23.053 0 0 1-.074-1.643c0-8.768 7.142-15.895 15.93-15.895 8.301 0 10.806 3.694 11.106 3.47.336-.261-3.03-7.612-12.79-7.612-8.787 0-15.93 7.127-15.93 15.896 0 2.014.375 3.955 1.085 5.746.3.746.748.783.673.037Zm6.694-11.456c4.15-1.791 9.348-1.866 14.434-.075 3.44 1.194 5.422 2.91 5.572 2.836.262-.112-1.982-3.694-6.095-5.261-4.974-1.866-10.284-.896-14.173 2.164-.411.336-.262.56.262.336Z" />
</svg>
