<svg xmlns="http://www.w3.org/2000/svg" width="99" height="40" fill="none">
  <path fill="#00a4eb"
    d="M20.287 39.122c-8.23-2.517-14.223-10.114-14.223-19.116 0-9.096 6.11-16.763 14.492-19.198.854-.246.632-.808-.398-.808C9.025.012 0 8.967 0 20.006S9.025 40 20.158 40c1.018.011 1.065-.586.129-.878" />
  <path fill="#00a4eb"
    d="M9.88 24.7a15 15 0 0 1-.082-1.627c0-8.768 7.106-15.874 15.874-15.874 8.287 0 10.78 3.7 11.085 3.454.34-.27-3.008-7.598-12.748-7.598-8.768 0-15.873 7.106-15.873 15.874 0 2.025.374 3.956 1.077 5.736.292.749.749.749.667.035" />
  <path fill="#00a4eb"
    d="M16.529 13.251c4.132-1.802 9.306-1.85 14.41-.07 3.418 1.194 5.408 2.903 5.572 2.833.27-.117-1.99-3.7-6.075-5.244a14.52 14.52 0 0 0-14.141 2.154c-.434.327-.27.55.234.327M98.144 20.72a2.09 2.09 0 0 1-2.084 2.084 2.09 2.09 0 0 1-2.083-2.084c0-1.147.936-2.084 2.083-2.084s2.084.937 2.084 2.084" />
  <path fill="#fff"
    d="M29.886 29.277h-4.027l3.465-7.012h.035zm.199 3.149.246 2.786h4.401l-1.486-16.19H26.69l-8.3 16.19h4.484l1.393-2.786zM40.878 28.13h.644l3.149-4.25h4.085l-4.354 5.444 2.669 5.888h-4.332l-1.744-4.6h-.644l-.983 4.6h-3.71l3.44-16.19h3.712zM53.508 30.53c1.206 0 2.014.082 1.803 1.03-.257 1.182-.773 1.381-2.318 1.381-.562 0-1.615 0-1.358-1.229.223-1.042.96-1.182 1.873-1.182m1.03 4.682h3.711l1.51-7.082c.82-3.91-.667-4.39-4.471-4.39-2.646 0-5.221-.023-5.97 3.5h3.722c.21-1.018.843-1.229 1.768-1.229 1.615 0 1.545.668 1.31 1.721l-.374 1.791h-.175c-.14-1.3-1.768-1.276-2.822-1.276-2.68 0-4.272.843-4.858 3.57-.608 2.892.761 3.512 3.348 3.512 1.3 0 3.032-.257 3.653-1.814h.129zM65.742 23.88l-.34 1.593h.152c.738-1.335 2.201-1.721 3.477-1.721 1.604 0 3.172.28 2.962 2.224h.175c.539-1.615 2.201-2.224 3.63-2.224 2.61 0 3.722 1.077 3.16 3.723l-1.65 7.749h-3.712l1.393-6.567c.188-1.183.398-2.049-1.053-2.049-1.44 0-1.932.96-2.19 2.178l-1.369 6.438h-3.71l1.463-6.86c.175-1.042.257-1.744-1.03-1.744-1.534 0-1.99.82-2.271 2.177l-1.37 6.439h-3.711l2.412-11.332h3.582zM84.8 30.53c1.205 0 2.001.082 1.802 1.03-.246 1.182-.76 1.381-2.33 1.381-.561 0-1.615 0-1.357-1.229.234-1.042.971-1.182 1.884-1.182m1.03 4.682h3.71l1.51-7.082c.832-3.91-.667-4.39-4.46-4.39-2.657 0-5.232-.023-5.97 3.5h3.711c.21-1.018.843-1.229 1.768-1.229 1.627 0 1.545.668 1.334 1.721l-.386 1.791h-.176c-.14-1.3-1.755-1.276-2.809-1.276-2.68 0-4.284.843-4.858 3.57-.609 2.892.76 3.512 3.348 3.512 1.3 0 3.032-.257 3.652-1.814h.129zM94.89 35.212h-3.711l2.4-11.332h3.71z" />
</svg>
