<svg xmlns="http://www.w3.org/2000/svg" width="145" height="30" fill="none">
  <path fill="#fff"
    d="M117.867 3.556V26.59c0 .937-.384 1.79-1.001 2.407a3.4 3.4 0 0 1-2.407 1.001 3.42 3.42 0 0 1-3.408-3.408V13.437l-5.131 6.542a3.41 3.41 0 0 1-2.772 1.295 3.41 3.41 0 0 1-2.772-1.295l-5.131-6.542V26.59a3.42 3.42 0 0 1-3.408 3.408 3.4 3.4 0 0 1-2.407-1 3.4 3.4 0 0 1-1.001-2.408V3.556a3.4 3.4 0 0 1 .182-1.094l.007-.02q.024-.07.052-.14l.018-.042q.029-.073.063-.144l.041-.083q.055-.111.117-.217l.019-.03q.038-.061.078-.122l.01-.014q.034-.051.07-.1l.034-.046q.092-.122.197-.237l.235-.235.073-.063.1-.082.023-.017q.047-.037.095-.072.06-.044.12-.084a3.42 3.42 0 0 1 4.548.74l.09.117 8.547 10.898 8.546-10.898.091-.117a3.42 3.42 0 0 1 4.548-.74q.06.04.119.084.05.035.096.072l.023.017.1.082.072.063.236.235q.105.115.196.237l.035.046q.036.048.07.1l.01.014q.04.06.078.123l.018.03q.064.105.117.216l.042.083q.035.07.062.144l.019.043q.029.07.051.14l.008.02q.029.084.052.17a4 4 0 0 1 .083.37q.046.274.047.553M30.386 26.501a3.48 3.48 0 0 1-1.899 3.103 3.477 3.477 0 0 1-4.66-1.524l-8.634-17.037L6.56 28.08a3.48 3.48 0 0 1-4.661 1.524A3.48 3.48 0 0 1 0 26.501c0-.525.12-1.058.373-1.557L12.017 1.97A3.48 3.48 0 0 1 15.193.073 3.48 3.48 0 0 1 18.37 1.97l11.644 22.975c.253.5.373 1.032.373 1.557M56.93 3.408c0 .937-.384 1.788-1.002 2.407a3.4 3.4 0 0 1-2.407 1.001h-5.656v19.632a3.42 3.42 0 0 1-3.408 3.408c-.937 0-1.79-.384-2.407-1.001a3.4 3.4 0 0 1-1-2.407V6.816h-5.843a3.42 3.42 0 0 1-3.408-3.408c0-.938.383-1.79 1-2.407A3.4 3.4 0 0 1 35.208 0H53.52a3.417 3.417 0 0 1 3.408 3.408" />
  <path fill="#2ca95b"
    d="M82.103 3.874c-.088.437-.202.865-.433 1.253-.622 1.043-1.533 1.624-2.746 1.734-.28.025-.558.022-.837.022-4.168 0-8.336.005-12.504-.002-1.213-.002-2.2-.485-2.914-1.48a3.33 3.33 0 0 1-.59-1.515q-.013-.075-.031-.15v-.581c.01-.038.022-.076.028-.115C62.29 1.634 63.07.69 64.4.195c.3-.111.617-.147.932-.189h13.519c.044.01.087.023.132.028 1.306.146 2.24.817 2.82 1.99.156.315.222.656.3.994zM62.048 26.12c.072-.417.157-.83.358-1.207.64-1.211 1.643-1.9 3.016-1.906 4.452-.022 8.904-.013 13.356-.005 1.55.003 2.951 1.179 3.261 2.698q.031.141.064.282v.89q-.02.074-.038.148c-.304 1.388-1.131 2.296-2.492 2.708-.19.057-.39.082-.584.121H65.162c-.044-.01-.087-.024-.131-.03a3.435 3.435 0 0 1-2.894-2.65c-.035-.155-.06-.312-.09-.468zM62.048 14.654c.03-.156.053-.314.09-.469a3.436 3.436 0 0 1 3.367-2.681h6.28c1.594 0 2.918.963 3.36 2.492.337 1.17.09 2.241-.7 3.166-.691.808-1.585 1.198-2.654 1.195-2.11-.006-4.22-.002-6.331-.002a3.43 3.43 0 0 1-3.384-3.004c-.004-.039-.019-.077-.028-.115z" />
  <path fill="#00a3e0"
    d="M144.056 4.025c-.088.437-.202.865-.433 1.253-.622 1.043-1.533 1.624-2.746 1.734-.279.025-.558.021-.837.022-4.168 0-8.336.004-12.504-.003-1.213-.002-2.199-.484-2.914-1.48a3.34 3.34 0 0 1-.591-1.514c-.006-.05-.02-.1-.03-.15v-.581c.01-.039.022-.076.028-.115.216-1.406.995-2.35 2.325-2.845.3-.111.617-.147.933-.189h13.518c.044.01.087.023.132.028 1.306.145 2.24.817 2.82 1.99.156.315.222.656.299.994zM124.003 26.27c.072-.416.158-.828.358-1.206.641-1.211 1.643-1.9 3.016-1.906 4.452-.022 8.904-.013 13.356-.005 1.55.003 2.951 1.179 3.261 2.698q.031.141.064.282v.89q-.02.074-.037.148c-.305 1.388-1.132 2.296-2.493 2.708-.19.057-.389.082-.584.121h-13.827c-.043-.01-.087-.024-.131-.03a3.435 3.435 0 0 1-2.894-2.65c-.035-.155-.06-.312-.089-.468zM124.003 14.805c.029-.156.054-.314.089-.469a3.436 3.436 0 0 1 3.368-2.681h6.28c1.594 0 2.918.963 3.359 2.492.338 1.17.091 2.241-.699 3.165-.691.809-1.585 1.198-2.654 1.196-2.11-.006-4.221-.002-6.331-.002a3.43 3.43 0 0 1-3.384-3.004c-.004-.039-.018-.077-.028-.115z" />
</svg>
