<svg xmlns="http://www.w3.org/2000/svg" viewBox="0 0 183 40" fill="#006AED">
  <path
    d="M66.895 24.77c0 .846-.154 1.615-.539 2.307a4.201 4.201 0 0 1-1.46 1.615c-.616.462-1.308.77-2.077 1-.769.231-1.614.308-2.537.308h-9.38V9.54h10.456c.693 0 1.385.153 1.923.461.538.308 1.076.692 1.46 1.23.385.462.693 1.078.923 1.693.231.616.308 1.231.308 1.923 0 1-.23 1.923-.769 2.846a4.385 4.385 0 0 1-2.153 1.924c1.154.307 2.076 1 2.768 1.846.77.846 1.077 1.923 1.077 3.307ZM54.9 13v5.154h4.844c.692 0 1.23-.23 1.691-.692.462-.462.692-1.077.692-1.923 0-.77-.23-1.385-.615-1.847-.461-.461-1-.692-1.614-.692H54.9Zm7.996 11c0-.384-.077-.692-.154-1.077-.153-.307-.307-.615-.538-.846-.23-.23-.461-.462-.769-.615a2.046 2.046 0 0 0-.922-.231H54.9v5.384h5.459c.384 0 .692-.076 1-.23.307-.154.615-.308.845-.539.231-.23.385-.538.538-.846.077-.308.154-.615.154-1ZM69.894 30V9.615h3.998V30h-3.998ZM92.5 13.077h-6.075V30h-3.998V13.077h-6.075V9.615h16.07l.078 3.462ZM111.722 30V16.462l-5.305 10.077h-2.153l-5.306-10.077V30H94.96V9.54h4.229l6.074 11.615 6.075-11.615h4.229V30h-3.845ZM128.177 30.154c-1.461 0-2.769-.308-3.922-.846-1.153-.616-2.23-1.385-3.076-2.308-.845-1-1.537-2.077-1.999-3.308a10.98 10.98 0 0 1-.692-3.846c0-1.385.231-2.692.769-3.923.462-1.23 1.154-2.385 2.076-3.308.846-.923 1.923-1.692 3.076-2.307 1.153-.539 2.46-.847 3.921-.847 1.461 0 2.768.308 3.922.923 1.153.616 2.23 1.385 3.075 2.385.846 1 1.461 2.077 1.923 3.308.461 1.23.692 2.538.692 3.769 0 1.385-.231 2.692-.769 3.923-.539 1.23-1.154 2.308-1.999 3.308-.846.923-1.923 1.692-3.076 2.307-1.23.462-2.537.77-3.921.77Zm-5.69-10.385c0 .846.153 1.77.384 2.539a5.311 5.311 0 0 0 1.153 2.153A5.696 5.696 0 0 0 125.793 26c.692.384 1.538.538 2.384.538a5.07 5.07 0 0 0 2.46-.615 5.681 5.681 0 0 0 1.768-1.538 6.684 6.684 0 0 0 1.077-2.231c.231-.846.384-1.616.384-2.462 0-.846-.153-1.769-.384-2.538A5.311 5.311 0 0 0 132.329 15c-.539-.616-1.077-1.154-1.769-1.539-.692-.384-1.461-.538-2.383-.538a5.07 5.07 0 0 0-2.461.615 5.681 5.681 0 0 0-1.768 1.539 7.069 7.069 0 0 0-1.077 2.154c-.231.923-.384 1.692-.384 2.538ZM157.241 30V9.615h3.999V30h-3.999ZM169.005 16.923V30h-3.998V9.54h3.075L178.77 23V9.616h3.999V30h-3.23l-10.534-13.077ZM151.244 9.615l-4.69 13.154-4.691-13.154h-4.075l7.689 19.539c.385 1.077 1.922 1.077 2.384 0l7.535-19.539h-4.152ZM13.917.154V9.23L27.911 19c.538.385.538 1.23 0 1.615l-13.994 9.77v9.076L40.598 20.77c.692-.461.692-1.461 0-2L13.917.154Z" />
  <path
    d="M6.074 6.769v6.923L13.686 19c.539.384.539 1.23 0 1.615l-7.612 5.308v6.923l17.3-12.077c.693-.461.693-1.461 0-2l-17.3-12Z" />
  <path
    d="M0 12.461v4.385L3.076 19c.538.384.538 1.23 0 1.615L0 22.77v4.385l9.073-6.385a1.15 1.15 0 0 0 0-1.923L0 12.461Z" />
</svg>
