<svg xmlns="http://www.w3.org/2000/svg" viewBox="0 0 73 39" fill="#fff">
  <path
    d="M58.92 24.993a6.427 6.427 0 0 1 6.12 3.957c.331.798.498 1.655.491 2.519a6.61 6.61 0 1 1-6.611-6.476Zm-45.764 0a9.618 9.618 0 0 1 2.88.448V28.8a5.485 5.485 0 0 0-2.653-.668 3.341 3.341 0 1 0 0 6.677 5.542 5.542 0 0 0 2.652-.664v3.358c-.933.288-1.903.438-2.879.445a6.482 6.482 0 0 1-6.662-6.477 6.481 6.481 0 0 1 6.662-6.478Zm32.955 0a9.647 9.647 0 0 1 2.877.448V28.8a5.516 5.516 0 0 0-2.656-.668 3.34 3.34 0 1 0 0 6.677 5.576 5.576 0 0 0 2.656-.664v3.358c-.932.287-1.901.437-2.877.445a6.48 6.48 0 0 1-6.156-9 6.48 6.48 0 0 1 6.156-3.955Zm-13.683-.004c1.037.014 2.07.148 3.077.399v2.67a10.83 10.83 0 0 0-2.468-.381c-1.265 0-1.953.424-1.953 1.025 0 .762.928 1.027 1.447 1.192l.871.277a3.765 3.765 0 0 1 2.983 3.579c0 3.143-2.764 4.198-5.18 4.198a18.827 18.827 0 0 1-3.407-.342v-2.879c.97.282 1.972.438 2.981.465 1.57 0 2.293-.459 2.293-1.168 0-.633-.625-1-1.408-1.246-.191-.063-.479-.153-.674-.218-1.758-.555-3.224-1.589-3.224-3.66 0-2.34 1.752-3.91 4.662-3.91Zm-8.896 12.737h-3.157V25.215h3.157v12.51Zm35.388-9.547a3.294 3.294 0 0 0-3.06 2.014 3.291 3.291 0 1 0 6.325 1.276 3.233 3.233 0 0 0-3.265-3.29ZM18.796 0c.872 0 1.578.707 1.578 1.578v16.585a1.578 1.578 0 0 1-3.156 0V1.578c0-.871.706-1.578 1.578-1.578ZM53.23 0c.872 0 1.578.707 1.579 1.578v16.585a1.578 1.578 0 0 1-3.158 0V1.578c0-.871.708-1.578 1.58-1.578ZM1.578 10.208c.872 0 1.579.707 1.58 1.578v3.256a1.579 1.579 0 0 1-3.158 0v-3.256c0-.871.707-1.578 1.578-1.578Zm8.61-4.312c.871 0 1.577.707 1.578 1.579v7.566a1.579 1.579 0 1 1-3.158 0V7.475c0-.872.708-1.579 1.58-1.579Zm17.216 0c.872 0 1.58.707 1.58 1.579v7.566a1.58 1.58 0 0 1-3.158 0V7.475c0-.872.707-1.578 1.578-1.579Zm8.609 4.312c.871 0 1.579.707 1.579 1.578v3.256a1.579 1.579 0 0 1-3.157 0v-3.256c0-.871.706-1.578 1.578-1.578Zm8.61-4.312c.87 0 1.577.707 1.577 1.579v7.566a1.579 1.579 0 1 1-3.157 0V7.475c0-.872.707-1.579 1.58-1.579Zm17.216 0a1.58 1.58 0 0 1 1.579 1.579v7.566a1.58 1.58 0 0 1-3.157 0V7.475c0-.872.706-1.578 1.578-1.579Zm8.608 4.312a1.58 1.58 0 0 1 1.58 1.578v3.256a1.58 1.58 0 0 1-3.158 0v-3.256c0-.871.707-1.578 1.578-1.578Z" />
</svg>
