<svg xmlns="http://www.w3.org/2000/svg" viewBox="0 0 151 67">
  <path fill="#ea961c"
    d="M62.54 59.32a3.23 3.23 0 0 1-3.22 3.22H7.12a3.22 3.22 0 0 1-3.21-3.22V7.12a3.21 3.21 0 0 1 3.21-3.21h52.2a3.22 3.22 0 0 1 3.22 3.21v8.15h3.9V7.12A7.12 7.12 0 0 0 59.32 0H7.12A7.12 7.12 0 0 0 0 7.12v52.2a7.12 7.12 0 0 0 7.12 7.12h52.2a7.12 7.12 0 0 0 7.12-7.12v-8.15h-3.9z" />
  <path fill="#2b74b7"
    d="M30.07 25.24v-6.1H10.55V47.3h19.68v-6.06H17.48V36H28.9v-5.71H17.48v-5.05zM55.89 19.14H33.78v6.1h11.63L33.2 42.96v4.34h22.65v-6.06h-13.3l13.34-19.4zM70.83 19.14h-8.21V47.3h7.66c9.5 0 14.43-4.11 14.43-14 0-9.55-4.84-14.16-13.88-14.16M71 44.08h-4.75V22.43H71c7 0 9.9 3.83 9.9 10.83S78 44.08 71 44.08M108.81 27.55c0-5.08-3.09-8.41-9.78-8.41h-9.15V47.3h3.62V36.35h4.26c.968.009 1.935-.068 2.89-.23l5.75 11.18h4l-6.23-12.09a7.83 7.83 0 0 0 4.64-7.66M98.64 33.3H93.5v-11h5.39c4.31 0 6.23 1.8 6.23 5.34 0 3.69-2.09 5.65-6.48 5.65zM141.43 19.14h-3.99l-7.98 22.73-7.82-22.73h-4.1l-2.82 28.16h3.48l2.19-21.74 7.62 21.74h2.94l7.63-21.74 2.27 21.74h3.4zM144.25 22a2.9 2.9 0 0 1 1.44-2.49 2.94 2.94 0 0 1 2.89 0 2.882 2.882 0 0 1-.014 4.985A2.88 2.88 0 0 1 144.25 22m.41 0c-.004.431.106.856.32 1.23a2.52 2.52 0 0 0 3.4.91c.374-.224.686-.536.91-.91a2.48 2.48 0 0 0 0-2.47 2.49 2.49 0 0 0-4.3 0 2.35 2.35 0 0 0-.35 1.24zm3.6-.67a1 1 0 0 1-.16.54 1.05 1.05 0 0 1-.46.35l.91 1.5h-.67l-.79-1.33h-.52v1.33H146v-3.4h1c.333-.028.665.06.94.25a.918.918 0 0 1 .32.8zm-1.67.57h.41a.68.68 0 0 0 .49-.16.5.5 0 0 0 .19-.4.44.44 0 0 0-.17-.4.8.8 0 0 0-.52-.13h-.41z" />
</svg>
