<svg xmlns="http://www.w3.org/2000/svg" viewBox="0 0 325 90">
  <path fill="#fff"
    d="M13.134 70.228H0V5.003h45.947v13.054H13.134v13.055h19.679v13.054H13.134zM66.129 8.278a7.7 7.7 0 0 1-.687 3.23 8.2 8.2 0 0 1-1.785 2.638 9.3 9.3 0 0 1-2.7 1.774 8.3 8.3 0 0 1-3.249.636 8.6 8.6 0 0 1-3.295-.636 9.4 9.4 0 0 1-2.654-1.774 9.4 9.4 0 0 1-1.785-2.638q-.64-1.502-.64-3.23 0-1.683.64-3.184.687-1.546 1.785-2.638A8.3 8.3 0 0 1 54.413.682 8.1 8.1 0 0 1 57.708 0a7.8 7.8 0 0 1 3.25.682 8.2 8.2 0 0 1 2.7 1.774 7.6 7.6 0 0 1 1.784 2.638q.687 1.5.687 3.184m-2.151 61.95H51.393V21.514h12.585zM100.452 70.228H71.895V57.857h28.557q1.281 0 2.196-.91t.915-2.184q0-1.318-.915-1.728t-2.196-.41H87.455q-3.25 0-6.087-1.227-2.838-1.23-4.942-3.32a16.4 16.4 0 0 1-3.341-4.959q-1.19-2.82-1.19-6.049t1.19-6.05a15.8 15.8 0 0 1 3.34-4.912 15.3 15.3 0 0 1 4.943-3.275q2.837-1.227 6.087-1.228h25.307v12.372H87.455q-1.282 0-2.197.91t-.915 2.183q0 1.32.915 2.274.915.91 2.197.91h12.997q3.203 0 6.04 1.092 2.837 1.046 4.943 2.956t3.341 4.594 1.235 5.868q0 3.228-1.235 6.049a16.5 16.5 0 0 1-3.341 4.912q-2.106 2.093-4.943 3.32-2.837 1.184-6.04 1.183M135.186 70.228h-12.493V2.138h12.493v21.514q2.243-1.683 4.622-2.365a16.5 16.5 0 0 1 4.851-.728q4.531 0 8.512 1.729 3.982 1.682 6.911 4.684 2.974 2.956 4.668 6.96 1.739 3.957 1.739 8.46v27.836h-12.585V42.392h.091a8.9 8.9 0 0 0-.732-3.594 9.3 9.3 0 0 0-2.014-3.002 9.5 9.5 0 0 0-2.974-2 9.1 9.1 0 0 0-3.616-.729 9.5 9.5 0 0 0-3.707.728 9.4 9.4 0 0 0-3.02 2.001 9.3 9.3 0 0 0-2.014 3.002 8.9 8.9 0 0 0-.732 3.594z" />
  <path fill="#fff"
    d="M153.904 90V77.583h6.91c1.678 0 6.117-.576 7.551-1.274a11.4 11.4 0 0 0 3.707-2.729c1.068-1.122 1.907-3.412 2.517-4.898q.915-2.23.915-4.685V21.514h12.768v42.483h-.091a25 25 0 0 1-.961 6.595c-.58 3.11-1.419 5.08-2.517 6.9a24.2 24.2 0 0 1-3.936 5.003 24.1 24.1 0 0 1-5.08 3.866 23.7 23.7 0 0 1-5.903 2.502c-2.136.606-7.231 1.137-9.519 1.137z" />
  <path fill="#ed716d"
    d="M253.105 70.228h-10.923l-4.851-6.686a41 41 0 0 1-3.798 3.002q-1.968 1.365-4.165 2.41a27 27 0 0 1-4.531 1.593 18.6 18.6 0 0 1-4.667.591q-5.172 0-9.748-1.728-4.531-1.729-7.963-5.004-3.387-3.32-5.354-8.096t-1.968-10.87q0-5.686 1.968-10.417 1.968-4.776 5.354-8.187a24.3 24.3 0 0 1 7.963-5.276q4.576-1.91 9.748-1.91 2.379 0 4.713.59 2.334.592 4.531 1.638a27.3 27.3 0 0 1 4.164 2.456 33 33 0 0 1 3.753 3.048l4.851-5.777h10.923z" />
  <path fill="#fff"
    d="M325 70.228h-12.448v-30.93q0-1.273-.503-2.41a5.9 5.9 0 0 0-1.327-2.001 5.9 5.9 0 0 0-2.014-1.32 6 6 0 0 0-2.425-.5q-1.282 0-2.426.5a6.1 6.1 0 0 0-1.968 1.32 7 7 0 0 0-1.327 2.001 6.4 6.4 0 0 0-.458 2.41v30.93h-12.493v-30.93q0-1.273-.503-2.41a5.9 5.9 0 0 0-1.328-2.001 5.9 5.9 0 0 0-2.013-1.32 6 6 0 0 0-2.426-.5q-1.28 0-2.425.5a6.1 6.1 0 0 0-1.968 1.32 7 7 0 0 0-1.327 2.001 6.4 6.4 0 0 0-.458 2.41v30.93H262.67V21.514h3.02l3.387 3.73a19.9 19.9 0 0 1 5.72-3.366 17.9 17.9 0 0 1 6.544-1.228q3.433 0 6.682 1.274 3.295 1.274 5.766 4.412a12.6 12.6 0 0 1 2.609-2.638 15 15 0 0 1 3.066-1.774 14.8 14.8 0 0 1 3.386-.956 19 19 0 0 1 3.433-.318q3.89 0 7.276 1.456 3.432 1.455 5.949 4.002 2.563 2.502 4.028 5.913T325 39.3z" />
  <path fill="#000"
    d="M224.26 39.691c0 4.608-3.74 8.343-8.353 8.343s-8.352-3.735-8.352-8.343 3.739-8.343 8.352-8.343 8.353 3.736 8.353 8.343" />
</svg>
