<svg xmlns="http://www.w3.org/2000/svg" xml:space="preserve" viewBox="0 0 755.499 233.5"><path fill="#57A0C7" d="M168.898 20.193v165.198c0 19.294 15.624 34.948 34.917 34.948s34.948-15.654 34.948-34.948V20.193h-69.865z"/><path fill="#497284" d="M162.11 216.243V48.628c0-19.568-15.869-35.467-35.468-35.467-19.568 0-35.437 15.899-35.437 35.467v167.615h70.905zM84.417 216.243V48.628c0-19.568-15.868-35.467-35.436-35.467-19.6 0-35.468 15.899-35.468 35.467v167.615h70.904zM282.729 147.387c-5.228 0-9.54-1.622-12.994-4.893-3.455-3.24-5.167-7.46-5.167-12.627V96.264h7.704V129.5c0 3.394.917 6.054 2.813 8.011 1.866 1.988 4.403 2.966 7.644 2.966 3.18 0 5.749-.979 7.644-2.966 1.927-1.957 2.905-4.617 2.905-8.011V96.264h7.705v33.603c0 5.167-1.743 9.388-5.198 12.627-3.424 3.272-7.797 4.893-13.056 4.893zM349.415 147.019l-23.452-35.741v35.741h-7.674V96.264h7.032l23.451 35.621V96.264h7.675v50.755zM374.548 147.019h7.674V96.264h-7.674zM416.71 147.019h-5.992l-16.664-50.755h7.95l11.68 36.966 11.741-36.966h8.103zM445.33 147.019V96.264h32.409v6.91h-24.705v14.799h21.097v6.85h-21.097v15.287h24.705v6.909zM512.228 103.174h-11.404v15.931h11.404c2.568 0 4.648-.704 6.238-2.11 1.59-1.406 2.385-3.333 2.385-5.809 0-2.477-.795-4.433-2.355-5.872-1.559-1.436-3.669-2.14-6.268-2.14zm8.898 43.845-10.671-21.434h-9.631v21.434h-7.705V96.264h19.66c4.77 0 8.563 1.375 11.436 4.098 2.873 2.721 4.311 6.298 4.311 10.702 0 3.486-.918 6.39-2.813 8.744-1.865 2.324-4.311 3.915-7.277 4.709l11.68 22.502h-8.99zM558.091 147.387c-3.883 0-7.246-.521-10.121-1.53-2.842-1.039-5.441-2.751-7.826-5.167l5.137-5.045c1.742 1.744 3.699 2.997 5.809 3.731 2.109.733 4.494 1.101 7.154 1.101 3.305 0 5.902-.673 7.736-2.019 1.803-1.375 2.723-3.271 2.723-5.748 0-2.324-.492-3.914-1.469-4.8-.947-.887-1.865-1.499-2.662-1.835-.793-.306-1.955-.582-3.422-.765l-5.963-.856c-4.129-.581-7.398-1.956-9.785-4.188-2.354-2.232-3.545-5.412-3.545-9.541 0-4.464 1.527-8.072 4.555-10.792 3.059-2.722 7.186-4.097 12.414-4.097 6.328 0 11.586 1.927 15.717 5.748l-4.924 4.861c-1.469-1.437-3.088-2.446-4.893-3.026-1.803-.582-3.852-.887-6.145-.887-2.875 0-5.139.733-6.789 2.232-1.65 1.498-2.445 3.394-2.445 5.656 0 1.988.643 3.577 1.957 4.739 1.283 1.162 3.18 1.927 5.656 2.324l5.779.856c2.262.336 4.127.795 5.596 1.375 1.438.612 3.117 1.744 5.076 3.455 1.955 1.713 2.904 4.832 2.904 9.326 0 4.617-1.652 8.225-5.016 10.884-3.333 2.663-7.735 4.008-13.208 4.008zM591.511 147.019h7.674V96.264h-7.674zM634.439 103.174v43.845h-7.674v-43.845H612.79v-6.91h35.621v6.91zM681.892 91.006V83.3h6.543v7.706h-6.543zm-4.037 16.785-7.887 22.505h15.5l-7.613-22.505zm-11.342-16.785V83.3h6.541v7.706h-6.541zm24.643 56.013-3.455-10.243h-20.027l-3.516 10.243h-8.195l18.592-50.755h6.207l18.59 50.755h-8.196zM728.548 103.174v43.845h-7.703v-43.845h-13.943v-6.91h35.468v6.91z"/><path fill="#57A0C7" d="m295.02 216.335-14.247-25.072-8.501 10.273v14.768h-7.704v-50.755h7.704v25.499l20.701-25.499h9.386l-16.42 19.842 18.162 30.913zM315.629 216.304v-50.755h7.673v43.876h24.431v6.879zM376.505 177.075l-7.858 22.503h15.5l-7.642-22.503zm13.299 39.229-3.455-10.243h-19.996l-3.516 10.243h-8.195l18.56-50.755h6.207l18.59 50.755h-8.195zM439.704 210.923c-1.896 1.987-3.975 3.455-6.299 4.372-2.293.918-4.861 1.376-7.644 1.376-5.258 0-9.387-1.468-12.322-4.403-2.935-2.965-4.648-5.748-5.167-8.408-.489-2.661-.734-6.971-.734-12.964 0-5.932.245-10.243.734-12.902.519-2.69 2.232-5.504 5.167-8.439 2.966-2.965 7.063-4.432 12.352-4.432 5.199 0 9.357 1.467 12.567 4.402 3.18 2.936 5.137 6.726 5.902 11.404h-7.767c-.642-2.813-1.896-5.014-3.7-6.573-1.803-1.529-4.127-2.324-7.002-2.324-1.467 0-2.873.275-4.188.855-1.285.582-2.477 1.438-3.548 2.569-1.07 1.131-1.833 2.751-2.232 4.861-.397 2.11-.611 5.657-.611 10.579 0 5.168.214 8.775.581 10.763.367 1.988 1.376 3.853 2.966 5.535 1.589 1.711 3.915 2.568 7.001 2.568 3.424 0 6.085-1.07 7.98-3.271 1.896-2.171 2.844-4.922 2.844-8.255v-2.844H425.76v-6.481h18.499v7.734c0 3.333-.337 6.085-1.04 8.287-.672 2.2-1.834 4.187-3.515 5.991zM459.792 216.304v-50.755h32.379v6.91h-24.705v14.798h21.097v6.849h-21.097v15.319h24.705v6.879zM538.034 216.304l-23.419-35.712v35.712h-7.707v-50.755h7.033l23.451 35.62v-35.62h7.674v50.755zM570.198 172.459V187.9h21.069v6.909h-21.069v21.495h-7.673v-50.755h32.381v6.91zM625.724 216.671c-5.197 0-9.539-1.62-12.994-4.861-3.424-3.271-5.137-7.491-5.137-12.658v-33.603h7.676v33.266c0 3.363.947 6.024 2.811 8.011 1.865 1.957 4.436 2.936 7.645 2.936 3.18 0 5.748-.979 7.674-2.936 1.928-1.986 2.875-4.647 2.875-8.011v-33.266h7.676v33.603c0 5.167-1.713 9.387-5.139 12.658-3.456 3.241-7.798 4.861-13.087 4.861zM679.691 172.459h-11.375v15.96h11.375c2.568 0 4.646-.703 6.238-2.11 1.588-1.406 2.385-3.363 2.385-5.839s-.797-4.434-2.355-5.87c-1.561-1.438-3.639-2.141-6.268-2.141zm8.896 43.876-10.639-21.464-9.633.031v21.403h-7.705V165.55h19.66c4.738 0 8.561 1.376 11.436 4.098 2.873 2.721 4.311 6.298 4.311 10.701 0 3.485-.947 6.39-2.844 8.745-1.865 2.354-4.281 3.913-7.277 4.739l11.68 22.473-8.989.029zM728.609 172.459v43.845h-7.703v-43.845h-13.944v-6.91h35.408v6.91z"/></svg>
