<svg xmlns="http://www.w3.org/2000/svg" width="152" height="44" fill="none">
  <path stroke="#783f00" stroke-width="2"
    d="m61.206 16.488 2.956-.003a.125.125 0 0 0 .125-.124l-.005-5.759a.26.26 0 0 1 .097-.204c1.108-.914 2.892-1.374 2.877.756a1380 1380 0 0 0 0 5.268q0 .026.019.045a.07.07 0 0 0 .046.018l2.96-.002a.127.127 0 0 0 .128-.127q.021-5.497-.007-6.42-.076-2.51-2.194-3.088c-1.062-.291-2.087.014-3.067.594q-.587.347-.747.498a.066.066 0 0 1-.112-.046v-.63a.12.12 0 0 0-.035-.086.12.12 0 0 0-.085-.036l-2.963.002a.13.13 0 0 0-.119.079.1.1 0 0 0-.01.048l.007 9.087a.13.13 0 0 0 .13.13ZM91.291 15.82c.5 1.35 2.674.74 3.898.406a.15.15 0 0 0 .088-.065.15.15 0 0 0 .021-.109l-.278-1.59a.15.15 0 0 0-.055-.093.14.14 0 0 0-.103-.03l-.376.033a.386.386 0 0 1-.42-.382q-.007-.392.004-4.67.002-1.017-.195-1.386c-.458-.86-1.283-1.258-2.264-1.32q-2.901-.18-5.237 1.521a.173.173 0 0 0-.048.226l.867 1.501a.18.18 0 0 0 .254.064c.773-.487 1.999-1.07 2.995-.964a.77.77 0 0 1 .677.633l.056.326a.47.47 0 0 1-.247.493.5.5 0 0 1-.188.049c-2.056.076-5.168.88-5.065 3.477.062 1.604 1.235 2.737 2.844 2.708.929-.017 1.938-.22 2.674-.854a.06.06 0 0 1 .056-.013.06.06 0 0 1 .042.04ZM111.002 16.488h2.956a.12.12 0 0 0 .088-.037.12.12 0 0 0 .037-.088v-5.759a.26.26 0 0 1 .096-.204c1.108-.914 2.895-1.374 2.877.756q-.004.701-.002 5.27a.064.064 0 0 0 .066.064h2.96a.127.127 0 0 0 .127-.127q.026-5.5-.002-6.423-.074-2.511-2.192-3.09c-1.062-.291-2.089.014-3.07.592q-.587.346-.746.497a.07.07 0 0 1-.071.014.1.1 0 0 1-.03-.024.1.1 0 0 1-.011-.036v-.628a.13.13 0 0 0-.035-.087.12.12 0 0 0-.085-.036h-2.963a.13.13 0 0 0-.129.127v9.09a.13.13 0 0 0 .129.128ZM145.488 11.232a4.58 4.58 0 0 0-4.538-4.622l-.932-.008a4.581 4.581 0 0 0-4.618 4.542l-.008.893a4.58 4.58 0 0 0 4.538 4.622l.933.008a4.582 4.582 0 0 0 4.618-4.542z" />
  <path stroke="#783f00" stroke-width="2"
    d="M90.968 12.137c-.948.077-2.27.246-2.332 1.348-.072 1.337 1.605 1.179 2.35.684a.3.3 0 0 0 .135-.252v-1.64a.14.14 0 0 0-.153-.14ZM142.345 10.834a1.753 1.753 0 0 0-1.789-1.723l-.294.005a1.755 1.755 0 0 0-1.722 1.791l.028 1.455a1.756 1.756 0 0 0 1.79 1.723l.293-.006a1.756 1.756 0 0 0 1.722-1.79z" />
  <path fill="#f07e00"
    d="M76.92 5.588v12.025a5.59 5.59 0 0 1-3.446 5.163 5.6 5.6 0 0 1-2.136.425H59.322a5.58 5.58 0 0 1-5.584-5.588V5.588a5.6 5.6 0 0 1 1.636-3.951A5.58 5.58 0 0 1 59.32 0h12.017a5.59 5.59 0 0 1 5.583 5.588M61.208 16.487l2.955-.002a.125.125 0 0 0 .125-.125l-.004-5.759a.26.26 0 0 1 .096-.204c1.108-.913 2.893-1.373 2.877.756q-.004.699 0 5.268 0 .026.02.045a.07.07 0 0 0 .046.019l2.96-.002a.127.127 0 0 0 .127-.128q.023-5.497-.006-6.42-.077-2.511-2.194-3.087c-1.062-.292-2.087.013-3.068.593q-.586.346-.746.498a.066.066 0 0 1-.112-.046v-.629a.12.12 0 0 0-.035-.087.12.12 0 0 0-.086-.036l-2.962.002a.13.13 0 0 0-.091.038.13.13 0 0 0-.038.09l.007 9.087a.13.13 0 0 0 .129.129M101.768 17.677a5.54 5.54 0 0 1-1.626 3.908 5.52 5.52 0 0 1-3.91 1.613l-12.104-.021a5.524 5.524 0 0 1-5.517-5.54l.021-12.114A5.533 5.533 0 0 1 84.169.002l12.104.021a5.525 5.525 0 0 1 5.517 5.54zM91.293 15.82c.499 1.35 2.673.74 3.897.406a.15.15 0 0 0 .088-.065.16.16 0 0 0 .021-.109l-.278-1.59a.15.15 0 0 0-.055-.093.15.15 0 0 0-.102-.03l-.377.033a.387.387 0 0 1-.42-.382q-.007-.392.004-4.67.003-1.017-.195-1.386c-.457-.86-1.283-1.258-2.264-1.32q-2.901-.18-5.237 1.521a.173.173 0 0 0-.048.226l.867 1.501a.18.18 0 0 0 .254.064c.773-.487 1.999-1.07 2.995-.964a.77.77 0 0 1 .677.633l.056.326a.463.463 0 0 1-.435.542c-2.056.076-5.167.88-5.064 3.477.06 1.604 1.234 2.737 2.844 2.708.928-.017 1.937-.22 2.673-.854a.06.06 0 0 1 .082.001.1.1 0 0 1 .017.025M126.625 17.675a5.534 5.534 0 0 1-5.54 5.525l-12.099-.021a5.53 5.53 0 0 1-3.908-1.628 5.54 5.54 0 0 1-1.613-3.917l.021-12.109a5.54 5.54 0 0 1 1.627-3.91A5.53 5.53 0 0 1 109.026 0l12.1.021a5.538 5.538 0 0 1 5.521 5.545zm-15.624-1.189h2.956a.13.13 0 0 0 .088-.036.13.13 0 0 0 .036-.088v-5.759a.3.3 0 0 1 .026-.113.3.3 0 0 1 .071-.09c1.108-.915 2.894-1.375 2.877.755q-.005.702-.002 5.27a.06.06 0 0 0 .019.045.07.07 0 0 0 .046.019h2.96a.127.127 0 0 0 .127-.127q.027-5.5-.002-6.423-.074-2.511-2.191-3.09c-1.062-.291-2.089.014-3.07.592q-.587.346-.747.497a.07.07 0 0 1-.071.014.066.066 0 0 1-.04-.06v-.628a.123.123 0 0 0-.121-.123h-2.962a.126.126 0 0 0-.129.127v9.09a.13.13 0 0 0 .037.09.13.13 0 0 0 .092.038M151.581 17.675a5.54 5.54 0 0 1-1.627 3.91 5.53 5.53 0 0 1-3.914 1.615l-12.099-.021a5.53 5.53 0 0 1-3.908-1.628 5.54 5.54 0 0 1-1.613-3.917l.021-12.109a5.54 5.54 0 0 1 1.627-3.91A5.53 5.53 0 0 1 133.981 0l12.1.021a5.53 5.53 0 0 1 5.521 5.545zm-6.093-6.443a4.58 4.58 0 0 0-4.538-4.622l-.933-.008a4.582 4.582 0 0 0-4.618 4.542l-.007.894a4.58 4.58 0 0 0 4.538 4.622l.932.008a4.581 4.581 0 0 0 4.618-4.542z" />
  <path fill="#fff"
    d="M23.964 44h-.724c-1.307-.425-.854-1.665-.524-2.669q.055-.166.073-.34a55 55 0 0 1 .637-4.435q.22-1.163.19-1.772c-.041-.877-.048-2.485.167-3.657.46-2.503.843-5.13.626-7.595-.053-.6-.458-1.54-1.185-1.449q-.256.03-.652.165c-1.559.521-3.133 1.48-4.167 2.791q-.582.737-.834.92a306 306 0 0 1-5.123 3.631c-.701.485-1.837 1.436-2.59 2.242q-1.798 1.921-2.42 2.389c-.36.267-1.058.265-1.439.013-.991-.651-.851-1.96.077-2.632a167 167 0 0 0 2.03-1.48 746 746 0 0 1 4.335-3.551q.33-.267.755-.493c1.492-.789 3.14-1.64 3.817-3.04a.067.067 0 0 0-.038-.093.1.1 0 0 0-.037-.003c-.578.114-1.112.62-1.473 1.02a.65.65 0 0 1-.36.198 2.93 2.93 0 0 0-1.53.778 1.4 1.4 0 0 1-.258.193c-.602.344-1.11.574-1.813 1.054q-4.228 2.892-6.056 4.289-.42.321-1.012.422-1.014.174-1.29-.756c-.286-.962.198-1.5 1.032-1.98a546 546 0 0 1 4.361-2.474c.624-.351 1.345-.96 2.019-1.34 1.436-.808 3.503-1.899 5.113-3.006q3.416-2.349 4.287-3.021.317-.243.002-.614a.4.4 0 0 0-.145-.107q-2.7-1.219-5.28-1.821-6.451-1.506-7.84-1.845a76 76 0 0 0-5.403-1.126C.267 12.63-.442 11.673.32 10.766c.536-.636 1.686-.472 2.612-.244 1.29.32 2.7.835 4.136 1.03q1.125.15 1.809.357 1.517.459 5.403 1.72c.414.134 1.229.33 1.732.344q.604.018 2.409.439.543.126 1.009.033a.337.337 0 0 0 .215-.52q-.26-.39-.76-.793-4.47-3.595-11.469-7.92-1.598-.985-2.68-1.485C3.55 3.182 2.652 2.533 3.523 1.262q.591-.865 1.697-.4a9 9 0 0 1 1.876 1.066c4.758 3.5 8.995 6.396 13.764 9.004q.936.513 2.498.949.25.067.895.556a.6.6 0 0 1 .154.176q.536.945-.175 1.715-.955 1.035-1.26 1.968c-.61 1.88 1.238 3.635 2.871 4.109 2.058.598 3.762-.704 3.99-2.772.107-.973-.458-1.679-1.087-2.768-.499-.865.357-1.88 1.13-2.189 2.023-.804 4.123-1.775 5.34-2.92q1.448-1.364 2.385-1.94 1.673-1.03 2.66-1.88A155 155 0 0 0 45.947.78c.96-.916 2.838-.127 2.617 1.343q-.143.942-.867 1.444-1.255.87-3.904 2.64c-1.857 1.239-3.212 2.488-5.032 3.916a87 87 0 0 0-3.635 2.998 19 19 0 0 1-2.596 1.891c-.858.524-.856 1.716.035 2.187q2.772 1.464 6.505 3.006.902.373 2.68.875a21.3 21.3 0 0 1 4.4 1.792q.249.135 1.459.434c1.14.283 2.704.32 3.69.688q1.046.393.744 1.51c-.64 2.36-3.245 1.098-4.633.328a11.5 11.5 0 0 0-4.254-1.373q-.289-.035-1.463-.476a1 1 0 0 1-.206-.103q-1.182-.769-1.826-1.034-1.41-.584-3.615-1.142a369 369 0 0 0-4.992-1.238.98.98 0 0 0-.788.132c-.064.04-.111.099-.134.168q-.147.437.042.67.876 1.099 1.224 2.144c.52 1.553.825 2.522 1.58 3.878q1.165 2.1 1.728 3.335c.418.925.753 2.255 1.224 3.233l1.607 3.33q.225.463 1.165 1.843.045.07.077.149.58 1.49-.955 1.88c-1.248.32-2.152-1.071-2.393-2.1q-.4-1.716-.593-2.3a2.6 2.6 0 0 0-.217-.482 16.5 16.5 0 0 1-1.283-2.81 2.8 2.8 0 0 0-.32-.637c-.221-.333-.668-.929-.952-1.448a185 185 0 0 1-3.342-6.396 1.8 1.8 0 0 1-.131-.36c-.112-.451-.208-1.142-.828-1.2a.28.28 0 0 0-.21.07c-.797.703-.836 2.541-.819 3.71q.005.241-.061.473c-.37 1.314-.552 1.785-.512 2.885.04 1.146-.068 2.045-.355 3.322q-.812 3.63-.668 8.347.035 1.191-1.176 1.698" />
  <path fill="#000"
    d="M91.291 15.82a.06.06 0 0 0-.072-.04.1.1 0 0 0-.026.014c-.736.633-1.745.837-2.674.854-1.609.029-2.782-1.104-2.844-2.708-.103-2.597 3.009-3.4 5.065-3.477a.46.46 0 0 0 .428-.346.5.5 0 0 0 .007-.196l-.056-.326a.766.766 0 0 0-.677-.633c-.996-.106-2.222.477-2.995.964a.183.183 0 0 1-.254-.064l-.867-1.5a.174.174 0 0 1 .048-.227q2.336-1.703 5.237-1.52c.981.061 1.806.46 2.264 1.319q.197.368.195 1.387a656 656 0 0 0-.004 4.67.39.39 0 0 0 .42.38l.376-.032a.14.14 0 0 1 .103.03.15.15 0 0 1 .055.093l.278 1.59a.15.15 0 0 1-.021.109.15.15 0 0 1-.088.064c-1.224.336-3.398.945-3.898-.405m-.324-3.683c-.948.076-2.27.245-2.331 1.347-.073 1.337 1.605 1.18 2.349.684a.3.3 0 0 0 .136-.252v-1.64a.14.14 0 0 0-.046-.103.14.14 0 0 0-.108-.036M145.481 12.126a4.58 4.58 0 0 1-4.618 4.541l-.933-.008a4.58 4.58 0 0 1-4.538-4.621l.008-.895a4.58 4.58 0 0 1 4.618-4.541l.932.008a4.58 4.58 0 0 1 4.538 4.622zm-3.135-1.293a1.754 1.754 0 0 0-1.789-1.723l-.294.006a1.755 1.755 0 0 0-1.722 1.79l.028 1.455a1.757 1.757 0 0 0 1.79 1.723l.293-.005a1.756 1.756 0 0 0 1.722-1.79zM61.206 16.488a.13.13 0 0 1-.13-.13l-.006-9.087a.13.13 0 0 1 .038-.09.13.13 0 0 1 .092-.037l2.962-.002a.12.12 0 0 1 .085.036.12.12 0 0 1 .035.087v.629a.07.07 0 0 0 .041.06.07.07 0 0 0 .071-.014q.159-.152.747-.498c.98-.58 2.005-.885 3.067-.594q2.118.577 2.194 3.088.028.923.007 6.42a.127.127 0 0 1-.127.127l-2.96.002a.07.07 0 0 1-.047-.018.06.06 0 0 1-.02-.045 1380 1380 0 0 1 0-5.268c.016-2.13-1.768-1.67-2.876-.756a.26.26 0 0 0-.097.204l.005 5.759a.125.125 0 0 1-.125.124zM110.873 16.358v-9.09q.001-.051.038-.089a.13.13 0 0 1 .091-.037h2.963a.12.12 0 0 1 .085.036.13.13 0 0 1 .035.087v.628q0 .02.011.036.012.017.03.024a.065.065 0 0 0 .071-.014q.16-.15.746-.497c.981-.578 2.008-.883 3.07-.592q2.118.579 2.192 3.09.028.922.002 6.423a.126.126 0 0 1-.127.127h-2.96a.064.064 0 0 1-.066-.064q-.002-4.568.002-5.27c.018-2.13-1.769-1.67-2.877-.756a.27.27 0 0 0-.096.204v5.759a.12.12 0 0 1-.037.088.12.12 0 0 1-.088.037h-2.956a.13.13 0 0 1-.129-.13" />
  <path fill="#f07e00"
    d="m140.558 9.111-.294.006c-.969.018-1.74.82-1.722 1.79l.028 1.455c.019.97.82 1.742 1.79 1.723l.293-.005a1.756 1.756 0 0 0 1.722-1.791l-.028-1.455a1.756 1.756 0 0 0-1.789-1.723M91.121 12.278v1.639a.3.3 0 0 1-.136.252c-.744.495-2.421.653-2.349-.684.061-1.102 1.384-1.271 2.332-1.348a.14.14 0 0 1 .141.084.14.14 0 0 1 .012.057" />
  <path fill="#fff"
    d="M67.569 33.577c.054 1.696-.28 3.059-1.82 3.867q-.644.34-2.526.325-4.207-.034-5.19-.007c-1.986.055-3.352-.151-4.173-1.832q-.333-.68-.315-2.11.028-2.625.006-3.252c-.063-1.847.629-3.28 2.413-3.773q.188-.05.381-.05 4.44-.003 8.485.002c.339 0 1.002.262 1.32.5q1.67 1.257 1.355 3.536a.14.14 0 0 1-.048.089.15.15 0 0 1-.096.036h-3.057a.127.127 0 0 1-.127-.13q.006-.86-.613-1.213a.6.6 0 0 0-.304-.082 202 202 0 0 1-3.659-.006q-1.307-.037-1.747.254c-1.027.677-.85 1.672-.854 2.958-.007 1.57.576 2.308 2.141 2.277q.543-.01 4.165-.002c.847.002.939-.664.985-1.407a.14.14 0 0 1 .138-.13h2.984c.04 0 .08.016.109.044a.15.15 0 0 1 .047.106M84.208 34.517a3.246 3.246 0 0 1-3.243 3.245H72.61a3.24 3.24 0 0 1-3.243-3.245v-4.523a3.247 3.247 0 0 1 3.243-3.245h8.355a3.24 3.24 0 0 1 3.243 3.245zm-3.403-3.318a1.66 1.66 0 0 0-1.657-1.659h-4.624a1.657 1.657 0 0 0-1.658 1.659v2.108a1.66 1.66 0 0 0 1.657 1.659h4.625a1.656 1.656 0 0 0 1.657-1.66zM95.881 30.124q-.043-1.02-1.108-1.037-1.493-.028-3.012.02-.322.008-1.434.015a.796.796 0 0 0-.793.82v.044a.87.87 0 0 0 .843.843q2 .057 6.028.101.943.01 1.999.471c1.02.443 1.26 1.214 1.248 2.362-.014.973.188 1.924-.48 2.858-.598.837-2.034 1.1-2.986 1.117q-2.108.038-7.215.011c-1.173-.006-2.437-.495-2.783-1.748q-.105-.387-.057-1.731a.13.13 0 0 1 .042-.092.14.14 0 0 1 .094-.038h3.008a.12.12 0 0 1 .116.082.1.1 0 0 1 .007.05q-.078.966 1.108.966 2.601-.003 4.883-.046a.836.836 0 0 0 .82-.837v-.09a.75.75 0 0 0-.744-.747q-.867-.003-6.218-.208c-.983-.038-2.485-.375-2.989-1.324q-.152-.284-.14-1.076.015-.918.005-1.862 0-.114.041-.222.786-2.04 2.82-2.064a506 506 0 0 1 6.742-.017c1.427.004 3.078.289 3.494 1.858q.064.244.037 1.512a.14.14 0 0 1-.138.136h-3.102a.14.14 0 0 1-.094-.037.13.13 0 0 1-.042-.09M110.606 33.486a.1.1 0 0 0 .028-.005.1.1 0 0 0 .018-.014l.019-.03 3.543-6.59a.21.21 0 0 1 .184-.113h4.885q.055 0 .096.04c.025.025.039.059.039.094v10.748a.13.13 0 0 1-.038.092.13.13 0 0 1-.093.037h-2.991a.133.133 0 0 1-.133-.133v-7.365q0-.015-.011-.029a.04.04 0 0 0-.026-.016.05.05 0 0 0-.031.002.05.05 0 0 0-.024.021l-4.145 7.404a.24.24 0 0 1-.18.123q-.008.002-1.136.004h-1.136a.24.24 0 0 1-.18-.125l-4.162-7.393a.052.052 0 0 0-.056-.023.05.05 0 0 0-.026.016.05.05 0 0 0-.01.03l.017 7.364a.133.133 0 0 1-.131.134l-2.991.008a.129.129 0 0 1-.133-.13l-.027-10.747a.135.135 0 0 1 .136-.134l4.885-.013q.058 0 .107.03t.077.082l3.56 6.582.018.029a.1.1 0 0 0 .017.015q.015.005.031.005M136.262 34.532a3.24 3.24 0 0 1-3.246 3.238l-8.359-.015a3.24 3.24 0 0 1-3.235-3.249l.008-4.527a3.24 3.24 0 0 1 3.246-3.237l8.359.014a3.24 3.24 0 0 1 3.235 3.249zm-3.4-3.333a1.66 1.66 0 0 0-1.022-1.53 1.7 1.7 0 0 0-.634-.126h-4.624a1.653 1.653 0 0 0-1.655 1.656v2.113a1.66 1.66 0 0 0 1.022 1.53c.201.084.416.126.633.126h4.624a1.654 1.654 0 0 0 1.656-1.656zM148.073 30.25a.135.135 0 0 1-.136-.127q-.044-1.018-1.108-1.036-1.493-.028-3.013.02a89 89 0 0 1-1.434.015.8.8 0 0 0-.792.82v.044a.866.866 0 0 0 .842.843q2.002.057 6.028.101.944.01 1.999.471c1.021.44 1.261 1.212 1.248 2.36-.013.975.189 1.926-.479 2.86-.596.837-2.034 1.1-2.987 1.117q-2.108.038-7.214.011c-1.174-.006-2.437-.495-2.783-1.748q-.105-.387-.057-1.731a.134.134 0 0 1 .136-.13h3.008a.1.1 0 0 1 .049.01q.024.01.041.03a.12.12 0 0 1 .033.092q-.079.966 1.108.966a267 267 0 0 0 4.882-.046.84.84 0 0 0 .821-.837v-.09a.746.746 0 0 0-.744-.747q-.867-.003-6.218-.208c-.983-.038-2.485-.375-2.989-1.324q-.153-.284-.14-1.076.016-.918.004-1.862 0-.114.042-.222.786-2.04 2.82-2.064 2.477-.029 6.741-.017c1.428.004 3.079.287 3.495 1.856q.064.244.037 1.512-.001.055-.041.096a.14.14 0 0 1-.097.04z" />
</svg>
