<svg xmlns="http://www.w3.org/2000/svg" viewBox="0 0 980 291">
  <path fill="#B00357"
    d="M979.276 290.776H0v-10.998h979.276v10.998ZM289.774 69.505c5.67 0 9.411.907 11.453 2.948 2.041 1.928 3.061 5.556 3.061 10.886v30.841c0 5.214-1.02 8.842-3.061 10.883-2.042 1.928-5.783 2.835-11.453 2.949h-43.086c-5.555 0-9.411-.906-11.564-2.834-1.929-1.927-2.836-5.556-2.949-10.998v-9.921H0v-11h232.175v-9.92c0-5.103.906-8.731 2.949-10.886 2.04-1.927 5.895-2.835 11.564-2.948h43.086Zm88.219 0v5.783l-41.498 41.727h41.498v10.997h-62.814v-6.349l40.931-41.725h-36.85V69.505h58.733Zm24.963 0 20.068 22.451 20.183-22.451h15.986l-30.273 31.974v26.533H415.2V101.82l-30.387-32.315h18.143Zm126.351 0v9.98h-46.262v13.037h26.985v9.978h-26.985v14.515h46.828v10.997h-60.435V69.505h59.869Zm73.631 0c5.67 0 9.411.907 11.453 2.948 2.04 1.928 3.061 5.33 3.061 10.317v1.362l-13.266 2.382v-6.576h-42.519v37.077h42.519v-13.04h-22.225v-9.979h35.491v20.184c0 5.214-.908 8.843-2.948 10.998-2.043 1.814-5.896 2.72-11.566 2.834h-40.366c-5.556 0-9.41-.906-11.564-2.834-1.928-1.927-2.835-5.556-2.948-10.998V83.339c0-5.103.906-8.731 2.948-10.886 2.041-1.927 5.896-2.835 11.564-2.948h40.366Zm51.229 0v58.507H640.56V69.505h13.607Zm74.566 34.47 3.741 3.288 2.948 3.061-.454-6.916-.114-3.175V69.505h12.248V93.26h232.172v10.999H747.102v23.753h-9.299l-42.972-36.17-2.722-2.494-2.154-2.268.34 5.216.226 4.081v31.635h-12.245V69.505h9.297l41.16 34.47Zm-482.952 13.04h44.902V79.937h-44.902v37.078ZM654.167 48.19v13.607H640.56V48.19h13.607Zm-55.011 13.606h-32.802V51.712h32.802v10.084ZM264.434 48.19v13.605h-11.339V48.19h11.339Zm18.934 0v13.605h-11.339V48.19h11.339Z" />
  <path fill="#1C4F9C" fill-rule="evenodd"
    d="M0 0h979.275v10.999H0V0ZM825.877 186.519h153.398v10.998H825.877M0 186.519h144.091v10.998H0"
    clip-rule="evenodd" />
  <path fill="#1C4F9C"
    d="M336.847 162.657h.673v58.333h-.673v.083h-13.584v-58.5h13.584v.084Zm-181.415 47.441h40.582v-47.44h14.244v44.545c0 5.238-1.097 8.87-3.287 10.893-2.102 1.929-6.072 2.894-11.916 2.894H156.39c-5.807 0-9.815-.965-12.026-2.894-1.933-1.839-2.995-5.47-3.177-10.893v-44.545h14.245v47.44Zm135.255-8.689v-38.752h12.808v58.333h-9.807l-49.448-39.301v39.301h-12.928v-58.333h9.802l49.573 38.752Zm94.904 3.584 23.305-42.336h14.756l-33.788 58.333h-9.79l-35.304-58.333h16.135l24.686 42.336Zm107.149-32.005h-48.265v12.692h28.13v10.071h-28.13v14.347h48.953v10.892h-63.199v-58.298h62.511v10.296Zm68.892-10.294c4.873 0 8.363.921 10.477 2.759 2.02 1.564 3.075 4.414 3.172 8.55v13.79c0 3.861-1.057 6.711-3.172 8.551-2.114 1.562-5.604 2.438-10.477 2.622h-8.012l27.731 22.024h-20.409l-24.453-22.024h-13.401v22.024h-14.127v-58.296h52.671Zm80.449-.121c5.513 0 9.469.971 11.857 2.911 2.208 1.758 3.357 5.032 3.452 9.832v1.378l-12.208 2.62v-6.208h-40.225v12.282h37.966c5.8 0 9.802.968 12.008 2.897 1.934 1.841 2.992 5.476 3.177 10.904v8.001c0 5.336-1.057 9.016-3.177 11.04-1.932 1.656-5.94 2.576-12.016 2.76h-37.839c-5.853 0-9.924-.965-12.208-2.894-1.932-1.839-2.989-5.471-3.175-10.893v-1.658l12.697-2.342v6.895h42.907v-13.4h-37.822c-5.893 0-9.943-.969-12.151-2.903-1.932-1.841-2.992-5.478-3.175-10.914v-6.493c0-5.343 1.06-8.932 3.169-10.776 2.027-1.84 6.071-2.853 12.143-3.039h34.62Zm50.731 58.417h-14.246v-58.333h14.246v58.333Zm82.323-47.884h-28.269v47.884h-14.243v-47.884h-28.137v-10.533h70.649v10.533Zm48.445 11.34 21.112-21.789h16.691l-31.719 31.855v26.478h-14.245v-26.201l-31.854-32.132h19.167l20.848 21.789Zm-300.492 4.462h32.42c2.39 0 4.047-.316 4.966-.958.827-.643 1.333-1.882 1.518-3.721v-6.758c0-1.653-.505-2.848-1.518-3.585-.735-.551-2.394-.918-4.966-1.104h-32.42v16.126Z" />
</svg>
