<svg viewBox="0 0 139 30" xmlns="http://www.w3.org/2000/svg">
  <path
    d="M24.8382 1.76583C14.1535 -3.04239 3.70217 2.55169 0.906683 11.5139C-0.598583 16.343 1.90193 21.1151 8.40339 22.2397C0.291144 14.2142 12.7433 -0.366158 24.8382 1.76583Z"
    fill="#36B4A7" />
  <path
    d="M4.59473 21.6016L8.26477 26.2558C14.803 32.8331 28.8684 28.6486 31.795 17.3794C32.305 14.0289 32.2203 10.1895 30.4368 6.44092C28.0202 17.6813 15.9613 25.4185 4.59473 21.6016Z"
    fill="#64BA93" />
  <path
    d="M25.6711 26.2892C28.0597 24.4968 29.8215 22.5237 30.8567 20.065C36.2351 7.36699 27.6879 -2.89643 15.0566 3.39198C20.4422 1.13878 27.5025 1.73438 30.2476 6.44468C34.8225 14.3257 28.5201 24.8725 25.6711 26.2892Z"
    fill="#DBDFE2" />
  <path
    d="M19.0383 20.5725C12.5344 22.674 0.74649 22.9558 0.56023 14.2609C0.52106 13.0519 0.77287 12.3367 0.960732 11.1616L0.582613 12.2822C-2.40553 22.0937 10.4951 24.9593 19.0383 20.5725Z"
    fill="white" />
  <path
    d="M50.5155 28.3597H48.6417V20.0645C47.0525 22.097 45.0908 23.1132 42.7565 23.1132C40.6373 23.1132 38.8515 22.3097 37.3966 20.7027C35.9601 19.1246 35.2422 17.2101 35.2422 14.9601C35.2422 12.739 35.9761 10.839 37.4437 9.26006C38.9115 7.68115 40.7005 6.89209 42.8101 6.89209C45.2251 6.89209 47.1692 7.97013 48.6409 10.1254V7.28943H50.5147L50.5155 28.3597ZM48.7072 15.115C48.7072 13.3539 48.1605 11.8697 47.0685 10.664C45.9765 9.45839 44.6008 8.85555 42.942 8.85555C40.7125 8.85555 39.0497 9.88698 37.953 11.9499C37.427 12.93 37.1639 13.9663 37.1639 15.0588C37.1639 16.1521 37.427 17.19 37.953 18.1749C38.4789 19.1591 39.1857 19.9273 40.073 20.478C40.9603 21.0294 41.9124 21.3047 42.9292 21.3047C43.9548 21.3047 44.9269 21.0318 45.8454 20.486C46.7639 19.9393 47.4706 19.2 47.9654 18.2673C48.4603 17.3345 48.7072 16.2838 48.7072 15.115Z"
    fill="white" />
  <path
    d="M66.8777 14.8509C66.8777 16.5887 66.7218 17.9662 66.41 18.9865C65.9816 20.3743 65.2005 21.4371 64.0678 22.1732C63.1221 22.7873 61.9398 23.0939 60.5217 23.0939C57.7286 23.0939 55.8372 21.9372 54.8468 19.6246C54.3735 18.5386 54.1377 16.9002 54.1377 14.7096V7.28857H56.1361V14.476C56.1361 16.2492 56.2249 17.4565 56.4015 18.0978C56.6757 19.0787 57.2073 19.8429 57.9948 20.3896C58.7382 20.8993 59.6056 21.1538 60.5976 21.1538C61.5617 21.1538 62.4074 20.9129 63.1333 20.4321C63.9023 19.9135 64.4347 19.1871 64.7265 18.2536C64.912 17.6604 65.0047 16.4009 65.0047 14.476V7.28857H66.8784L66.8777 14.8509Z"
    fill="white" />
  <path
    d="M85.3641 22.7149H83.4908V20.0635C81.9012 22.096 79.9406 23.1123 77.6063 23.1123C75.4879 23.1123 73.7013 22.3087 72.2472 20.7017C70.8106 19.1236 70.0928 17.2092 70.0928 14.9592C70.0928 12.738 70.8266 10.838 72.2943 9.25907C73.762 7.68018 75.5503 6.89111 77.6607 6.89111C80.0748 6.89111 82.0192 7.96915 83.4916 10.1236V7.28766H85.3649V22.7149H85.3641ZM83.5943 15.1148C83.5943 13.3537 83.048 11.8695 81.957 10.6639C80.8636 9.45821 79.4881 8.85537 77.8293 8.85537C75.5998 8.85537 73.9371 9.8868 72.8403 11.9497C72.3144 12.9299 72.0513 13.9662 72.0513 15.0586C72.0513 16.1519 72.3144 17.1899 72.8403 18.1747C73.3663 19.1589 74.073 19.9271 74.9603 20.4778C75.8476 21.0292 76.7998 21.3046 77.8166 21.3046C78.8422 21.3046 79.8143 21.0316 80.7327 20.4858C81.6515 19.9392 82.3578 19.1999 82.8524 18.2671C83.347 17.3343 83.5943 16.2836 83.5943 15.1148Z"
    fill="white" />
  <path d="M90.8604 22.7149H88.9863V1.39258H90.8604V22.7149Z" fill="#64BA93" />
  <path
    d="M109.098 22.7149H107.224V20.0635C105.635 22.096 103.674 23.1123 101.339 23.1123C99.2213 23.1123 97.4345 22.3087 95.9807 20.7017C94.5438 19.1236 93.8262 17.2092 93.8262 14.9592C93.8262 12.738 94.56 10.838 96.0275 9.25907C97.4951 7.68018 99.2835 6.89111 101.394 6.89111C103.808 6.89111 105.752 7.96915 107.224 10.1236V7.28766H109.098V22.7149H109.098ZM107.299 15.1148C107.299 13.3537 106.752 11.8695 105.661 10.6639C104.568 9.45821 103.193 8.85537 101.533 8.85537C99.3046 8.85537 97.6414 9.8868 96.5448 11.9497C96.0187 12.9299 95.756 13.9662 95.756 15.0586C95.756 16.1519 96.0187 17.1899 96.5448 18.1747C97.0709 19.1589 97.7772 19.9271 98.6645 20.4778C99.5518 21.0292 100.504 21.3046 101.521 21.3046C102.547 21.3046 103.519 21.0316 104.437 20.4858C105.356 19.9392 106.062 19.1999 106.558 18.2671C107.051 17.3343 107.299 16.2836 107.299 15.1148Z"
    fill="#64BA93" />
  <path
    d="M128.259 15.0515C128.259 17.2758 127.53 19.1757 126.072 20.7499C124.615 22.324 122.838 23.1106 120.745 23.1106C118.373 23.1106 116.449 22.0366 114.969 19.887V22.7149H113.095V1.39258H114.969V9.97515C116.529 7.94829 118.471 6.93527 120.798 6.93527C122.901 6.93527 124.671 7.72996 126.105 9.31774C127.542 10.9063 128.259 12.8175 128.259 15.0515ZM126.4 15.0017C126.4 13.9092 126.137 12.8681 125.61 11.8792C125.084 10.8902 124.377 10.1196 123.49 9.56893C122.602 9.01831 121.655 8.74215 120.648 8.74215C119.623 8.74215 118.648 9.01831 117.725 9.56893C116.802 10.1196 116.094 10.8621 115.598 11.7949C115.104 12.7276 114.856 13.7775 114.856 14.9455C114.856 16.7075 115.403 18.1909 116.495 19.3965C117.586 20.6022 118.963 21.205 120.621 21.205C122.851 21.205 124.518 20.1735 125.625 18.1106C126.141 17.1305 126.4 16.095 126.4 15.0017Z"
    fill="#64BA93" />
  <path
    d="M138.795 18.592C138.795 19.8973 138.371 20.9793 137.521 21.8398C136.673 22.7003 135.626 23.1305 134.384 23.1305C132.588 23.1305 131.153 22.4041 130.08 20.9496L131.26 19.5328C132.214 20.6662 133.226 21.233 134.296 21.233C135.001 21.233 135.627 20.9906 136.176 20.5049C136.724 20.0201 136.999 19.4101 136.999 18.6755C136.999 17.9323 136.672 17.2772 136.022 16.7121C135.701 16.4296 135.067 16.0338 134.122 15.5249C133.043 14.9397 132.253 14.3593 131.755 13.783C131.077 13.0093 130.737 12.0837 130.737 11.0073C130.737 9.80802 131.119 8.82873 131.884 8.06856C132.648 7.3084 133.598 6.92871 134.733 6.92871C136.074 6.92871 137.424 7.62306 138.782 9.01091L137.578 10.3282C136.578 9.30873 135.602 8.79905 134.648 8.79905C134.067 8.79905 133.554 9.00054 133.109 9.40505C132.663 9.80883 132.44 10.3113 132.44 10.9126C132.44 11.9263 133.368 12.941 135.223 13.9548C136.365 14.5793 137.194 15.1749 137.711 15.7416C138.434 16.5348 138.795 17.4859 138.795 18.592Z"
    fill="#64BA93" />
</svg>
  
