<svg xmlns="http://www.w3.org/2000/svg" viewBox="0 0 100 30">
  <path fill="#DB1F26"
    d="M14.819 14.88V9.698h5.421V6.325H2.41v9.398h5.3v5.18h-5.3v3.374h17.83v-9.398H14.82Z" />
  <path fill="#fff"
    d="M33.133 17.77v6.868H29.88V7.168h5.301c1.205 0 2.169.12 3.012.362.843.24 1.566.602 2.048 1.084.723.362 1.085.964 1.326 1.566.24.603.361 1.326.361 2.049 0 .602-.12 1.084-.24 1.686-.121.603-.483.964-.724 1.446-.361.482-.723.844-1.205 1.085-.481.24-.964.602-1.686.723.361.24.722.602 1.084.963l4.337 6.386h-2.891c-.241 0-.482 0-.723-.12a.94.94 0 0 1-.482-.483l-3.615-5.542a.941.941 0 0 0-.481-.482c-.241-.12-.362-.12-.723-.12h-1.446Zm0-2.288h2.048c.602 0 1.084-.12 1.566-.241.482-.12.844-.362 1.085-.603.24-.24.482-.602.602-.963.12-.362.241-.723.241-1.205 0-.844-.24-1.567-.843-2.049-.603-.481-1.446-.722-2.65-.722h-2.05v5.783ZM58.555 7.168v2.53h-7.711v4.82h6.144v2.53h-6.144v4.94h7.71v2.65H47.592V7.168h10.964ZM78.675 15.843c0 1.326-.241 2.41-.603 3.494-.482 1.085-.964 1.928-1.807 2.771-.723.723-1.687 1.325-2.771 1.807-1.084.482-2.29.603-3.615.603h-6.626V7.168h6.626c1.326 0 2.53.241 3.615.603 1.084.482 2.048 1.084 2.771 1.807.723.723 1.325 1.687 1.807 2.771.482 1.085.603 2.29.603 3.494Zm-3.253 0c0-.964-.12-1.807-.362-2.53-.24-.723-.602-1.446-1.084-1.928-.482-.482-1.085-.963-1.687-1.204-.602-.241-1.566-.482-2.41-.482h-3.373v12.289h3.373c.844 0 1.567-.12 2.29-.482a6.046 6.046 0 0 0 1.686-1.205c.482-.482.844-1.205 1.085-1.928.361-.723.482-1.566.482-2.53ZM93.374 8.373c0 .482-.12.723-.361 1.085-.241.24-.723.361-1.326.361h-4.819l-.602 3.615c.843-.12 1.446-.241 2.168-.241.964 0 1.687.12 2.41.361.723.241 1.325.602 1.807 1.085.482.481.844 1.084 1.085 1.686.24.603.361 1.326.361 2.048 0 .964-.12 1.808-.482 2.53-.361.723-.723 1.446-1.325 1.928a4.421 4.421 0 0 1-2.048 1.205c-.844.241-1.687.482-2.53.482-.603 0-1.085 0-1.567-.12-.482-.121-.963-.241-1.325-.482-.482-.241-.843-.362-1.205-.603-.361-.24-.723-.482-.964-.723l.964-1.205c.241-.24.482-.361.723-.361s.362.12.603.241l.722.361c.241.12.603.241.964.362.362.12.844.24 1.326.24.602 0 1.084-.12 1.445-.24.362-.12.723-.482 1.085-.723.24-.361.482-.723.602-1.084.12-.482.241-.964.241-1.446 0-.964-.24-1.687-.843-2.169s-1.326-.843-2.41-.843c-.843 0-1.687.12-2.53.482l-1.807-.482 1.445-8.434h8.555v1.084h-.362Z" />
</svg>
