<svg xmlns="http://www.w3.org/2000/svg" viewBox="0 0 124 66">
  <path fill="#fff" d="M20.03 65.227h102.778V20.094L103.546.773H.768v45.133z" />
  <path fill="#000"
    d="M0 0h103.868l19.712 19.774V66H19.713L.002 46.227V0zm1.54 2.64v42.946l17.721 17.775V20.414zm1.09-1.093 17.721 17.775h100.601L103.231 1.547zm119.411 19.32H20.805v43.587H122.04z" />
  <path fill="#000"
    d="M38.987 38.128c0 1.545-1.028 2.884-3.493 2.884-1.08 0-1.953-.258-2.722-.566v-2.164c.821.413 1.797.67 2.67.67.822 0 1.233-.258 1.233-.722 0-1.442-3.903-.98-3.903-3.915 0-1.803 1.438-2.886 3.441-2.886.821 0 1.592.207 2.414.67v2.216c-1.079-.67-1.85-.877-2.466-.877-.719 0-1.13.259-1.13.721-.051 1.341 3.956.825 3.956 3.969M40.94 36.22c0-2.627 2.157-4.791 4.777-4.791s4.777 2.164 4.777 4.791-2.157 4.791-4.777 4.791c-2.62-.051-4.777-2.164-4.777-4.792m7.191 0c0-1.443-1.078-2.525-2.415-2.525-1.334 0-2.413 1.082-2.413 2.525s1.079 2.525 2.413 2.525c1.337 0 2.415-1.083 2.415-2.526M55.828 30.86v.774h3.03l-1.027 2.164h-1.952v7.006H53.67v-7.058h-1.54v-2.163h1.54v-.876c0-2.782 1.439-4.173 3.699-4.173.565 0 1.078.103 1.54.206v2.164c-.41-.154-.872-.206-1.336-.206-1.232 0-1.745.824-1.745 2.163M63.486 33.748v3.658c0 .98.565 1.392 1.438 1.392.565 0 1.13-.155 1.592-.464v2.267c-.616.257-1.18.412-2.002.412-2.005 0-3.237-1.082-3.237-3.298v-3.916h-1.336v-2.163h1.337v-2.37l2.208-.567v2.937h3.03V33.8h-3.03zM82.491 31.635l-2.928 9.17h-2.208l-2.003-6.285-2.055 6.285h-2.209l-2.928-9.17h2.517l1.644 6.132 1.952-6.132h2.208l1.953 6.132 1.643-6.132zM83.624 36.22c0-2.627 1.9-4.791 4.521-4.791 1.026 0 1.848.31 2.464.825v-.619h2.21v9.17H90.66v-.721c-.616.567-1.489.927-2.567.927-2.518-.051-4.469-2.164-4.469-4.792m7.192 0c0-1.443-1.08-2.525-2.415-2.525-1.336 0-2.414 1.082-2.414 2.525s1.078 2.525 2.414 2.525c1.335 0 2.415-1.083 2.415-2.526M95.948 31.635h2.158v1.236c.668-1.236 1.9-1.442 2.979-1.442v2.627c-1.541-.413-2.927.463-2.927 2.422v4.276h-2.21zM108.065 38.848a7.9 7.9 0 0 0 2.928-.567l-1.13 2.318a6 6 0 0 1-2.209.413c-3.236 0-5.187-2.01-5.187-4.792 0-2.627 1.951-4.791 4.777-4.791 1.9 0 3.441.979 4.057 2.215v3.35h-6.471c.307 1.08 1.386 1.854 3.235 1.854m-3.287-3.606h4.776c-.307-1.083-1.232-1.752-2.414-1.752-1.13 0-2.003.72-2.362 1.752M45.558 48.534v6.027H43.35v-5.667c0-.98-.72-1.545-1.438-1.545-.77 0-1.44.566-1.44 1.545v5.667h-2.207v-5.667c0-.98-.72-1.545-1.439-1.545-.77 0-1.438.566-1.438 1.545v5.667h-2.207v-9.17h2.157v.67c.513-.62 1.181-.826 2.054-.826.976 0 1.799.413 2.363 1.186.719-.825 1.643-1.185 2.774-1.185 1.694 0 3.03 1.34 3.03 3.297M47.87 49.98c0-2.629 1.9-4.792 4.519-4.792 1.027 0 1.85.308 2.465.824v-.619h2.209v9.17h-2.157v-.72c-.617.566-1.49.926-2.568.926-2.518 0-4.469-2.162-4.469-4.79m7.19 0c0-1.444-1.078-2.526-2.414-2.526s-2.414 1.083-2.414 2.526 1.079 2.524 2.414 2.524 2.415-1.081 2.415-2.524M60.098 45.392h2.156v.67c.669-.67 1.541-.876 2.415-.876 1.9 0 3.44 1.442 3.44 3.4v5.924h-2.207V49.1a1.736 1.736 0 0 0-1.747-1.751 1.736 1.736 0 0 0-1.746 1.751v5.462H60.2v-9.171zM76.997 51.884c0 1.545-1.027 2.884-3.493 2.884-1.078 0-1.952-.258-2.722-.566v-2.164c.822.413 1.798.67 2.672.67.821 0 1.231-.258 1.231-.721 0-1.444-3.902-.98-3.902-3.916 0-1.804 1.437-2.886 3.44-2.886.822 0 1.593.207 2.415.67v2.216c-1.079-.67-1.85-.877-2.466-.877-.72 0-1.13.258-1.13.721-.051 1.392 3.955.877 3.955 3.969M81.773 45.39v9.17h-2.209v-9.17zM84.082 49.98c0-2.629 2.157-4.792 4.777-4.792s4.776 2.163 4.776 4.79-2.157 4.791-4.776 4.791c-2.62 0-4.777-2.162-4.777-4.79m7.192 0c0-1.444-1.079-2.526-2.415-2.526-1.335 0-2.414 1.083-2.414 2.526s1.079 2.524 2.414 2.524 2.415-1.081 2.415-2.524M95.894 45.392h2.157v.67c.668-.67 1.541-.876 2.415-.876 1.9 0 3.44 1.442 3.44 3.4v5.924h-2.208V49.1a1.74 1.74 0 0 0-1.076-1.621 1.7 1.7 0 0 0-.671-.13 1.737 1.737 0 0 0-1.746 1.751v5.462h-2.208v-9.171zM108.27 52.038v.36h-.769v2.165h-.412v-2.164h-.77v-.36zM109.143 52.039l.822 2.009.77-2.01h.514v2.525h-.411V52.71l-.771 1.854h-.359l-.771-1.854v1.854h-.411v-2.525z" />
</svg>
