<svg xmlns="http://www.w3.org/2000/svg" viewBox="0 0 146 30" fill="#fff">
  <path
    d="M1.25 6.545A3.746 3.746 0 0 1 .064 3.063 3.762 3.762 0 0 1 4.037.01a3.75 3.75 0 0 1 3.449 3.416c.254 2.933.533 5.865.835 8.795.034.329.167.64.381.891l5.976 7.026c.118.139.34.106.412-.061L22.797 2.29a3.747 3.747 0 0 1 3.05-2.268 3.764 3.764 0 0 1 4.094 3.065 3.743 3.743 0 0 1-1.024 3.298L15.516 20.19a.654.654 0 0 0-.027.881l2.34 2.718c.5.574.832 1.306.906 2.13a3.765 3.765 0 0 1-3.136 4.034 3.75 3.75 0 0 1-4.264-2.916L8.27 13.338a1.633 1.633 0 0 0-.494-.85L1.25 6.544ZM50.226 17.812c.197.672.434 1.699.434 1.778l.514-1.778 2.804-9.046h2.45l-4.346 13.43H49.18l-4.167-13.43H47.5l2.726 9.046ZM64.25 22.197h-2.371V8.767h2.37v13.43ZM78.651 16.45c.297.454.85 1.342 1.028 1.639 0-.435-.04-2.923-.04-4.82V8.767h2.35v13.43h-2.211l-5.294-8.077c-.414-.652-.83-1.383-.849-1.383.02.632.04 2.726.04 4.977v4.484h-2.35V8.767h2.211l5.115 7.683ZM91.5 20.044h1.56c1.501 0 2.647-.02 3.477-.81.632-.652 1.204-2.054 1.204-3.713 0-1.64-.474-2.982-1.382-3.772-.79-.692-1.797-.79-3.555-.79H91.5v9.085Zm-2.39 2.153V8.767h3.753c2.172 0 3.535 0 4.898.947 1.462 1.067 2.508 3.101 2.508 5.728 0 2.252-.71 4.168-1.955 5.353-1.442 1.402-3.002 1.402-5.51 1.402H89.11ZM108.196 14.692h2.548c.968 0 1.482-.08 1.896-.257.593-.277.948-.948.948-1.679 0-.73-.355-1.383-.948-1.64-.414-.177-.928-.256-1.896-.256h-2.548v3.832Zm0 2.133v5.372h-2.37V8.767h4.918c1.146 0 2.35.02 3.378.612 1.184.691 1.915 1.797 1.915 3.436 0 1.482-.691 2.568-1.777 3.298-.316.198-.731.356-1.047.475l3.357 5.609h-2.824l-3.12-5.372h-2.43ZM126.981 12.953c-.217-.632-.356-1.204-.494-1.718h-.019a18.51 18.51 0 0 1-.494 1.68l-1.264 4.127h3.515l-1.244-4.089Zm-3.99 9.244h-2.469l4.662-13.43h2.686l4.622 13.43h-2.548l-1.027-3.042h-4.879l-1.047 3.042ZM139.635 8.766v11.258h5.864v2.173h-8.253V8.767h2.389Z" />
</svg>
