<svg xmlns="http://www.w3.org/2000/svg" fill="#ff8400" viewBox="0 0 170 42.45">
  <path
    d="M63.54 25.43a18 18 0 0 1 .39 2.33H64a19 19 0 0 1 .37-2.33l3.55-15.2h4l-5.55 22h-4.5l-3.31-13a25 25 0 0 1-.56-2.9 25 25 0 0 1-.55 2.88l-3.3 13h-4.58l-5.4-22h4l3.4 15.2a20 20 0 0 1 .43 2.35 17 17 0 0 1 .4-2.33l3.88-15.2h3.4ZM85.6 9.86a11 11 0 0 1 11.14 11.21c0 6.47-4.8 11.52-11.14 11.52s-11.14-5.05-11.14-11.52A11 11 0 0 1 85.6 9.86m0 19.07c3.94 0 7.1-3.34 7.1-7.86a7.11 7.11 0 1 0-14.2 0c0 4.52 3.15 7.86 7.1 7.86M118.65 25.43a18 18 0 0 1 .39 2.33h.06a22 22 0 0 1 .37-2.33l3.53-15.2h4l-5.56 22H117l-3.31-13a28 28 0 0 1-.55-2.88h-.06a27 27 0 0 1-.54 2.88l-3.31 13h-4.52l-5.41-22h4l3.4 15.2a20 20 0 0 1 .36 2.33h.07a18 18 0 0 1 .39-2.33l3.89-15.2h3.39ZM129.57 29.64l9.56-14a13.4 13.4 0 0 1 1.58-2v-.06s-.61.06-1.61.06h-9v-3.41h15.57v2.54l-9.56 14a13.4 13.4 0 0 1-1.58 2v.06s.61-.06 1.61-.06h9.65v3.43h-16.22ZM161.11 26.58h-7.56l-1.82 5.63h-4l7.59-22h4.1l7.58 22h-4ZM157.31 14s-.48 2.17-.91 3.41l-1.91 5.88h5.64l-1.91-5.88c-.39-1.24-.85-3.41-.85-3.41Z"
  />
  <circle cx="19.56" cy="21.19" r="16.47" fill="#fff" transform="rotate(-81.55 19.56 21.186)" />
  <path
    d="M15.09 32.54c-.74.29-1.61 1-2.4.32s-.11-2-.11-2S18.5 17 18.84 15.43c.28-1.28-.43-1.17-1.24-.46-.46.41-6.72 5.85-7.64 6.32-.63.32-1.42.62-2 .09s.07-1.8.07-1.8l6.5-14.11c-.41.13-.81.27-1.22.43a16.53 16.53 0 1 0 22.78 15.35c-7.34 4-20.54 11.11-21 11.29"
  />
  <path
    d="M18.42 4.74C17 7.83 15 12.07 15.09 12.57c.13.79 1 .08 1 .08s5.88-5 7-5.65 1.44.27 1.28.84-3.6 9.32-3.45 10.32 1.39.18 1.84-.15 8.86-8.09 8.86-8.09a16.55 16.55 0 0 0-13.2-5.18"
  />
</svg>
