<svg xmlns="http://www.w3.org/2000/svg" viewBox="0 0 828 184.147">
  <path
    d="m789.184 394.598 511.246 296.664-511.246 295.222ZM216.02 41.762C131.051 64.809 64.805 132.488 40.324 216.02 0 370.109 0 691.262 0 691.262s0 321.148 40.324 473.798c24.48 84.96 90.727 151.22 175.696 174.26 152.652 41.76 769.023 41.76 769.023 41.76s617.817 0 770.467-41.76c86.41-23.04 151.21-89.3 174.26-174.26 41.76-152.65 41.76-473.798 41.76-473.798s0-321.153-41.76-475.242c-23.05-83.532-87.85-151.211-174.26-174.258C1602.86 0 985.043 0 985.043 0S368.672 0 216.02 41.762"
    style="fill:#ed1838;fill-opacity:1;fill-rule:nonzero;stroke:none"
    transform="matrix(.13333 0 0 -.13333 0 184.147)" />
  <path
    d="m789.184 394.598 511.246 296.664-511.246 295.222ZM2391.13 84.969V463l-228.26 831.68h198.01l82.09-368.676c18.72-84.973 38.17-206.66 46.81-250.586h1.44c8.64 42.484 27.36 164.172 46.8 249.145l84.97 370.117h198.02L2589.87 463V84.969h-198.74M3102.51 630.773c0 169.938-15.84 218.903-72 218.903-57.6 0-74.89-48.965-74.89-218.903V427.715c0-175.695 17.29-220.336 72.01-220.336 59.04 0 74.88 44.641 74.88 220.336zm201.63-67.687V492.52c0-313.938-69.13-420.508-275.07-420.508-211.7 0-275.06 109.449-275.06 420.508v70.566c0 321.148 82.08 423.398 279.38 423.398s270.75-106.566 270.75-423.398M3387.6 305.309v663.898h198.74V326.191c0-77.769 17.28-112.332 58.32-112.332 30.97 0 61.2 13.68 82.81 71.282v684.066h198.74V86.41h-168.5L3746.2 205.22h-.73c-24.48-84.25-72.72-136.09-172.81-136.09-132.5 0-185.06 84.961-185.06 236.18"
    style="fill:#fff;fill-opacity:1;fill-rule:nonzero;stroke:none"
    transform="matrix(.13333 0 0 -.13333 0 184.147)" />
  <path d="M4065.84 86.41v1038.33h-196.57v169.94h591.9v-169.94h-196.58V86.41h-198.75"
    style="fill:#fff;fill-opacity:1;fill-rule:nonzero;stroke:none"
    transform="matrix(.13333 0 0 -.13333 0 184.147)" />
  <path
    d="M4406.41 305.309v663.898h198.74V326.191c0-77.769 17.28-112.332 58.32-112.332 30.97 0 61.2 13.68 82.8 71.282v684.066h198.74V86.41h-168.49l-11.51 118.809h-.73c-24.48-84.25-72.72-136.09-172.81-136.09-132.5 0-185.06 84.961-185.06 236.18M5403.62 596.211c0 204.5-17.27 249.141-72.72 249.141-37.45 0-73.45-33.122-87.85-96.489V261.379c17.28-33.84 47.52-48.238 79.21-48.238 59.76 0 81.36 63.359 81.36 254.898zm203.07 0v-118.09c0-285.152-60.49-404.672-194.42-404.672-81.37 0-142.58 36-174.26 96.481h-.72l-12.96-83.52h-172.82v1252.91h191.54v-253.46c0-66.25 1.44-132.501-4.32-211.704h2.15c33.13 66.246 90.02 112.328 179.31 112.328 128.17 0 186.5-83.523 186.5-390.273M5880.96 642.297v-66.969H6012v66.969c0 162.734-6.47 208.816-66.24 208.816-59.76 0-64.8-47.523-64.8-208.816zm329.06-177.859h-329.06v-48.243c0-155.535 3.59-208.816 67.68-208.816 63.36 0 77.77 48.961 79.2 149.769l174.98-7.918c12.96-192.261-86.4-277.218-254.9-277.218-204.5 0-264.98 133.929-264.98 377.304v154.098c0 256.34 67.69 381.633 270.74 381.633 204.49 0 256.34-106.57 256.34-372.996V464.438"
    style="fill:#fff;fill-opacity:1;fill-rule:nonzero;stroke:none"
    transform="matrix(.13333 0 0 -.13333 0 184.147)" />
</svg>
